<?xml version="1.0" encoding="iso-8859-1"?>
<!-- Generator: Adobe Illustrator 19.0.0, SVG Export Plug-In . SVG Version: 6.00 Build 0)  -->
<svg version="1.1" id="Capa_1" xmlns="http://www.w3.org/2000/svg" xmlns:xlink="http://www.w3.org/1999/xlink" x="0px" y="0px"
	 viewBox="0 0 512 512" style="enable-background:new 0 0 512 512;" xml:space="preserve">
<g>
	<g>
		<path d="M498.787,221.393c-17.546-17.544-46.095-17.544-63.676,0.036l-15.059,15.161v-88.164c0-12.02-4.681-23.32-13.181-31.819
			L364.447,74.18c-1.39-1.39-2.862-2.667-4.394-3.85V15c0-8.284-6.716-15-15-15h-330c-8.284,0-15,6.716-15,15v421
			c0,8.284,6.716,15,15,15h45v46c0,8.284,6.716,15,15,15h330c8.284,0,15-6.716,15-15V364.302l78.734-79.269
			C516.333,267.488,516.333,238.939,498.787,221.393z M330.054,91h2.573c4.007,0,7.774,1.56,10.607,4.393l42.426,42.427
			c2.833,2.833,4.394,6.6,4.394,10.606V151h-60V91z M60.053,76v345h-30c0,0,0-391,0-391h300v31h-255
			C66.769,61,60.053,67.716,60.053,76z M390.054,482L390.054,482H90.053V91h210v75c0,8.284,6.716,15,15,15h75v85.793L287.62,369.922
			c-1.944,1.958-3.312,4.414-3.95,7.098l-13.209,55.507c-2.59,10.883,7.225,20.613,18.026,18.075l55.636-13.081
			c2.732-0.643,5.23-2.04,7.209-4.031c4.08-4.108,34.642-34.877,38.722-38.984V482z M338.846,403.488l-5.773,5.812l-27.804,6.537
			l6.609-27.767l5.733-5.772c4.598,2.194,8.828,5.159,12.471,8.801C333.703,394.72,336.655,398.922,338.846,403.488z
			 M360.747,381.439c-2.749-4.137-5.912-8.012-9.452-11.553c-3.612-3.612-7.574-6.828-11.805-9.615
			c5.44-5.477,79.715-80.256,85.159-85.737l21.213,21.213L360.747,381.439z M477.539,263.856l-10.535,10.606l-21.213-21.213
			l10.571-10.642c5.848-5.849,15.367-5.847,21.213-0.001C483.424,248.455,483.424,257.971,477.539,263.856z"/>
	</g>
</g>
<g>
	<g>
		<path d="M255.053,121h-120c-8.284,0-15,6.716-15,15s6.716,15,15,15h120c8.284,0,15-6.716,15-15S263.337,121,255.053,121z"/>
	</g>
</g>
<g>
	<g>
		<path d="M255.053,181h-120c-8.284,0-15,6.716-15,15s6.716,15,15,15h120c8.284,0,15-6.716,15-15S263.337,181,255.053,181z"/>
	</g>
</g>
<g>
	<g>
		<path d="M345.053,241h-210c-8.284,0-15,6.716-15,15s6.716,15,15,15h210c8.284,0,15-6.716,15-15S353.337,241,345.053,241z"/>
	</g>
</g>
<g>
	<g>
		<path d="M265.659,335.394c-5.857-5.859-15.355-5.859-21.212,0l-79.394,79.393l-19.394-19.393c-5.857-5.858-15.355-5.858-21.213,0
			c-5.858,5.858-5.858,15.355,0,21.213l30,30c5.857,5.858,15.356,5.858,21.213,0l90-90
			C271.517,350.749,271.517,341.252,265.659,335.394z"/>
	</g>
</g>
<g>
</g>
<g>
</g>
<g>
</g>
<g>
</g>
<g>
</g>
<g>
</g>
<g>
</g>
<g>
</g>
<g>
</g>
<g>
</g>
<g>
</g>
<g>
</g>
<g>
</g>
<g>
</g>
<g>
</g>
</svg>
