<?xml version="1.0" encoding="utf-8"?>
<!-- Generator: Adobe Illustrator 16.0.0, SVG Export Plug-In . SVG Version: 6.00 Build 0)  -->
<!DOCTYPE svg PUBLIC "-//W3C//DTD SVG 1.1//EN" "http://www.w3.org/Graphics/SVG/1.1/DTD/svg11.dtd" [
	<!ENTITY ns_extend "http://ns.adobe.com/Extensibility/1.0/">
	<!ENTITY ns_ai "http://ns.adobe.com/AdobeIllustrator/10.0/">
	<!ENTITY ns_graphs "http://ns.adobe.com/Graphs/1.0/">
	<!ENTITY ns_vars "http://ns.adobe.com/Variables/1.0/">
	<!ENTITY ns_imrep "http://ns.adobe.com/ImageReplacement/1.0/">
	<!ENTITY ns_sfw "http://ns.adobe.com/SaveForWeb/1.0/">
	<!ENTITY ns_custom "http://ns.adobe.com/GenericCustomNamespace/1.0/">
	<!ENTITY ns_adobe_xpath "http://ns.adobe.com/XPath/1.0/">
]>
<svg version="1.1" id="Layer_1" xmlns:x="&ns_extend;" xmlns:i="&ns_ai;" xmlns:graph="&ns_graphs;"
	 xmlns="http://www.w3.org/2000/svg" xmlns:xlink="http://www.w3.org/1999/xlink" x="0px" y="0px" width="1000px" height="500px"
	 viewBox="0 0 1000 500" enable-background="new 0 0 1000 500" xml:space="preserve">
	 <style>
	 	.path {
  stroke-dasharray: 1000;
  stroke-dashoffset: 1000;
  animation: dash 2s linear infinite;
}

@keyframes dash {
  from {
    stroke-dashoffset: 1000;
  }
  to {
    stroke-dashoffset: 0;
  }
}
	 </style>
<metadata>
	<sfw  xmlns="&ns_sfw;">
		<slices></slices>
		<sliceSourceBounds  height="544.054" width="1154.087" bottomLeftOrigin="true" y="-43.554" x="-36.381"></sliceSourceBounds>
	</sfw>
</metadata>
<g>
	<defs>
		<rect id="SVGID_1_" width="1000" height="500"/>
	</defs>
	<clipPath id="SVGID_2_">
		<use xlink:href="#SVGID_1_"  overflow="visible"/>
	</clipPath>
	<rect clip-path="url(#SVGID_2_)" fill="none" stroke="#000000" stroke-miterlimit="10" width="1000" height="500"/>
</g>
<rect y="5" fill="#C2C1BF" width="1000" height="2"/>
<rect y="85" fill="#C1C1C1" width="1000" height="2"/>
<rect y="165" fill="#C1C1C1" width="1000" height="2"/>
<rect y="245" fill="#C1C1C1" width="1000" height="2"/>
<rect y="325" fill="#C1C1C1" width="1000" height="2"/>
<rect y="404.999" fill="#C1C1C1" width="1000" height="2.001"/>
<rect y="491" fill="#C1C1C1" width="1000" height="2"/>
<g>
	<defs>
		<rect id="SVGID_3_" width="1000" height="500"/>
	</defs>
	<clipPath id="SVGID_4_">
		<use xlink:href="#SVGID_3_"  overflow="visible"/>
	</clipPath>
	
		<circle clip-path="url(#SVGID_4_)" fill="none" stroke="#FFFFFF" stroke-width="2" stroke-miterlimit="10" cx="841" cy="167.243" r="148.757"/>
	
		<circle clip-path="url(#SVGID_4_)" fill="none" stroke="#FFFFFF" stroke-width="2" stroke-miterlimit="10" cx="841" cy="167.243" r="134"/>
	
		<circle clip-path="url(#SVGID_4_)" fill="none" stroke="#FFFFFF" stroke-width="2" stroke-miterlimit="10" cx="841" cy="167.243" r="116.257"/>
	<polygon clip-path="url(#SVGID_4_)" fill="none" stroke="#FFFFFF" stroke-miterlimit="10" points="841.845,193.995 841.845,147.17 
		796.281,167.161 	"/>
	<polygon clip-path="url(#SVGID_4_)" fill="none" stroke="#FFFFFF" stroke-miterlimit="10" points="841.845,143.929 841.845,89.18 
		797.722,163.379 	"/>
	<polygon clip-path="url(#SVGID_4_)" fill="none" stroke="#FFFFFF" stroke-miterlimit="10" points="843.466,89 843.466,143.929 
		888.31,163.559 	"/>
	<polygon clip-path="url(#SVGID_4_)" fill="none" stroke="#FFFFFF" stroke-miterlimit="10" points="843.466,147.17 843.466,193.996 
		889.21,167.162 	"/>
	<polygon clip-path="url(#SVGID_4_)" fill="none" stroke="#FFFFFF" stroke-miterlimit="10" points="841.845,241 841.845,203.36 
		796.461,176.886 	"/>
	<polygon clip-path="url(#SVGID_4_)" fill="none" stroke="#FFFFFF" stroke-miterlimit="10" points="843.466,241 888.85,176.886 
		843.466,203.36 	"/>
	<path clip-path="url(#SVGID_4_)" fill="#FFFFFF" d="M738.685,71.205c0,1.093-0.886,1.98-1.98,1.98c-1.093,0-1.979-0.887-1.979-1.98
		c0-1.093,0.886-1.98,1.979-1.98C737.799,69.225,738.685,70.112,738.685,71.205"/>
	<path clip-path="url(#SVGID_4_)" fill="#FFFFFF" d="M750.685,60.205c0,1.093-0.886,1.98-1.98,1.98c-1.093,0-1.979-0.887-1.979-1.98
		c0-1.093,0.886-1.98,1.979-1.98C749.799,58.225,750.685,59.112,750.685,60.205"/>
	<path clip-path="url(#SVGID_4_)" fill="#FFFFFF" d="M762.685,51.205c0,1.093-0.886,1.98-1.98,1.98c-1.093,0-1.979-0.887-1.979-1.98
		c0-1.093,0.886-1.98,1.979-1.98C761.799,49.225,762.685,50.112,762.685,51.205"/>
	<path clip-path="url(#SVGID_4_)" fill="#FFFFFF" d="M776.685,42.205c0,1.093-0.886,1.98-1.98,1.98c-1.093,0-1.979-0.887-1.979-1.98
		c0-1.093,0.886-1.98,1.979-1.98C775.799,40.225,776.685,41.112,776.685,42.205"/>
	<path clip-path="url(#SVGID_4_)" fill="#FFFFFF" d="M790.685,35.205c0,1.093-0.886,1.98-1.98,1.98c-1.093,0-1.979-0.887-1.979-1.98
		c0-1.093,0.886-1.98,1.979-1.98C789.799,33.225,790.685,34.112,790.685,35.205"/>
	<path clip-path="url(#SVGID_4_)" fill="#FFFFFF" d="M806.685,30.205c0,1.093-0.886,1.98-1.98,1.98c-1.093,0-1.979-0.887-1.979-1.98
		c0-1.093,0.886-1.98,1.979-1.98C805.799,28.225,806.685,29.112,806.685,30.205"/>
	<path clip-path="url(#SVGID_4_)" fill="#FFFFFF" d="M822.685,27.205c0,1.093-0.886,1.98-1.98,1.98c-1.093,0-1.979-0.887-1.979-1.98
		c0-1.093,0.886-1.98,1.979-1.98C821.799,25.225,822.685,26.112,822.685,27.205"/>
	<path clip-path="url(#SVGID_4_)" fill="#FFFFFF" d="M838.685,26.205c0,1.093-0.886,1.98-1.98,1.98c-1.093,0-1.979-0.887-1.979-1.98
		c0-1.093,0.886-1.98,1.979-1.98C837.799,24.225,838.685,25.112,838.685,26.205"/>
	<path clip-path="url(#SVGID_4_)" fill="#FFFFFF" d="M854.685,26.205c0,1.093-0.886,1.98-1.98,1.98c-1.093,0-1.979-0.887-1.979-1.98
		c0-1.093,0.886-1.98,1.979-1.98C853.799,24.225,854.685,25.112,854.685,26.205"/>
	<path clip-path="url(#SVGID_4_)" fill="#FFFFFF" d="M870.685,28.205c0,1.093-0.886,1.98-1.98,1.98c-1.093,0-1.979-0.887-1.979-1.98
		c0-1.093,0.886-1.98,1.979-1.98C869.799,26.225,870.685,27.112,870.685,28.205"/>
	<path clip-path="url(#SVGID_4_)" fill="#FFFFFF" d="M885.685,32.205c0,1.093-0.886,1.98-1.98,1.98c-1.093,0-1.979-0.887-1.979-1.98
		c0-1.093,0.886-1.98,1.979-1.98C884.799,30.225,885.685,31.112,885.685,32.205"/>
	<path clip-path="url(#SVGID_4_)" fill="#FFFFFF" d="M899.685,37.205c0,1.093-0.886,1.98-1.98,1.98c-1.093,0-1.979-0.887-1.979-1.98
		c0-1.093,0.886-1.98,1.979-1.98C898.799,35.225,899.685,36.112,899.685,37.205"/>
	<path clip-path="url(#SVGID_4_)" fill="#FFFFFF" d="M913.685,44.205c0,1.093-0.886,1.98-1.98,1.98c-1.093,0-1.979-0.887-1.979-1.98
		c0-1.093,0.886-1.98,1.979-1.98C912.799,42.225,913.685,43.112,913.685,44.205"/>
	<path clip-path="url(#SVGID_4_)" fill="#FFFFFF" d="M925.685,52.205c0,1.093-0.886,1.98-1.98,1.98c-1.093,0-1.979-0.887-1.979-1.98
		c0-1.093,0.886-1.98,1.979-1.98C924.799,50.225,925.685,51.112,925.685,52.205"/>
	<path clip-path="url(#SVGID_4_)" fill="#FFFFFF" d="M936.685,62.205c0,1.093-0.886,1.98-1.98,1.98c-1.093,0-1.979-0.887-1.979-1.98
		c0-1.093,0.886-1.98,1.979-1.98C935.799,60.225,936.685,61.112,936.685,62.205"/>
	<path clip-path="url(#SVGID_4_)" fill="#FFFFFF" d="M948.685,73.205c0,1.093-0.886,1.98-1.98,1.98c-1.093,0-1.979-0.887-1.979-1.98
		c0-1.093,0.886-1.98,1.979-1.98C947.799,71.225,948.685,72.112,948.685,73.205"/>
	<path clip-path="url(#SVGID_4_)" fill="#FFFFFF" d="M958.685,86.205c0,1.093-0.886,1.98-1.98,1.98c-1.093,0-1.979-0.887-1.979-1.98
		c0-1.093,0.886-1.98,1.979-1.98C957.799,84.225,958.685,85.112,958.685,86.205"/>
	<path clip-path="url(#SVGID_4_)" fill="#FFFFFF" d="M966.685,99.205c0,1.093-0.886,1.98-1.98,1.98c-1.093,0-1.979-0.887-1.979-1.98
		c0-1.093,0.886-1.98,1.979-1.98C965.799,97.225,966.685,98.112,966.685,99.205"/>
	<path clip-path="url(#SVGID_4_)" fill="#FFFFFF" d="M973.979,113.205c0,1.093-0.886,1.98-1.979,1.98s-1.979-0.887-1.979-1.98
		c0-1.093,0.886-1.98,1.979-1.98S973.979,112.112,973.979,113.205"/>
	<path clip-path="url(#SVGID_4_)" fill="#FFFFFF" d="M977.979,126.205c0,1.093-0.886,1.98-1.979,1.98s-1.979-0.887-1.979-1.98
		c0-1.093,0.886-1.98,1.979-1.98S977.979,125.112,977.979,126.205"/>
	<path clip-path="url(#SVGID_4_)" fill="#FFFFFF" d="M738.632,263.395c0-1.093-0.886-1.979-1.979-1.979s-1.979,0.887-1.979,1.979
		s0.886,1.98,1.979,1.98S738.632,264.487,738.632,263.395"/>
	<path clip-path="url(#SVGID_4_)" fill="#FFFFFF" d="M750.632,274.395c0-1.093-0.886-1.979-1.979-1.979s-1.979,0.887-1.979,1.979
		s0.886,1.98,1.979,1.98S750.632,275.487,750.632,274.395"/>
	<path clip-path="url(#SVGID_4_)" fill="#FFFFFF" d="M762.632,283.395c0-1.093-0.886-1.979-1.979-1.979s-1.979,0.887-1.979,1.979
		s0.886,1.98,1.979,1.98S762.632,284.487,762.632,283.395"/>
	<path clip-path="url(#SVGID_4_)" fill="#FFFFFF" d="M776.632,292.395c0-1.093-0.886-1.979-1.979-1.979s-1.979,0.887-1.979,1.979
		s0.886,1.98,1.979,1.98S776.632,293.487,776.632,292.395"/>
	<path clip-path="url(#SVGID_4_)" fill="#FFFFFF" d="M790.632,299.395c0-1.093-0.886-1.979-1.979-1.979s-1.979,0.887-1.979,1.979
		s0.886,1.98,1.979,1.98S790.632,300.487,790.632,299.395"/>
	<path clip-path="url(#SVGID_4_)" fill="#FFFFFF" d="M806.632,304.395c0-1.093-0.886-1.979-1.979-1.979s-1.979,0.887-1.979,1.979
		s0.886,1.98,1.979,1.98S806.632,305.487,806.632,304.395"/>
	<path clip-path="url(#SVGID_4_)" fill="#FFFFFF" d="M822.632,307.395c0-1.093-0.886-1.979-1.979-1.979s-1.979,0.887-1.979,1.979
		s0.886,1.98,1.979,1.98S822.632,308.487,822.632,307.395"/>
	<path clip-path="url(#SVGID_4_)" fill="#FFFFFF" d="M838.632,308.395c0-1.093-0.886-1.979-1.979-1.979s-1.979,0.887-1.979,1.979
		s0.886,1.98,1.979,1.98S838.632,309.487,838.632,308.395"/>
	<path clip-path="url(#SVGID_4_)" fill="#FFFFFF" d="M854.632,308.395c0-1.093-0.886-1.979-1.979-1.979s-1.979,0.887-1.979,1.979
		s0.886,1.98,1.979,1.98S854.632,309.487,854.632,308.395"/>
	<path clip-path="url(#SVGID_4_)" fill="#FFFFFF" d="M870.632,306.395c0-1.093-0.886-1.979-1.979-1.979s-1.979,0.887-1.979,1.979
		s0.886,1.98,1.979,1.98S870.632,307.487,870.632,306.395"/>
	<path clip-path="url(#SVGID_4_)" fill="#FFFFFF" d="M885.632,302.395c0-1.093-0.886-1.979-1.979-1.979s-1.979,0.887-1.979,1.979
		s0.886,1.98,1.979,1.98S885.632,303.487,885.632,302.395"/>
	<path clip-path="url(#SVGID_4_)" fill="#FFFFFF" d="M899.632,297.395c0-1.093-0.886-1.979-1.979-1.979s-1.979,0.887-1.979,1.979
		s0.886,1.98,1.979,1.98S899.632,298.487,899.632,297.395"/>
	<path clip-path="url(#SVGID_4_)" fill="#FFFFFF" d="M913.632,290.395c0-1.093-0.886-1.979-1.979-1.979s-1.979,0.887-1.979,1.979
		s0.886,1.98,1.979,1.98S913.632,291.487,913.632,290.395"/>
	<path clip-path="url(#SVGID_4_)" fill="#FFFFFF" d="M925.632,282.395c0-1.093-0.886-1.979-1.979-1.979s-1.979,0.887-1.979,1.979
		s0.886,1.98,1.979,1.98S925.632,283.487,925.632,282.395"/>
	<path clip-path="url(#SVGID_4_)" fill="#FFFFFF" d="M936.632,272.395c0-1.093-0.886-1.979-1.979-1.979s-1.979,0.887-1.979,1.979
		s0.886,1.98,1.979,1.98S936.632,273.487,936.632,272.395"/>
	<path clip-path="url(#SVGID_4_)" fill="#FFFFFF" d="M948.632,261.395c0-1.093-0.886-1.979-1.979-1.979s-1.979,0.887-1.979,1.979
		s0.886,1.98,1.979,1.98S948.632,262.487,948.632,261.395"/>
	<path clip-path="url(#SVGID_4_)" fill="#FFFFFF" d="M958.632,248.395c0-1.093-0.886-1.98-1.979-1.98s-1.979,0.887-1.979,1.98
		c0,1.093,0.886,1.98,1.979,1.98S958.632,249.488,958.632,248.395"/>
	<path clip-path="url(#SVGID_4_)" fill="#FFFFFF" d="M966.632,235.395c0-1.093-0.886-1.98-1.979-1.98s-1.979,0.887-1.979,1.98
		c0,1.093,0.886,1.98,1.979,1.98S966.632,236.488,966.632,235.395"/>
	<path clip-path="url(#SVGID_4_)" fill="#FFFFFF" d="M973.927,222.395c0-1.093-0.886-1.98-1.979-1.98c-1.095,0-1.98,0.887-1.98,1.98
		c0,1.093,0.886,1.98,1.98,1.98C973.041,224.375,973.927,223.488,973.927,222.395"/>
	<path clip-path="url(#SVGID_4_)" fill="#FFFFFF" d="M977.927,208.395c0-1.093-0.886-1.98-1.979-1.98c-1.095,0-1.98,0.887-1.98,1.98
		c0,1.093,0.886,1.98,1.98,1.98C977.041,210.375,977.927,209.488,977.927,208.395"/>
	<path clip-path="url(#SVGID_4_)" fill="#FFFFFF" d="M729.685,83.205c0,1.093-0.886,1.98-1.98,1.98c-1.093,0-1.979-0.887-1.979-1.98
		c0-1.093,0.886-1.98,1.979-1.98C728.799,81.225,729.685,82.112,729.685,83.205"/>
	<path clip-path="url(#SVGID_4_)" fill="#FFFFFF" d="M718.863,97.632c1.077-0.188,1.798-1.214,1.609-2.291
		c-0.188-1.077-1.213-1.797-2.29-1.609s-1.798,1.214-1.61,2.291C716.762,97.099,717.786,97.82,718.863,97.632"/>
	<path clip-path="url(#SVGID_4_)" fill="#FFFFFF" d="M712.062,111.001c1.077-0.188,1.798-1.214,1.608-2.291
		c-0.188-1.077-1.213-1.797-2.29-1.609c-1.076,0.188-1.798,1.214-1.609,2.291C709.96,110.469,710.985,111.189,712.062,111.001"/>
	<path clip-path="url(#SVGID_4_)" fill="#FFFFFF" d="M706.605,125.341c1.076-0.188,1.797-1.214,1.608-2.291
		c-0.188-1.077-1.213-1.797-2.29-1.609s-1.798,1.214-1.609,2.291C704.503,124.808,705.528,125.529,706.605,125.341"/>
	<path clip-path="url(#SVGID_4_)" fill="#FFFFFF" d="M702.889,139.337c1.077-0.188,1.798-1.214,1.609-2.291
		c-0.188-1.077-1.213-1.797-2.29-1.609s-1.798,1.214-1.61,2.291C700.787,138.804,701.812,139.525,702.889,139.337"/>
	<path clip-path="url(#SVGID_4_)" fill="#FFFFFF" d="M700.716,155.958c1.077-0.188,1.798-1.214,1.609-2.291
		c-0.188-1.076-1.213-1.797-2.29-1.609s-1.798,1.214-1.61,2.291C698.614,155.426,699.639,156.146,700.716,155.958"/>
	<path clip-path="url(#SVGID_4_)" fill="#FFFFFF" d="M700.514,187.236c1.077-0.188,1.798-1.214,1.608-2.291
		c-0.188-1.077-1.213-1.797-2.29-1.609c-1.076,0.188-1.798,1.214-1.609,2.291C698.411,186.703,699.437,187.424,700.514,187.236"/>
	<path clip-path="url(#SVGID_4_)" fill="#FFFFFF" d="M702.281,201.169c1.076-0.188,1.798-1.214,1.608-2.291
		c-0.188-1.077-1.213-1.797-2.29-1.609s-1.798,1.214-1.609,2.291C700.179,200.636,701.204,201.357,702.281,201.169"/>
	<path clip-path="url(#SVGID_4_)" fill="#FFFFFF" d="M707.033,214.931c1.077-0.188,1.798-1.214,1.609-2.291
		c-0.188-1.077-1.213-1.797-2.29-1.609s-1.798,1.214-1.61,2.291C704.932,214.398,705.956,215.119,707.033,214.931"/>
	<path clip-path="url(#SVGID_4_)" fill="#FFFFFF" d="M712.756,228.348c1.077-0.188,1.799-1.214,1.609-2.291
		c-0.188-1.077-1.213-1.797-2.29-1.609s-1.798,1.214-1.61,2.291C710.654,227.815,711.68,228.536,712.756,228.348"/>
	<path clip-path="url(#SVGID_4_)" fill="#FFFFFF" d="M719.277,241.437c1.077-0.188,1.798-1.214,1.608-2.291
		c-0.188-1.077-1.213-1.797-2.29-1.609c-1.076,0.188-1.798,1.214-1.609,2.291C717.175,240.903,718.2,241.625,719.277,241.437"/>
	<path clip-path="url(#SVGID_4_)" fill="#FFFFFF" d="M726.611,253.367c1.077-0.188,1.798-1.214,1.608-2.291
		c-0.188-1.077-1.213-1.796-2.29-1.608c-1.076,0.188-1.798,1.214-1.609,2.291C724.509,252.835,725.534,253.556,726.611,253.367"/>
	<path clip-path="url(#SVGID_4_)" fill="#FFFFFF" d="M700.716,169.958c1.077-0.188,1.798-1.214,1.609-2.291
		c-0.188-1.076-1.213-1.797-2.29-1.609s-1.798,1.214-1.61,2.291C698.614,169.426,699.639,170.146,700.716,169.958"/>
	<path clip-path="url(#SVGID_4_)" fill="#FFFFFF" d="M982.927,194.395c0-1.093-0.886-1.98-1.979-1.98c-1.095,0-1.98,0.887-1.98,1.98
		c0,1.093,0.886,1.98,1.98,1.98C982.041,196.375,982.927,195.488,982.927,194.395"/>
	<path clip-path="url(#SVGID_4_)" fill="#FFFFFF" d="M984.927,179.395c0-1.093-0.886-1.98-1.979-1.98c-1.095,0-1.98,0.887-1.98,1.98
		c0,1.093,0.886,1.98,1.98,1.98C984.041,181.375,984.927,180.488,984.927,179.395"/>
	<path clip-path="url(#SVGID_4_)" fill="#FFFFFF" d="M984.927,166.395c0-1.093-0.886-1.98-1.979-1.98c-1.095,0-1.98,0.887-1.98,1.98
		c0,1.093,0.886,1.98,1.98,1.98C984.041,168.375,984.927,167.488,984.927,166.395"/>
	<path clip-path="url(#SVGID_4_)" fill="#FFFFFF" d="M984.927,153.395c0-1.093-0.886-1.98-1.979-1.98c-1.095,0-1.98,0.887-1.98,1.98
		c0,1.093,0.886,1.98,1.98,1.98C984.041,155.375,984.927,154.488,984.927,153.395"/>
	<path clip-path="url(#SVGID_4_)" fill="#FFFFFF" d="M981.927,139.395c0-1.093-0.886-1.98-1.979-1.98c-1.095,0-1.98,0.887-1.98,1.98
		c0,1.093,0.886,1.98,1.98,1.98C981.041,141.375,981.927,140.488,981.927,139.395"/>
	
		<circle clip-path="url(#SVGID_4_)" fill="none" stroke="#FFFFFF" stroke-width="2" stroke-miterlimit="10" cx="292.739" cy="162.86" r="123.676"/>
	
		<circle clip-path="url(#SVGID_4_)" fill="none" stroke="#FFFFFF" stroke-width="2" stroke-miterlimit="10" cx="292.739" cy="162.86" r="111.407"/>
	
		<circle clip-path="url(#SVGID_4_)" fill="none" stroke="#FFFFFF" stroke-width="2" stroke-miterlimit="10" cx="292.739" cy="162.86" r="96.656"/>
	<polygon clip-path="url(#SVGID_4_)" fill="none" stroke="#FFFFFF" stroke-miterlimit="10" points="293.441,185.103 
		293.441,146.172 255.56,162.792 	"/>
	<polygon clip-path="url(#SVGID_4_)" fill="none" stroke="#FFFFFF" stroke-miterlimit="10" points="293.441,143.478 293.441,97.959 
		256.757,159.648 	"/>
	<polygon clip-path="url(#SVGID_4_)" fill="none" stroke="#FFFFFF" stroke-miterlimit="10" points="294.789,97.81 294.789,143.478 
		332.072,159.798 	"/>
	<polygon clip-path="url(#SVGID_4_)" fill="none" stroke="#FFFFFF" stroke-miterlimit="10" points="294.789,146.173 
		294.789,185.103 332.82,162.792 	"/>
	<polygon clip-path="url(#SVGID_4_)" fill="none" stroke="#FFFFFF" stroke-miterlimit="10" points="293.441,224.182 
		293.441,192.888 255.709,170.878 	"/>
	<polygon clip-path="url(#SVGID_4_)" fill="none" stroke="#FFFFFF" stroke-miterlimit="10" points="294.789,224.182 
		332.521,170.878 294.789,192.888 	"/>
	<path clip-path="url(#SVGID_4_)" fill="#FFFFFF" d="M207.674,83.015c0,0.909-0.737,1.646-1.646,1.646s-1.646-0.737-1.646-1.646
		s0.737-1.646,1.646-1.646S207.674,82.106,207.674,83.015"/>
	<path clip-path="url(#SVGID_4_)" fill="#FFFFFF" d="M217.651,73.87c0,0.909-0.737,1.646-1.646,1.646
		c-0.909,0-1.646-0.737-1.646-1.646c0-0.909,0.737-1.646,1.646-1.646C216.914,72.224,217.651,72.961,217.651,73.87"/>
	<path clip-path="url(#SVGID_4_)" fill="#FFFFFF" d="M227.628,66.387c0,0.909-0.737,1.646-1.646,1.646
		c-0.909,0-1.646-0.737-1.646-1.646s0.737-1.646,1.646-1.646C226.891,64.741,227.628,65.478,227.628,66.387"/>
	<path clip-path="url(#SVGID_4_)" fill="#FFFFFF" d="M239.267,58.905c0,0.909-0.737,1.646-1.646,1.646
		c-0.909,0-1.646-0.737-1.646-1.646c0-0.909,0.737-1.646,1.646-1.646C238.53,57.259,239.267,57.996,239.267,58.905"/>
	<path clip-path="url(#SVGID_4_)" fill="#FFFFFF" d="M250.907,53.085c0,0.909-0.737,1.646-1.646,1.646s-1.646-0.737-1.646-1.646
		c0-0.909,0.737-1.646,1.646-1.646S250.907,52.176,250.907,53.085"/>
	<path clip-path="url(#SVGID_4_)" fill="#FFFFFF" d="M264.209,48.928c0,0.909-0.737,1.646-1.646,1.646
		c-0.909,0-1.646-0.737-1.646-1.646c0-0.909,0.737-1.646,1.646-1.646C263.472,47.282,264.209,48.019,264.209,48.928"/>
	<path clip-path="url(#SVGID_4_)" fill="#FFFFFF" d="M277.512,46.434c0,0.909-0.737,1.646-1.646,1.646
		c-0.909,0-1.646-0.737-1.646-1.646c0-0.909,0.737-1.646,1.646-1.646C276.774,44.788,277.512,45.525,277.512,46.434"/>
	<path clip-path="url(#SVGID_4_)" fill="#FFFFFF" d="M290.814,45.603c0,0.909-0.737,1.646-1.646,1.646
		c-0.909,0-1.646-0.737-1.646-1.646c0-0.909,0.737-1.646,1.646-1.646C290.077,43.956,290.814,44.693,290.814,45.603"/>
	<path clip-path="url(#SVGID_4_)" fill="#FFFFFF" d="M304.116,45.603c0,0.909-0.737,1.646-1.646,1.646
		c-0.909,0-1.646-0.737-1.646-1.646c0-0.909,0.737-1.646,1.646-1.646C303.379,43.956,304.116,44.693,304.116,45.603"/>
	<path clip-path="url(#SVGID_4_)" fill="#FFFFFF" d="M317.418,47.265c0,0.909-0.737,1.646-1.646,1.646s-1.646-0.737-1.646-1.646
		s0.737-1.646,1.646-1.646S317.418,46.356,317.418,47.265"/>
	<path clip-path="url(#SVGID_4_)" fill="#FFFFFF" d="M329.89,50.591c0,0.909-0.737,1.646-1.646,1.646
		c-0.909,0-1.646-0.737-1.646-1.646c0-0.909,0.737-1.646,1.646-1.646C329.152,48.945,329.89,49.682,329.89,50.591"/>
	<path clip-path="url(#SVGID_4_)" fill="#FFFFFF" d="M341.529,54.748c0,0.909-0.737,1.646-1.646,1.646
		c-0.909,0-1.646-0.737-1.646-1.646s0.737-1.646,1.646-1.646C340.792,53.102,341.529,53.838,341.529,54.748"/>
	<path clip-path="url(#SVGID_4_)" fill="#FFFFFF" d="M353.168,60.567c0,0.909-0.737,1.646-1.646,1.646s-1.646-0.737-1.646-1.646
		s0.737-1.646,1.646-1.646S353.168,59.658,353.168,60.567"/>
	<path clip-path="url(#SVGID_4_)" fill="#FFFFFF" d="M363.145,67.219c0,0.909-0.737,1.646-1.646,1.646
		c-0.909,0-1.646-0.737-1.646-1.646c0-0.909,0.737-1.646,1.646-1.646C362.408,65.573,363.145,66.31,363.145,67.219"/>
	<path clip-path="url(#SVGID_4_)" fill="#FFFFFF" d="M372.291,75.533c0,0.909-0.737,1.646-1.646,1.646s-1.646-0.737-1.646-1.646
		c0-0.909,0.737-1.646,1.646-1.646S372.291,74.624,372.291,75.533"/>
	<path clip-path="url(#SVGID_4_)" fill="#FFFFFF" d="M382.267,84.678c0,0.909-0.737,1.646-1.646,1.646
		c-0.909,0-1.646-0.737-1.646-1.646c0-0.909,0.737-1.646,1.646-1.646C381.53,83.032,382.267,83.769,382.267,84.678"/>
	<path clip-path="url(#SVGID_4_)" fill="#FFFFFF" d="M390.581,95.486c0,0.909-0.737,1.646-1.646,1.646
		c-0.909,0-1.646-0.737-1.646-1.646c0-0.909,0.737-1.646,1.646-1.646C389.844,93.84,390.581,94.577,390.581,95.486"/>
	<path clip-path="url(#SVGID_4_)" fill="#FFFFFF" d="M397.232,106.294c0,0.909-0.737,1.646-1.646,1.646
		c-0.909,0-1.646-0.737-1.646-1.646c0-0.909,0.737-1.646,1.646-1.646C396.496,104.648,397.232,105.385,397.232,106.294"/>
	<path clip-path="url(#SVGID_4_)" fill="#FFFFFF" d="M403.297,117.934c0,0.909-0.737,1.646-1.646,1.646
		c-0.909,0-1.646-0.737-1.646-1.646c0-0.909,0.737-1.646,1.646-1.646C402.561,116.288,403.297,117.025,403.297,117.934"/>
	<path clip-path="url(#SVGID_4_)" fill="#FFFFFF" d="M406.623,128.742c0,0.909-0.737,1.646-1.646,1.646s-1.646-0.737-1.646-1.646
		c0-0.909,0.737-1.646,1.646-1.646S406.623,127.833,406.623,128.742"/>
	<path clip-path="url(#SVGID_4_)" fill="#FFFFFF" d="M207.63,242.801c0-0.909-0.737-1.646-1.646-1.646
		c-0.909,0-1.646,0.737-1.646,1.646s0.737,1.646,1.646,1.646C206.894,244.447,207.63,243.71,207.63,242.801"/>
	<path clip-path="url(#SVGID_4_)" fill="#FFFFFF" d="M217.607,251.946c0-0.909-0.737-1.646-1.646-1.646
		c-0.909,0-1.646,0.737-1.646,1.646s0.737,1.646,1.646,1.646C216.87,253.592,217.607,252.855,217.607,251.946"/>
	<path clip-path="url(#SVGID_4_)" fill="#FFFFFF" d="M227.584,259.429c0-0.909-0.737-1.646-1.646-1.646s-1.646,0.737-1.646,1.646
		s0.737,1.646,1.646,1.646S227.584,260.338,227.584,259.429"/>
	<path clip-path="url(#SVGID_4_)" fill="#FFFFFF" d="M239.224,266.911c0-0.909-0.737-1.646-1.646-1.646s-1.646,0.737-1.646,1.646
		s0.737,1.646,1.646,1.646S239.224,267.82,239.224,266.911"/>
	<path clip-path="url(#SVGID_4_)" fill="#FFFFFF" d="M250.863,272.73c0-0.908-0.737-1.646-1.646-1.646
		c-0.909,0-1.646,0.737-1.646,1.646c0,0.909,0.737,1.646,1.646,1.646C250.126,274.377,250.863,273.64,250.863,272.73"/>
	<path clip-path="url(#SVGID_4_)" fill="#FFFFFF" d="M264.166,276.888c0-0.909-0.737-1.646-1.646-1.646
		c-0.909,0-1.646,0.736-1.646,1.646s0.737,1.646,1.646,1.646C263.428,278.534,264.166,277.797,264.166,276.888"/>
	<path clip-path="url(#SVGID_4_)" fill="#FFFFFF" d="M277.468,279.382c0-0.909-0.737-1.646-1.646-1.646
		c-0.909,0-1.646,0.736-1.646,1.646s0.737,1.646,1.646,1.646C276.73,281.028,277.468,280.291,277.468,279.382"/>
	<path clip-path="url(#SVGID_4_)" fill="#FFFFFF" d="M290.77,280.214c0-0.909-0.737-1.646-1.646-1.646s-1.646,0.737-1.646,1.646
		c0,0.908,0.737,1.646,1.646,1.646S290.77,281.122,290.77,280.214"/>
	<path clip-path="url(#SVGID_4_)" fill="#FFFFFF" d="M304.072,280.214c0-0.909-0.737-1.646-1.646-1.646
		c-0.909,0-1.646,0.737-1.646,1.646c0,0.908,0.737,1.646,1.646,1.646C303.335,281.859,304.072,281.122,304.072,280.214"/>
	<path clip-path="url(#SVGID_4_)" fill="#FFFFFF" d="M317.375,278.551c0-0.909-0.737-1.646-1.646-1.646
		c-0.909,0-1.646,0.737-1.646,1.646s0.737,1.646,1.646,1.646C316.638,280.196,317.375,279.46,317.375,278.551"/>
	<path clip-path="url(#SVGID_4_)" fill="#FFFFFF" d="M329.846,275.225c0-0.908-0.737-1.646-1.646-1.646s-1.646,0.737-1.646,1.646
		c0,0.909,0.737,1.646,1.646,1.646S329.846,276.134,329.846,275.225"/>
	<path clip-path="url(#SVGID_4_)" fill="#FFFFFF" d="M341.485,271.068c0-0.909-0.737-1.646-1.646-1.646
		c-0.909,0-1.646,0.737-1.646,1.646s0.737,1.646,1.646,1.646C340.748,272.714,341.485,271.978,341.485,271.068"/>
	<path clip-path="url(#SVGID_4_)" fill="#FFFFFF" d="M353.125,265.248c0-0.908-0.737-1.646-1.646-1.646
		c-0.909,0-1.646,0.737-1.646,1.646c0,0.909,0.737,1.646,1.646,1.646C352.388,266.895,353.125,266.157,353.125,265.248"/>
	<path clip-path="url(#SVGID_4_)" fill="#FFFFFF" d="M363.102,258.598c0-0.909-0.737-1.646-1.646-1.646
		c-0.909,0-1.646,0.737-1.646,1.646c0,0.908,0.737,1.646,1.646,1.646C362.364,260.243,363.102,259.506,363.102,258.598"/>
	<path clip-path="url(#SVGID_4_)" fill="#FFFFFF" d="M372.247,250.283c0-0.909-0.737-1.646-1.646-1.646
		c-0.909,0-1.646,0.737-1.646,1.646s0.737,1.646,1.646,1.646C371.51,251.93,372.247,251.192,372.247,250.283"/>
	<path clip-path="url(#SVGID_4_)" fill="#FFFFFF" d="M382.224,241.138c0-0.909-0.737-1.646-1.646-1.646
		c-0.909,0-1.646,0.737-1.646,1.646c0,0.909,0.737,1.646,1.646,1.646C381.486,242.784,382.224,242.047,382.224,241.138"/>
	<path clip-path="url(#SVGID_4_)" fill="#FFFFFF" d="M390.538,230.33c0-0.909-0.737-1.646-1.646-1.646
		c-0.909,0-1.646,0.737-1.646,1.646c0,0.909,0.737,1.646,1.646,1.646C389.8,231.976,390.538,231.239,390.538,230.33"/>
	<path clip-path="url(#SVGID_4_)" fill="#FFFFFF" d="M397.188,219.521c0-0.909-0.737-1.646-1.646-1.646
		c-0.909,0-1.646,0.737-1.646,1.646c0,0.909,0.737,1.646,1.646,1.646C396.452,221.167,397.188,220.431,397.188,219.521"/>
	<path clip-path="url(#SVGID_4_)" fill="#FFFFFF" d="M403.254,208.713c0-0.909-0.737-1.646-1.646-1.646
		c-0.909,0-1.646,0.737-1.646,1.646c0,0.909,0.737,1.646,1.646,1.646C402.517,210.359,403.254,209.623,403.254,208.713"/>
	<path clip-path="url(#SVGID_4_)" fill="#FFFFFF" d="M406.579,197.074c0-0.909-0.737-1.646-1.646-1.646
		c-0.909,0-1.646,0.737-1.646,1.646c0,0.909,0.737,1.646,1.646,1.646C405.842,198.72,406.579,197.983,406.579,197.074"/>
	<path clip-path="url(#SVGID_4_)" fill="#FFFFFF" d="M200.192,92.992c0,0.909-0.737,1.646-1.646,1.646
		c-0.909,0-1.646-0.737-1.646-1.646c0-0.909,0.737-1.646,1.646-1.646C199.455,91.346,200.192,92.083,200.192,92.992"/>
	<path clip-path="url(#SVGID_4_)" fill="#FFFFFF" d="M191.195,104.987c0.895-0.156,1.494-1.009,1.338-1.904
		c-0.156-0.896-1.009-1.495-1.904-1.338c-0.896,0.156-1.495,1.009-1.338,1.904C189.447,104.543,190.3,105.143,191.195,104.987"/>
	<path clip-path="url(#SVGID_4_)" fill="#FFFFFF" d="M185.541,116.102c0.895-0.156,1.494-1.009,1.338-1.904
		c-0.156-0.896-1.009-1.495-1.904-1.338c-0.896,0.156-1.495,1.009-1.338,1.904C183.792,115.659,184.646,116.258,185.541,116.102"/>
	<path clip-path="url(#SVGID_4_)" fill="#FFFFFF" d="M181.003,128.024c0.895-0.156,1.494-1.009,1.338-1.904
		c-0.156-0.896-1.009-1.495-1.904-1.338c-0.896,0.156-1.495,1.009-1.338,1.904C179.255,127.581,180.108,128.18,181.003,128.024"/>
	<path clip-path="url(#SVGID_4_)" fill="#FFFFFF" d="M177.914,139.66c0.895-0.156,1.494-1.009,1.338-1.904
		c-0.156-0.896-1.009-1.495-1.904-1.338c-0.896,0.156-1.495,1.009-1.338,1.904C176.166,139.216,177.019,139.815,177.914,139.66"/>
	<path clip-path="url(#SVGID_4_)" fill="#FFFFFF" d="M176.107,153.479c0.895-0.156,1.494-1.009,1.338-1.904
		c-0.156-0.896-1.009-1.495-1.904-1.338c-0.896,0.156-1.495,1.009-1.338,1.904C174.359,153.036,175.212,153.635,176.107,153.479"/>
	<path clip-path="url(#SVGID_4_)" fill="#FFFFFF" d="M175.939,179.483c0.895-0.156,1.494-1.009,1.338-1.904
		c-0.156-0.896-1.009-1.495-1.904-1.338c-0.896,0.156-1.495,1.009-1.338,1.904C174.191,179.04,175.044,179.639,175.939,179.483"/>
	<path clip-path="url(#SVGID_4_)" fill="#FFFFFF" d="M177.409,191.067c0.895-0.156,1.494-1.009,1.338-1.904
		c-0.156-0.896-1.009-1.495-1.904-1.338c-0.896,0.156-1.495,1.009-1.338,1.904C175.661,190.624,176.514,191.223,177.409,191.067"/>
	<path clip-path="url(#SVGID_4_)" fill="#FFFFFF" d="M181.36,202.508c0.895-0.156,1.494-1.009,1.338-1.904
		c-0.156-0.896-1.009-1.495-1.904-1.338c-0.896,0.156-1.495,1.009-1.338,1.904C179.612,202.065,180.465,202.664,181.36,202.508"/>
	<path clip-path="url(#SVGID_4_)" fill="#FFFFFF" d="M186.118,213.663c0.895-0.156,1.494-1.009,1.338-1.904
		c-0.156-0.896-1.009-1.495-1.904-1.338c-0.896,0.156-1.495,1.009-1.338,1.904C184.37,213.22,185.223,213.819,186.118,213.663"/>
	<path clip-path="url(#SVGID_4_)" fill="#FFFFFF" d="M191.539,224.545c0.895-0.156,1.494-1.009,1.338-1.904
		c-0.156-0.896-1.009-1.495-1.904-1.338c-0.896,0.156-1.495,1.009-1.338,1.904C189.791,224.102,190.644,224.701,191.539,224.545"/>
	<path clip-path="url(#SVGID_4_)" fill="#FFFFFF" d="M197.637,234.464c0.895-0.156,1.494-1.009,1.338-1.904
		c-0.156-0.896-1.009-1.495-1.904-1.338c-0.896,0.156-1.495,1.009-1.338,1.904C195.889,234.021,196.742,234.62,197.637,234.464"/>
	<path clip-path="url(#SVGID_4_)" fill="#FFFFFF" d="M176.107,165.118c0.895-0.156,1.494-1.009,1.338-1.904
		c-0.156-0.896-1.009-1.495-1.904-1.338c-0.896,0.156-1.495,1.009-1.338,1.904C174.359,164.675,175.212,165.274,176.107,165.118"/>
	<path clip-path="url(#SVGID_4_)" fill="#FFFFFF" d="M410.736,185.435c0-0.909-0.737-1.646-1.646-1.646
		c-0.909,0-1.646,0.737-1.646,1.646c0,0.909,0.737,1.646,1.646,1.646C409.999,187.081,410.736,186.343,410.736,185.435"/>
	<path clip-path="url(#SVGID_4_)" fill="#FFFFFF" d="M412.399,172.963c0-0.909-0.737-1.646-1.646-1.646
		c-0.909,0-1.646,0.737-1.646,1.646c0,0.909,0.737,1.646,1.646,1.646C411.662,174.609,412.399,173.873,412.399,172.963"/>
	<path clip-path="url(#SVGID_4_)" fill="#FFFFFF" d="M412.399,162.155c0-0.909-0.737-1.646-1.646-1.646
		c-0.909,0-1.646,0.737-1.646,1.646s0.737,1.646,1.646,1.646C411.662,163.801,412.399,163.064,412.399,162.155"/>
	<path clip-path="url(#SVGID_4_)" fill="#FFFFFF" d="M412.399,151.347c0-0.909-0.737-1.646-1.646-1.646
		c-0.909,0-1.646,0.737-1.646,1.646s0.737,1.646,1.646,1.646C411.662,152.993,412.399,152.256,412.399,151.347"/>
	<path clip-path="url(#SVGID_4_)" fill="#FFFFFF" d="M409.905,139.708c0-0.909-0.737-1.646-1.646-1.646
		c-0.909,0-1.646,0.737-1.646,1.646c0,0.909,0.737,1.646,1.646,1.646C409.168,141.354,409.905,140.617,409.905,139.708"/>
	
		<circle clip-path="url(#SVGID_4_)" fill="none" stroke="#FFFFFF" stroke-width="2" stroke-miterlimit="10" cx="567.902" cy="387.591" r="98.27"/>
	
		<circle clip-path="url(#SVGID_4_)" fill="none" stroke="#FFFFFF" stroke-width="2" stroke-miterlimit="10" cx="567.902" cy="387.591" r="88.521"/>
	
		<circle clip-path="url(#SVGID_4_)" fill="none" stroke="#FFFFFF" stroke-width="2" stroke-miterlimit="10" cx="567.903" cy="387.591" r="76.8"/>
	<polygon clip-path="url(#SVGID_4_)" fill="none" stroke="#FFFFFF" stroke-miterlimit="10" points="568.46,405.264 568.46,374.331 
		538.36,387.536 	"/>
	<polygon clip-path="url(#SVGID_4_)" fill="none" stroke="#FFFFFF" stroke-miterlimit="10" points="568.46,372.189 568.46,336.022 
		539.312,385.038 	"/>
	<polygon clip-path="url(#SVGID_4_)" fill="none" stroke="#FFFFFF" stroke-miterlimit="10" points="569.531,335.903 
		569.531,372.189 599.155,385.157 	"/>
	<polygon clip-path="url(#SVGID_4_)" fill="none" stroke="#FFFFFF" stroke-miterlimit="10" points="569.531,374.331 
		569.531,405.263 599.75,387.537 	"/>
	<polygon clip-path="url(#SVGID_4_)" fill="none" stroke="#FFFFFF" stroke-miterlimit="10" points="568.46,436.314 568.46,411.449 
		538.479,393.961 	"/>
	<polygon clip-path="url(#SVGID_4_)" fill="none" stroke="#FFFFFF" stroke-miterlimit="10" points="569.531,436.314 
		599.512,393.961 569.531,411.449 	"/>
	<path clip-path="url(#SVGID_4_)" fill="#FFFFFF" d="M500.312,324.147c0,0.722-0.585,1.309-1.308,1.309
		c-0.722,0-1.307-0.587-1.307-1.309s0.585-1.308,1.307-1.308C499.728,322.84,500.312,323.426,500.312,324.147"/>
	<path clip-path="url(#SVGID_4_)" fill="#FFFFFF" d="M508.239,316.881c0,0.722-0.585,1.309-1.308,1.309
		c-0.722,0-1.307-0.587-1.307-1.309s0.585-1.308,1.307-1.308C507.654,315.573,508.239,316.159,508.239,316.881"/>
	<path clip-path="url(#SVGID_4_)" fill="#FFFFFF" d="M516.167,310.936c0,0.722-0.586,1.308-1.309,1.308
		c-0.722,0-1.307-0.586-1.307-1.308s0.585-1.308,1.307-1.308C515.581,309.628,516.167,310.214,516.167,310.936"/>
	<path clip-path="url(#SVGID_4_)" fill="#FFFFFF" d="M525.415,304.99c0,0.722-0.585,1.308-1.308,1.308s-1.308-0.586-1.308-1.308
		s0.585-1.308,1.308-1.308S525.415,304.269,525.415,304.99"/>
	<path clip-path="url(#SVGID_4_)" fill="#FFFFFF" d="M534.664,300.366c0,0.722-0.585,1.308-1.309,1.308
		c-0.722,0-1.307-0.586-1.307-1.308c0-0.723,0.585-1.309,1.307-1.309C534.079,299.058,534.664,299.644,534.664,300.366"/>
	<path clip-path="url(#SVGID_4_)" fill="#FFFFFF" d="M545.233,297.062c0,0.723-0.585,1.309-1.309,1.309
		c-0.722,0-1.307-0.586-1.307-1.309c0-0.722,0.585-1.308,1.307-1.308C544.648,295.755,545.233,296.341,545.233,297.062"/>
	<path clip-path="url(#SVGID_4_)" fill="#FFFFFF" d="M555.803,295.081c0,0.722-0.585,1.308-1.308,1.308
		c-0.722,0-1.308-0.586-1.308-1.308s0.586-1.308,1.308-1.308C555.218,293.773,555.803,294.359,555.803,295.081"/>
	<path clip-path="url(#SVGID_4_)" fill="#FFFFFF" d="M566.373,294.421c0,0.722-0.586,1.308-1.309,1.308
		c-0.722,0-1.307-0.586-1.307-1.308c0-0.723,0.585-1.309,1.307-1.309C565.787,293.112,566.373,293.698,566.373,294.421"/>
	<path clip-path="url(#SVGID_4_)" fill="#FFFFFF" d="M576.942,294.421c0,0.722-0.585,1.308-1.308,1.308s-1.308-0.586-1.308-1.308
		c0-0.723,0.585-1.309,1.308-1.309S576.942,293.698,576.942,294.421"/>
	<path clip-path="url(#SVGID_4_)" fill="#FFFFFF" d="M587.512,295.742c0,0.722-0.585,1.308-1.308,1.308s-1.308-0.586-1.308-1.308
		c0-0.723,0.585-1.309,1.308-1.309S587.512,295.02,587.512,295.742"/>
	<path clip-path="url(#SVGID_4_)" fill="#FFFFFF" d="M597.421,298.384c0,0.723-0.585,1.309-1.308,1.309s-1.308-0.586-1.308-1.309
		c0-0.722,0.585-1.308,1.308-1.308S597.421,297.662,597.421,298.384"/>
	<path clip-path="url(#SVGID_4_)" fill="#FFFFFF" d="M606.669,301.688c0,0.722-0.586,1.308-1.308,1.308s-1.307-0.586-1.307-1.308
		c0-0.723,0.585-1.309,1.307-1.309S606.669,300.965,606.669,301.688"/>
	<path clip-path="url(#SVGID_4_)" fill="#FFFFFF" d="M615.918,306.312c0,0.722-0.585,1.308-1.309,1.308
		c-0.722,0-1.307-0.586-1.307-1.308s0.585-1.309,1.307-1.309C615.333,305.003,615.918,305.59,615.918,306.312"/>
	<path clip-path="url(#SVGID_4_)" fill="#FFFFFF" d="M623.845,311.597c0,0.722-0.586,1.308-1.308,1.308
		c-0.723,0-1.308-0.586-1.308-1.308c0-0.723,0.585-1.309,1.308-1.309C623.259,310.288,623.845,310.874,623.845,311.597"/>
	<path clip-path="url(#SVGID_4_)" fill="#FFFFFF" d="M631.111,318.202c0,0.722-0.585,1.308-1.308,1.308
		c-0.722,0-1.308-0.586-1.308-1.308s0.586-1.308,1.308-1.308C630.526,316.895,631.111,317.48,631.111,318.202"/>
	<path clip-path="url(#SVGID_4_)" fill="#FFFFFF" d="M639.039,325.469c0,0.722-0.585,1.308-1.309,1.308
		c-0.722,0-1.307-0.586-1.307-1.308s0.585-1.308,1.307-1.308C638.454,324.161,639.039,324.747,639.039,325.469"/>
	<path clip-path="url(#SVGID_4_)" fill="#FFFFFF" d="M645.645,334.057c0,0.722-0.585,1.308-1.308,1.308
		c-0.722,0-1.307-0.586-1.307-1.308s0.585-1.308,1.307-1.308C645.06,332.749,645.645,333.335,645.645,334.057"/>
	<path clip-path="url(#SVGID_4_)" fill="#FFFFFF" d="M650.93,342.645c0,0.722-0.585,1.308-1.308,1.308s-1.308-0.586-1.308-1.308
		s0.585-1.308,1.308-1.308S650.93,341.923,650.93,342.645"/>
	<path clip-path="url(#SVGID_4_)" fill="#FFFFFF" d="M655.749,351.893c0,0.723-0.586,1.309-1.309,1.309
		c-0.722,0-1.307-0.586-1.307-1.309c0-0.722,0.585-1.308,1.307-1.308C655.163,350.585,655.749,351.171,655.749,351.893"/>
	<path clip-path="url(#SVGID_4_)" fill="#FFFFFF" d="M658.392,360.48c0,0.723-0.585,1.309-1.309,1.309
		c-0.722,0-1.307-0.586-1.307-1.309c0-0.722,0.585-1.308,1.307-1.308C657.807,359.173,658.392,359.759,658.392,360.48"/>
	<path clip-path="url(#SVGID_4_)" fill="#FFFFFF" d="M500.277,451.108c0-0.722-0.585-1.308-1.308-1.308
		c-0.722,0-1.307,0.586-1.307,1.308s0.585,1.308,1.307,1.308C499.692,452.416,500.277,451.83,500.277,451.108"/>
	<path clip-path="url(#SVGID_4_)" fill="#FFFFFF" d="M508.205,458.375c0-0.722-0.585-1.308-1.309-1.308
		c-0.722,0-1.307,0.586-1.307,1.308c0,0.723,0.585,1.309,1.307,1.309C507.62,459.684,508.205,459.098,508.205,458.375"/>
	<path clip-path="url(#SVGID_4_)" fill="#FFFFFF" d="M516.132,464.32c0-0.722-0.585-1.308-1.308-1.308s-1.308,0.586-1.308,1.308
		c0,0.723,0.585,1.309,1.308,1.309S516.132,465.043,516.132,464.32"/>
	<path clip-path="url(#SVGID_4_)" fill="#FFFFFF" d="M525.381,470.266c0-0.722-0.585-1.308-1.309-1.308
		c-0.722,0-1.307,0.586-1.307,1.308c0,0.723,0.585,1.309,1.307,1.309C524.796,471.574,525.381,470.988,525.381,470.266"/>
	<path clip-path="url(#SVGID_4_)" fill="#FFFFFF" d="M534.629,474.891c0-0.723-0.586-1.309-1.308-1.309
		c-0.723,0-1.308,0.586-1.308,1.309c0,0.722,0.585,1.308,1.308,1.308C534.043,476.198,534.629,475.612,534.629,474.891"/>
	<path clip-path="url(#SVGID_4_)" fill="#FFFFFF" d="M545.198,478.193c0-0.722-0.586-1.309-1.308-1.309s-1.307,0.587-1.307,1.309
		s0.585,1.308,1.307,1.308S545.198,478.915,545.198,478.193"/>
	<path clip-path="url(#SVGID_4_)" fill="#FFFFFF" d="M555.769,480.175c0-0.722-0.587-1.308-1.309-1.308s-1.307,0.586-1.307,1.308
		c0,0.723,0.585,1.309,1.307,1.309S555.769,480.897,555.769,480.175"/>
	<path clip-path="url(#SVGID_4_)" fill="#FFFFFF" d="M566.338,480.836c0-0.723-0.585-1.309-1.309-1.309
		c-0.722,0-1.307,0.586-1.307,1.309c0,0.722,0.585,1.308,1.307,1.308C565.753,482.144,566.338,481.558,566.338,480.836"/>
	<path clip-path="url(#SVGID_4_)" fill="#FFFFFF" d="M576.907,480.836c0-0.723-0.585-1.309-1.308-1.309s-1.308,0.586-1.308,1.309
		c0,0.722,0.585,1.308,1.308,1.308S576.907,481.558,576.907,480.836"/>
	<path clip-path="url(#SVGID_4_)" fill="#FFFFFF" d="M587.478,479.515c0-0.723-0.585-1.309-1.309-1.309
		c-0.722,0-1.307,0.586-1.307,1.309c0,0.722,0.585,1.308,1.307,1.308C586.893,480.822,587.478,480.236,587.478,479.515"/>
	<path clip-path="url(#SVGID_4_)" fill="#FFFFFF" d="M597.387,476.872c0-0.722-0.586-1.308-1.309-1.308
		c-0.722,0-1.307,0.586-1.307,1.308s0.585,1.308,1.307,1.308C596.801,478.18,597.387,477.594,597.387,476.872"/>
	<path clip-path="url(#SVGID_4_)" fill="#FFFFFF" d="M606.635,473.569c0-0.723-0.585-1.309-1.309-1.309
		c-0.722,0-1.307,0.586-1.307,1.309c0,0.722,0.585,1.308,1.307,1.308C606.05,474.877,606.635,474.291,606.635,473.569"/>
	<path clip-path="url(#SVGID_4_)" fill="#FFFFFF" d="M615.883,468.944c0-0.722-0.585-1.308-1.308-1.308s-1.308,0.586-1.308,1.308
		c0,0.723,0.585,1.309,1.308,1.309S615.883,469.667,615.883,468.944"/>
	<path clip-path="url(#SVGID_4_)" fill="#FFFFFF" d="M623.811,463.66c0-0.722-0.585-1.309-1.309-1.309
		c-0.722,0-1.307,0.587-1.307,1.309s0.585,1.308,1.307,1.308C623.226,464.968,623.811,464.382,623.811,463.66"/>
	<path clip-path="url(#SVGID_4_)" fill="#FFFFFF" d="M631.077,457.054c0-0.722-0.586-1.308-1.309-1.308
		c-0.722,0-1.307,0.586-1.307,1.308c0,0.723,0.585,1.309,1.307,1.309C630.491,458.362,631.077,457.776,631.077,457.054"/>
	<path clip-path="url(#SVGID_4_)" fill="#FFFFFF" d="M639.004,449.787c0-0.722-0.585-1.308-1.308-1.308s-1.308,0.586-1.308,1.308
		c0,0.723,0.585,1.309,1.308,1.309S639.004,450.51,639.004,449.787"/>
	<path clip-path="url(#SVGID_4_)" fill="#FFFFFF" d="M645.61,441.199c0-0.722-0.585-1.308-1.309-1.308
		c-0.722,0-1.307,0.586-1.307,1.308c0,0.723,0.585,1.309,1.307,1.309C645.025,442.508,645.61,441.922,645.61,441.199"/>
	<path clip-path="url(#SVGID_4_)" fill="#FFFFFF" d="M650.895,432.611c0-0.722-0.586-1.308-1.308-1.308s-1.307,0.586-1.307,1.308
		c0,0.723,0.585,1.309,1.307,1.309S650.895,433.334,650.895,432.611"/>
	<path clip-path="url(#SVGID_4_)" fill="#FFFFFF" d="M655.714,424.023c0-0.722-0.585-1.308-1.308-1.308s-1.308,0.586-1.308,1.308
		c0,0.723,0.585,1.309,1.308,1.309S655.714,424.746,655.714,424.023"/>
	<path clip-path="url(#SVGID_4_)" fill="#FFFFFF" d="M658.356,414.775c0-0.722-0.585-1.308-1.308-1.308s-1.308,0.586-1.308,1.308
		s0.585,1.308,1.308,1.308S658.356,415.497,658.356,414.775"/>
	<path clip-path="url(#SVGID_4_)" fill="#FFFFFF" d="M494.367,332.075c0,0.722-0.585,1.308-1.308,1.308
		c-0.722,0-1.307-0.586-1.307-1.308c0-0.723,0.585-1.309,1.307-1.309C493.782,330.767,494.367,331.353,494.367,332.075"/>
	<path clip-path="url(#SVGID_4_)" fill="#FFFFFF" d="M487.219,341.605c0.711-0.124,1.187-0.802,1.063-1.513
		c-0.124-0.712-0.801-1.188-1.513-1.063c-0.711,0.124-1.187,0.801-1.063,1.514C485.83,341.254,486.508,341.729,487.219,341.605"/>
	<path clip-path="url(#SVGID_4_)" fill="#FFFFFF" d="M482.726,350.438c0.711-0.124,1.187-0.802,1.063-1.513
		c-0.124-0.712-0.801-1.188-1.513-1.063c-0.711,0.124-1.187,0.801-1.063,1.513C481.337,350.085,482.015,350.562,482.726,350.438"/>
	<path clip-path="url(#SVGID_4_)" fill="#FFFFFF" d="M479.121,359.91c0.711-0.124,1.187-0.802,1.063-1.513
		c-0.124-0.712-0.801-1.188-1.513-1.063c-0.711,0.124-1.187,0.801-1.063,1.513S478.41,360.034,479.121,359.91"/>
	<path clip-path="url(#SVGID_4_)" fill="#FFFFFF" d="M476.666,369.155c0.711-0.124,1.187-0.802,1.063-1.513
		c-0.124-0.712-0.801-1.188-1.513-1.062c-0.711,0.123-1.187,0.801-1.063,1.513C475.277,368.804,475.955,369.279,476.666,369.155"/>
	<path clip-path="url(#SVGID_4_)" fill="#FFFFFF" d="M475.23,380.136c0.711-0.124,1.187-0.802,1.063-1.513
		c-0.124-0.712-0.801-1.188-1.513-1.063c-0.711,0.124-1.187,0.802-1.063,1.514C473.841,379.784,474.52,380.26,475.23,380.136"/>
	<path clip-path="url(#SVGID_4_)" fill="#FFFFFF" d="M475.097,400.798c0.711-0.124,1.187-0.802,1.063-1.513
		c-0.124-0.712-0.801-1.188-1.513-1.063c-0.711,0.124-1.187,0.801-1.063,1.514C473.708,400.446,474.385,400.922,475.097,400.798"/>
	<path clip-path="url(#SVGID_4_)" fill="#FFFFFF" d="M476.264,410.002c0.711-0.124,1.187-0.802,1.063-1.513
		c-0.124-0.712-0.801-1.188-1.513-1.062c-0.711,0.124-1.187,0.801-1.063,1.513C474.875,409.65,475.553,410.126,476.264,410.002"/>
	<path clip-path="url(#SVGID_4_)" fill="#FFFFFF" d="M479.404,419.094c0.711-0.124,1.187-0.803,1.063-1.514
		c-0.124-0.712-0.801-1.188-1.513-1.062c-0.711,0.124-1.187,0.801-1.063,1.513C478.015,418.741,478.693,419.218,479.404,419.094"/>
	<path clip-path="url(#SVGID_4_)" fill="#FFFFFF" d="M483.184,427.957c0.711-0.124,1.187-0.802,1.063-1.514
		s-0.801-1.188-1.513-1.062c-0.711,0.124-1.187,0.801-1.063,1.513C481.795,427.604,482.473,428.081,483.184,427.957"/>
	<path clip-path="url(#SVGID_4_)" fill="#FFFFFF" d="M487.492,436.603c0.711-0.124,1.187-0.802,1.063-1.513
		c-0.124-0.712-0.801-1.188-1.513-1.062c-0.711,0.124-1.187,0.801-1.063,1.513C486.103,436.251,486.781,436.727,487.492,436.603"/>
	<path clip-path="url(#SVGID_4_)" fill="#FFFFFF" d="M492.337,444.484c0.711-0.124,1.187-0.802,1.063-1.513
		c-0.124-0.712-0.801-1.188-1.513-1.063c-0.711,0.124-1.187,0.802-1.063,1.514C490.948,444.133,491.625,444.608,492.337,444.484"/>
	<path clip-path="url(#SVGID_4_)" fill="#FFFFFF" d="M475.23,389.385c0.711-0.124,1.187-0.803,1.063-1.514
		c-0.124-0.712-0.801-1.188-1.513-1.062c-0.711,0.124-1.187,0.801-1.063,1.513C473.841,389.032,474.52,389.508,475.23,389.385"/>
	<path clip-path="url(#SVGID_4_)" fill="#FFFFFF" d="M661.659,405.527c0-0.723-0.585-1.309-1.308-1.309
		c-0.722,0-1.307,0.586-1.307,1.309c0,0.722,0.585,1.308,1.307,1.308C661.074,406.835,661.659,406.249,661.659,405.527"/>
	<path clip-path="url(#SVGID_4_)" fill="#FFFFFF" d="M662.98,395.618c0-0.723-0.585-1.309-1.308-1.309
		c-0.722,0-1.308,0.586-1.308,1.309c0,0.722,0.586,1.308,1.308,1.308C662.396,396.926,662.98,396.34,662.98,395.618"/>
	<path clip-path="url(#SVGID_4_)" fill="#FFFFFF" d="M662.98,387.03c0-0.722-0.585-1.309-1.308-1.309
		c-0.722,0-1.308,0.587-1.308,1.309s0.586,1.308,1.308,1.308C662.396,388.338,662.98,387.752,662.98,387.03"/>
	<path clip-path="url(#SVGID_4_)" fill="#FFFFFF" d="M662.98,378.442c0-0.722-0.585-1.308-1.308-1.308
		c-0.722,0-1.308,0.586-1.308,1.308s0.586,1.308,1.308,1.308C662.396,379.75,662.98,379.164,662.98,378.442"/>
	<path clip-path="url(#SVGID_4_)" fill="#FFFFFF" d="M660.999,369.194c0-0.723-0.586-1.309-1.309-1.309
		c-0.722,0-1.307,0.586-1.307,1.309c0,0.722,0.585,1.308,1.307,1.308C660.413,370.502,660.999,369.916,660.999,369.194"/>
	
		<circle clip-path="url(#SVGID_4_)" fill="none" stroke="#FFFFFF" stroke-width="2" stroke-miterlimit="10" cx="139" cy="408.468" r="68.521"/>
	
		<circle clip-path="url(#SVGID_4_)" fill="none" stroke="#FFFFFF" stroke-width="2" stroke-miterlimit="10" cx="139" cy="408.468" r="61.723"/>
	
		<circle clip-path="url(#SVGID_4_)" fill="none" stroke="#FFFFFF" stroke-width="2" stroke-miterlimit="10" cx="139" cy="408.468" r="53.551"/>
	<polygon clip-path="url(#SVGID_4_)" fill="none" stroke="#FFFFFF" stroke-miterlimit="10" points="139.389,420.791 
		139.389,399.222 118.401,408.431 	"/>
	<polygon clip-path="url(#SVGID_4_)" fill="none" stroke="#FFFFFF" stroke-miterlimit="10" points="139.389,397.729 139.389,372.51 
		119.065,406.688 	"/>
	<polygon clip-path="url(#SVGID_4_)" fill="none" stroke="#FFFFFF" stroke-miterlimit="10" points="140.136,372.427 
		140.136,397.729 160.792,406.771 	"/>
	<polygon clip-path="url(#SVGID_4_)" fill="none" stroke="#FFFFFF" stroke-miterlimit="10" points="140.136,399.222 
		140.136,420.791 161.207,408.43 	"/>
	<polygon clip-path="url(#SVGID_4_)" fill="none" stroke="#FFFFFF" stroke-miterlimit="10" points="139.389,442.442 
		139.389,425.104 118.484,412.91 	"/>
	<polygon clip-path="url(#SVGID_4_)" fill="none" stroke="#FFFFFF" stroke-miterlimit="10" points="140.136,442.442 161.041,412.91 
		140.136,425.104 	"/>
	<path clip-path="url(#SVGID_4_)" fill="#FFFFFF" d="M91.871,364.23c0,0.504-0.408,0.912-0.912,0.912
		c-0.503,0-0.912-0.408-0.912-0.912s0.409-0.912,0.912-0.912C91.463,363.318,91.871,363.727,91.871,364.23"/>
	<path clip-path="url(#SVGID_4_)" fill="#FFFFFF" d="M97.398,359.163c0,0.504-0.408,0.912-0.912,0.912
		c-0.503,0-0.912-0.408-0.912-0.912s0.409-0.912,0.912-0.912C96.99,358.251,97.398,358.659,97.398,359.163"/>
	<path clip-path="url(#SVGID_4_)" fill="#FFFFFF" d="M102.926,355.018c0,0.504-0.408,0.912-0.912,0.912
		c-0.503,0-0.912-0.408-0.912-0.912s0.409-0.912,0.912-0.912C102.518,354.105,102.926,354.514,102.926,355.018"/>
	<path clip-path="url(#SVGID_4_)" fill="#FFFFFF" d="M109.375,350.872c0,0.504-0.408,0.912-0.912,0.912
		c-0.503,0-0.912-0.408-0.912-0.912s0.409-0.912,0.912-0.912C108.967,349.96,109.375,350.368,109.375,350.872"/>
	<path clip-path="url(#SVGID_4_)" fill="#FFFFFF" d="M115.823,347.647c0,0.504-0.408,0.912-0.912,0.912
		c-0.503,0-0.912-0.408-0.912-0.912s0.409-0.912,0.912-0.912C115.416,346.735,115.823,347.144,115.823,347.647"/>
	<path clip-path="url(#SVGID_4_)" fill="#FFFFFF" d="M123.193,345.345c0,0.504-0.408,0.912-0.912,0.912
		c-0.503,0-0.912-0.408-0.912-0.912s0.409-0.912,0.912-0.912C122.785,344.433,123.193,344.841,123.193,345.345"/>
	<path clip-path="url(#SVGID_4_)" fill="#FFFFFF" d="M130.563,343.963c0,0.504-0.408,0.912-0.912,0.912
		c-0.503,0-0.912-0.408-0.912-0.912s0.409-0.912,0.912-0.912C130.155,343.051,130.563,343.459,130.563,343.963"/>
	<path clip-path="url(#SVGID_4_)" fill="#FFFFFF" d="M137.934,343.502c0,0.504-0.408,0.912-0.912,0.912
		c-0.503,0-0.912-0.408-0.912-0.912s0.409-0.912,0.912-0.912C137.525,342.59,137.934,342.998,137.934,343.502"/>
	<path clip-path="url(#SVGID_4_)" fill="#FFFFFF" d="M145.303,343.502c0,0.504-0.408,0.912-0.912,0.912
		c-0.503,0-0.912-0.408-0.912-0.912s0.409-0.912,0.912-0.912C144.896,342.59,145.303,342.998,145.303,343.502"/>
	<path clip-path="url(#SVGID_4_)" fill="#FFFFFF" d="M152.673,344.424c0,0.504-0.408,0.911-0.912,0.911
		c-0.503,0-0.912-0.407-0.912-0.911c0-0.505,0.409-0.912,0.912-0.912C152.266,343.512,152.673,343.919,152.673,344.424"/>
	<path clip-path="url(#SVGID_4_)" fill="#FFFFFF" d="M159.583,346.266c0,0.504-0.408,0.912-0.912,0.912
		c-0.503,0-0.912-0.408-0.912-0.912s0.409-0.912,0.912-0.912C159.175,345.354,159.583,345.762,159.583,346.266"/>
	<path clip-path="url(#SVGID_4_)" fill="#FFFFFF" d="M166.031,348.569c0,0.504-0.408,0.912-0.912,0.912
		c-0.503,0-0.912-0.408-0.912-0.912s0.409-0.912,0.912-0.912C165.624,347.657,166.031,348.065,166.031,348.569"/>
	<path clip-path="url(#SVGID_4_)" fill="#FFFFFF" d="M172.48,351.793c0,0.505-0.408,0.912-0.912,0.912
		c-0.503,0-0.912-0.407-0.912-0.912c0-0.504,0.409-0.911,0.912-0.911C172.072,350.882,172.48,351.289,172.48,351.793"/>
	<path clip-path="url(#SVGID_4_)" fill="#FFFFFF" d="M178.008,355.479c0,0.504-0.408,0.912-0.912,0.912
		c-0.503,0-0.912-0.408-0.912-0.912s0.409-0.912,0.912-0.912C177.6,354.566,178.008,354.975,178.008,355.479"/>
	<path clip-path="url(#SVGID_4_)" fill="#FFFFFF" d="M183.075,360.085c0,0.504-0.408,0.912-0.912,0.912
		c-0.503,0-0.912-0.408-0.912-0.912s0.409-0.912,0.912-0.912C182.667,359.173,183.075,359.581,183.075,360.085"/>
	<path clip-path="url(#SVGID_4_)" fill="#FFFFFF" d="M188.602,365.151c0,0.504-0.408,0.912-0.912,0.912
		c-0.503,0-0.912-0.408-0.912-0.912s0.409-0.912,0.912-0.912C188.194,364.239,188.602,364.647,188.602,365.151"/>
	<path clip-path="url(#SVGID_4_)" fill="#FFFFFF" d="M193.208,371.14c0,0.504-0.408,0.912-0.912,0.912
		c-0.503,0-0.912-0.408-0.912-0.912s0.409-0.912,0.912-0.912C192.8,370.228,193.208,370.636,193.208,371.14"/>
	<path clip-path="url(#SVGID_4_)" fill="#FFFFFF" d="M196.894,377.128c0,0.504-0.408,0.912-0.912,0.912
		c-0.503,0-0.912-0.408-0.912-0.912s0.409-0.912,0.912-0.912C196.485,376.216,196.894,376.624,196.894,377.128"/>
	<path clip-path="url(#SVGID_4_)" fill="#FFFFFF" d="M200.254,383.576c0,0.504-0.408,0.912-0.912,0.912
		c-0.503,0-0.912-0.408-0.912-0.912s0.409-0.912,0.912-0.912C199.846,382.664,200.254,383.072,200.254,383.576"/>
	<path clip-path="url(#SVGID_4_)" fill="#FFFFFF" d="M202.096,389.564c0,0.504-0.408,0.912-0.912,0.912
		c-0.503,0-0.912-0.408-0.912-0.912s0.409-0.912,0.912-0.912C201.688,388.652,202.096,389.061,202.096,389.564"/>
	<path clip-path="url(#SVGID_4_)" fill="#FFFFFF" d="M91.847,452.758c0-0.504-0.408-0.912-0.912-0.912
		c-0.503,0-0.912,0.408-0.912,0.912s0.409,0.912,0.912,0.912C91.438,453.67,91.847,453.262,91.847,452.758"/>
	<path clip-path="url(#SVGID_4_)" fill="#FFFFFF" d="M97.374,457.824c0-0.504-0.408-0.912-0.912-0.912
		c-0.503,0-0.912,0.408-0.912,0.912s0.409,0.912,0.912,0.912C96.966,458.736,97.374,458.328,97.374,457.824"/>
	<path clip-path="url(#SVGID_4_)" fill="#FFFFFF" d="M102.902,461.97c0-0.504-0.408-0.912-0.912-0.912
		c-0.503,0-0.912,0.408-0.912,0.912s0.409,0.912,0.912,0.912C102.494,462.882,102.902,462.474,102.902,461.97"/>
	<path clip-path="url(#SVGID_4_)" fill="#FFFFFF" d="M109.351,466.116c0-0.505-0.408-0.912-0.912-0.912
		c-0.503,0-0.912,0.407-0.912,0.912c0,0.504,0.409,0.911,0.912,0.911C108.942,467.027,109.351,466.62,109.351,466.116"/>
	<path clip-path="url(#SVGID_4_)" fill="#FFFFFF" d="M115.799,469.34c0-0.504-0.408-0.912-0.912-0.912
		c-0.503,0-0.912,0.408-0.912,0.912s0.409,0.912,0.912,0.912C115.391,470.252,115.799,469.844,115.799,469.34"/>
	<path clip-path="url(#SVGID_4_)" fill="#FFFFFF" d="M123.169,471.644c0-0.504-0.408-0.912-0.912-0.912
		c-0.503,0-0.912,0.408-0.912,0.912s0.409,0.912,0.912,0.912C122.761,472.556,123.169,472.147,123.169,471.644"/>
	<path clip-path="url(#SVGID_4_)" fill="#FFFFFF" d="M130.539,473.025c0-0.504-0.408-0.912-0.912-0.912
		c-0.503,0-0.912,0.408-0.912,0.912s0.409,0.912,0.912,0.912C130.131,473.938,130.539,473.529,130.539,473.025"/>
	<path clip-path="url(#SVGID_4_)" fill="#FFFFFF" d="M137.909,473.485c0-0.504-0.408-0.911-0.912-0.911
		c-0.503,0-0.912,0.407-0.912,0.911c0,0.505,0.409,0.912,0.912,0.912C137.501,474.397,137.909,473.99,137.909,473.485"/>
	<path clip-path="url(#SVGID_4_)" fill="#FFFFFF" d="M145.279,473.485c0-0.504-0.408-0.911-0.912-0.911
		c-0.503,0-0.912,0.407-0.912,0.911c0,0.505,0.409,0.912,0.912,0.912C144.871,474.397,145.279,473.99,145.279,473.485"/>
	<path clip-path="url(#SVGID_4_)" fill="#FFFFFF" d="M152.649,472.564c0-0.504-0.408-0.912-0.912-0.912
		c-0.503,0-0.912,0.408-0.912,0.912s0.409,0.912,0.912,0.912C152.241,473.477,152.649,473.068,152.649,472.564"/>
	<path clip-path="url(#SVGID_4_)" fill="#FFFFFF" d="M159.559,470.722c0-0.504-0.408-0.912-0.912-0.912
		c-0.503,0-0.912,0.408-0.912,0.912s0.409,0.912,0.912,0.912C159.15,471.634,159.559,471.226,159.559,470.722"/>
	<path clip-path="url(#SVGID_4_)" fill="#FFFFFF" d="M166.007,468.419c0-0.504-0.408-0.912-0.912-0.912
		c-0.503,0-0.912,0.408-0.912,0.912s0.409,0.912,0.912,0.912C165.599,469.331,166.007,468.923,166.007,468.419"/>
	<path clip-path="url(#SVGID_4_)" fill="#FFFFFF" d="M172.456,465.194c0-0.504-0.408-0.912-0.912-0.912
		c-0.503,0-0.912,0.408-0.912,0.912s0.409,0.912,0.912,0.912C172.048,466.106,172.456,465.698,172.456,465.194"/>
	<path clip-path="url(#SVGID_4_)" fill="#FFFFFF" d="M177.983,461.51c0-0.504-0.408-0.912-0.912-0.912
		c-0.503,0-0.912,0.408-0.912,0.912s0.409,0.912,0.912,0.912C177.576,462.422,177.983,462.014,177.983,461.51"/>
	<path clip-path="url(#SVGID_4_)" fill="#FFFFFF" d="M183.05,456.903c0-0.504-0.408-0.912-0.912-0.912
		c-0.503,0-0.912,0.408-0.912,0.912s0.409,0.912,0.912,0.912C182.643,457.815,183.05,457.407,183.05,456.903"/>
	<path clip-path="url(#SVGID_4_)" fill="#FFFFFF" d="M188.578,451.836c0-0.504-0.408-0.911-0.912-0.911
		c-0.503,0-0.912,0.407-0.912,0.911c0,0.505,0.409,0.912,0.912,0.912C188.17,452.748,188.578,452.341,188.578,451.836"/>
	<path clip-path="url(#SVGID_4_)" fill="#FFFFFF" d="M193.184,445.849c0-0.504-0.408-0.912-0.912-0.912
		c-0.503,0-0.912,0.408-0.912,0.912s0.409,0.912,0.912,0.912C192.776,446.761,193.184,446.353,193.184,445.849"/>
	<path clip-path="url(#SVGID_4_)" fill="#FFFFFF" d="M196.869,439.86c0-0.504-0.408-0.912-0.912-0.912
		c-0.503,0-0.912,0.408-0.912,0.912s0.409,0.912,0.912,0.912C196.461,440.772,196.869,440.364,196.869,439.86"/>
	<path clip-path="url(#SVGID_4_)" fill="#FFFFFF" d="M200.229,433.872c0-0.504-0.408-0.912-0.912-0.912
		c-0.503,0-0.912,0.408-0.912,0.912s0.409,0.912,0.912,0.912C199.821,434.784,200.229,434.376,200.229,433.872"/>
	<path clip-path="url(#SVGID_4_)" fill="#FFFFFF" d="M202.072,427.423c0-0.504-0.408-0.911-0.912-0.911
		c-0.503,0-0.912,0.407-0.912,0.911c0,0.505,0.409,0.912,0.912,0.912C201.664,428.335,202.072,427.928,202.072,427.423"/>
	<path clip-path="url(#SVGID_4_)" fill="#FFFFFF" d="M87.725,369.758c0,0.504-0.408,0.912-0.912,0.912
		c-0.503,0-0.912-0.408-0.912-0.912s0.409-0.912,0.912-0.912C87.317,368.846,87.725,369.254,87.725,369.758"/>
	<path clip-path="url(#SVGID_4_)" fill="#FFFFFF" d="M82.741,376.403c0.496-0.087,0.828-0.559,0.741-1.055
		c-0.086-0.496-0.559-0.828-1.055-0.741c-0.496,0.086-0.828,0.559-0.741,1.055S82.245,376.49,82.741,376.403"/>
	<path clip-path="url(#SVGID_4_)" fill="#FFFFFF" d="M79.608,382.562c0.496-0.087,0.828-0.559,0.741-1.055
		c-0.086-0.496-0.559-0.828-1.055-0.741c-0.496,0.086-0.828,0.559-0.741,1.055S79.112,382.648,79.608,382.562"/>
	<path clip-path="url(#SVGID_4_)" fill="#FFFFFF" d="M77.094,389.167c0.496-0.087,0.828-0.56,0.741-1.056
		c-0.086-0.495-0.559-0.827-1.055-0.74c-0.496,0.086-0.828,0.559-0.741,1.055C76.126,388.922,76.598,389.254,77.094,389.167"/>
	<path clip-path="url(#SVGID_4_)" fill="#FFFFFF" d="M75.383,395.613c0.496-0.087,0.828-0.559,0.741-1.055
		c-0.086-0.496-0.559-0.828-1.055-0.741c-0.496,0.086-0.828,0.56-0.741,1.055C74.415,395.368,74.887,395.7,75.383,395.613"/>
	<path clip-path="url(#SVGID_4_)" fill="#FFFFFF" d="M74.382,403.27c0.496-0.087,0.828-0.559,0.741-1.055
		c-0.086-0.496-0.559-0.828-1.055-0.741c-0.496,0.086-0.828,0.56-0.741,1.055C73.414,403.024,73.886,403.356,74.382,403.27"/>
	<path clip-path="url(#SVGID_4_)" fill="#FFFFFF" d="M74.289,417.677c0.496-0.087,0.828-0.559,0.741-1.055
		c-0.086-0.496-0.559-0.828-1.055-0.741c-0.496,0.086-0.828,0.56-0.741,1.055C73.32,417.432,73.792,417.764,74.289,417.677"/>
	<path clip-path="url(#SVGID_4_)" fill="#FFFFFF" d="M75.103,424.095c0.496-0.087,0.828-0.559,0.741-1.055
		c-0.086-0.496-0.559-0.828-1.055-0.741c-0.496,0.086-0.828,0.56-0.741,1.056S74.606,424.183,75.103,424.095"/>
	<path clip-path="url(#SVGID_4_)" fill="#FFFFFF" d="M77.292,430.434c0.496-0.087,0.828-0.559,0.741-1.055
		c-0.086-0.496-0.559-0.828-1.055-0.741c-0.496,0.086-0.828,0.56-0.741,1.056S76.796,430.521,77.292,430.434"/>
	<path clip-path="url(#SVGID_4_)" fill="#FFFFFF" d="M79.928,436.614c0.496-0.087,0.828-0.559,0.741-1.055
		c-0.086-0.496-0.559-0.828-1.055-0.741c-0.496,0.086-0.828,0.559-0.741,1.055S79.432,436.701,79.928,436.614"/>
	<path clip-path="url(#SVGID_4_)" fill="#FFFFFF" d="M82.932,442.644c0.496-0.087,0.828-0.56,0.741-1.056
		c-0.086-0.496-0.559-0.828-1.055-0.74c-0.496,0.086-0.828,0.559-0.741,1.055S82.436,442.73,82.932,442.644"/>
	<path clip-path="url(#SVGID_4_)" fill="#FFFFFF" d="M86.31,448.139c0.496-0.087,0.828-0.559,0.741-1.055
		c-0.086-0.496-0.559-0.828-1.055-0.741c-0.496,0.086-0.828,0.56-0.741,1.055C85.342,447.894,85.813,448.226,86.31,448.139"/>
	<path clip-path="url(#SVGID_4_)" fill="#FFFFFF" d="M74.382,409.719c0.496-0.087,0.828-0.56,0.741-1.055
		c-0.086-0.496-0.559-0.828-1.055-0.741c-0.496,0.086-0.828,0.559-0.741,1.055S73.886,409.806,74.382,409.719"/>
	<path clip-path="url(#SVGID_4_)" fill="#FFFFFF" d="M204.375,420.975c0-0.504-0.408-0.912-0.912-0.912
		c-0.503,0-0.912,0.408-0.912,0.912s0.409,0.912,0.912,0.912C203.967,421.887,204.375,421.479,204.375,420.975"/>
	<path clip-path="url(#SVGID_4_)" fill="#FFFFFF" d="M205.296,414.065c0-0.504-0.408-0.912-0.912-0.912
		c-0.503,0-0.912,0.408-0.912,0.912s0.409,0.912,0.912,0.912C204.888,414.978,205.296,414.569,205.296,414.065"/>
	<path clip-path="url(#SVGID_4_)" fill="#FFFFFF" d="M205.296,408.077c0-0.504-0.408-0.912-0.912-0.912
		c-0.503,0-0.912,0.408-0.912,0.912s0.409,0.912,0.912,0.912C204.888,408.989,205.296,408.581,205.296,408.077"/>
	<path clip-path="url(#SVGID_4_)" fill="#FFFFFF" d="M205.296,402.089c0-0.504-0.408-0.912-0.912-0.912
		c-0.503,0-0.912,0.408-0.912,0.912s0.409,0.912,0.912,0.912C204.888,403.001,205.296,402.593,205.296,402.089"/>
	<path clip-path="url(#SVGID_4_)" fill="#FFFFFF" d="M203.915,395.64c0-0.504-0.408-0.911-0.912-0.911
		c-0.503,0-0.912,0.407-0.912,0.911c0,0.505,0.409,0.912,0.912,0.912C203.506,396.552,203.915,396.145,203.915,395.64"/>
	
		<line clip-path="url(#SVGID_4_)" fill="none" stroke="#FFFFFF" stroke-width="2" stroke-miterlimit="10" stroke-dasharray="6,6" x1="208.304" y1="254.598" x2="135.499" y2="341.697"/>
	
		<line clip-path="url(#SVGID_4_)" fill="none" stroke="#FFFFFF" stroke-width="2" stroke-miterlimit="10" stroke-dasharray="6,6" x1="747.804" y1="284.374" x2="663.897" y2="367.886"/>
	
		<line clip-path="url(#SVGID_4_)" fill="none" stroke="#FFFFFF" stroke-width="2" stroke-miterlimit="10" stroke-dasharray="6,6" x1="495.684" y1="318.192" x2="402.457" y2="224.582"/>
	<path clip-path="url(#SVGID_4_)" fill="#02546B" d="M187.227,296.147c0,7.796-6.32,14.116-14.117,14.116
		c-7.796,0-14.116-6.32-14.116-14.116s6.32-14.117,14.116-14.117C180.907,282.03,187.227,288.352,187.227,296.147"/>
	<circle clip-path="url(#SVGID_4_)" fill="none" stroke="#02546B" stroke-miterlimit="10" cx="173.111" cy="296.147" r="14.116"/>
	<path clip-path="url(#SVGID_4_)" fill="#02546B" d="M468.679,271.373c0,10.13-8.212,18.342-18.342,18.342
		c-10.131,0-18.343-8.212-18.343-18.342s8.212-18.342,18.343-18.342C460.467,253.031,468.679,261.243,468.679,271.373"/>
	<circle clip-path="url(#SVGID_4_)" fill="none" stroke="#02546B" stroke-miterlimit="10" cx="450.337" cy="271.373" r="18.343"/>
	<path clip-path="url(#SVGID_4_)" fill="#02546B" d="M728.577,322.822c0,10.378-8.413,18.792-18.792,18.792
		c-10.378,0-18.791-8.414-18.791-18.792s8.413-18.792,18.791-18.792C720.164,304.03,728.577,312.444,728.577,322.822"/>
	<circle clip-path="url(#SVGID_4_)" fill="none" stroke="#02546B" stroke-miterlimit="10" cx="709.786" cy="322.822" r="18.792"/>
	
		<path class="path" clip-path="url(#SVGID_4_)" fill="none" stroke="#FFFFFF" stroke-width="3" stroke-miterlimit="10" stroke-dasharray="6,6" d="
		M4.653,494.306c85-209,96.669-261.55,247.572-112.97C416.415,543,453.622,316.686,468.811,280.843S571,83.015,723.59,365.445
		c143.007,264.694,378.062-194.253,378.062-194.253"/>
	
		<path class="path" clip-path="url(#SVGID_4_)" fill="none" stroke="#FFFFFF" stroke-width="3" stroke-miterlimit="10" stroke-dasharray="6,6" d="
		M-34.936,543.153c68.47-246.909,75.182-308.003,255.298-153.985C416.34,556.749,435.497,289.121,443.521,252.561
		c8.023-36.561,88.34-235.922,285.365,70.512C913.54,610.263,1116.3,63.143,1116.3,63.143"/>
</g>
</svg>
