<?xml version="1.0" encoding="iso-8859-1"?>
<!-- Generator: Adobe Illustrator 19.0.0, SVG Export Plug-In . SVG Version: 6.00 Build 0)  -->
<svg xmlns="http://www.w3.org/2000/svg" xmlns:xlink="http://www.w3.org/1999/xlink" version="1.1" id="Layer_1" x="0px" y="0px" viewBox="0 0 512.001 512.001" style="enable-background:new 0 0 512.001 512.001;" xml:space="preserve" width="50px" height="50px">
<g>
	<g>
		<path d="M381.931,303.281c-6.426-1.655-13.078-2.495-19.771-2.495c-43.597,0-79.067,35.47-79.067,79.067    c0,13.896,3.658,27.565,10.578,39.532c1.537,2.657,4.323,4.144,7.187,4.144c1.409,0,2.836-0.359,4.145-1.116    c3.966-2.294,5.321-7.366,3.027-11.331c-5.462-9.447-8.349-20.244-8.349-31.229c0-34.451,28.028-62.479,62.479-62.479    c5.298,0,10.559,0.664,15.633,1.969c4.439,1.143,8.959-1.527,10.101-5.963C389.036,308.945,386.367,304.423,381.931,303.281z" fill="#000"/>
	</g>
</g>
<g>
	<g>
		<path d="M438.739,360.112c-1.139-4.437-5.654-7.113-10.096-5.969c-4.437,1.14-7.108,5.661-5.967,10.097    c1.304,5.07,1.964,10.324,1.964,15.613c0,34.451-28.028,62.479-62.479,62.479c-10.994,0-21.804-2.893-31.257-8.367    c-3.961-2.295-9.038-0.942-11.333,3.022c-2.296,3.963-0.943,9.038,3.021,11.334c11.976,6.935,25.659,10.599,39.568,10.599    c43.597,0,79.067-35.47,79.067-79.067C441.226,373.173,440.389,366.531,438.739,360.112z" fill="#000"/>
	</g>
</g>
<g>
	<g>
		<path d="M423.842,330.383c-3.624-4.513-7.75-8.635-12.264-12.253c-3.574-2.864-8.794-2.288-11.659,1.285    c-2.863,3.574-2.289,8.794,1.286,11.659c3.571,2.862,6.836,6.124,9.704,9.696c1.638,2.04,4.044,3.101,6.472,3.101    c1.821,0,3.657-0.598,5.187-1.828C426.14,339.175,426.711,333.954,423.842,330.383z" fill="#000"/>
	</g>
</g>
<g>
	<g>
		<path d="M477.167,353.866h-3.638c-2.828-12.24-7.594-23.763-14.23-34.4l2.56-2.56c6.68-6.681,6.68-17.555-0.001-24.239    l-12.51-12.511c-6.685-6.684-17.556-6.683-24.241,0l-2.558,2.559c-10.636-6.636-22.16-11.402-34.4-14.23v-3.638    c0-9.452-7.689-17.14-17.14-17.14h-17.693c-9.452,0-17.14,7.689-17.14,17.14v3.638c-12.24,2.828-23.764,7.594-34.4,14.23    l-2.558-2.559c-6.682-6.681-17.557-6.684-24.24,0l-12.512,12.513c-6.68,6.681-6.68,17.555,0.001,24.239l2.559,2.559    c-6.636,10.637-11.403,22.16-14.23,34.4h-3.638c-9.452,0-17.14,7.689-17.14,17.14V388.7c0,9.452,7.689,17.14,17.14,17.14h3.638    c2.828,12.24,7.594,23.763,14.23,34.399l-2.561,2.56c-6.679,6.683-6.679,17.555,0.002,24.24l12.51,12.51    c3.238,3.238,7.542,5.022,12.121,5.022c4.578,0,8.882-1.783,12.12-5.021l2.558-2.559c10.636,6.636,22.16,11.403,34.4,14.231v3.638    c0,9.452,7.689,17.14,17.14,17.14h17.693c9.452,0,17.14-7.689,17.14-17.14v-3.638c12.24-2.828,23.764-7.595,34.4-14.231    l2.558,2.559c3.238,3.238,7.542,5.022,12.12,5.022c4.579,0,8.883-1.783,12.12-5.021l12.514-12.512    c6.679-6.683,6.679-17.555-0.002-24.24l-2.559-2.559c6.636-10.637,11.403-22.159,14.23-34.399h3.638    c9.452,0,17.14-7.689,17.14-17.14v-17.693C494.307,361.555,486.618,353.866,477.167,353.866z M477.167,389.253h-10.438    c-4.049,0-7.507,2.925-8.179,6.919c-2.466,14.671-8.078,28.235-16.678,40.315c-2.349,3.299-1.972,7.812,0.892,10.676l7.365,7.365    c0.216,0.216,0.216,0.568,0.002,0.783l-12.513,12.511c-0.04,0.04-0.161,0.161-0.391,0.161c-0.228,0-0.349-0.122-0.39-0.161    l-7.366-7.366c-2.864-2.864-7.377-3.239-10.675-0.892c-12.08,8.6-25.644,14.212-40.316,16.679    c-3.994,0.671-6.919,4.129-6.919,8.179v10.438c0,0.305-0.249,0.553-0.553,0.553h-17.693c-0.304,0-0.553-0.248-0.553-0.553v-10.438    c0-4.05-2.925-7.508-6.919-8.179c-14.672-2.467-28.236-8.079-40.316-16.679c-1.45-1.032-3.133-1.537-4.808-1.537    c-2.138,0-4.262,0.824-5.868,2.43l-7.366,7.367c-0.04,0.04-0.161,0.161-0.39,0.161c-0.229,0-0.351-0.122-0.391-0.163    l-12.51-12.509c-0.216-0.216-0.216-0.568-0.002-0.783l7.367-7.366c2.864-2.863,3.241-7.376,0.892-10.676    c-8.6-12.08-14.212-25.644-16.678-40.315c-0.671-3.994-4.129-6.919-8.179-6.919h-10.439c-0.304,0-0.553-0.248-0.553-0.553v-17.693    c0-0.305,0.249-0.553,0.553-0.553h10.438c4.049,0,7.507-2.925,8.179-6.919c2.466-14.672,8.078-28.236,16.678-40.316    c2.349-3.299,1.972-7.812-0.892-10.676l-7.366-7.365c-0.216-0.217-0.216-0.567-0.001-0.783l12.512-12.511    c0.212-0.215,0.566-0.216,0.781,0l7.366,7.366c2.865,2.864,7.377,3.24,10.675,0.892c12.08-8.6,25.643-14.212,40.316-16.679    c3.994-0.671,6.919-4.129,6.919-8.179v-10.438c0-0.305,0.249-0.553,0.553-0.553h17.693c0.304,0,0.553,0.248,0.553,0.553v10.438    c0,4.05,2.925,7.507,6.919,8.179c14.673,2.467,28.236,8.079,40.316,16.679c3.298,2.349,7.81,1.972,10.675-0.892l7.366-7.366    c0.213-0.216,0.567-0.215,0.782,0l12.51,12.51c0.216,0.217,0.216,0.567,0.001,0.783l-7.367,7.366    c-2.864,2.863-3.241,7.376-0.892,10.676c8.6,12.08,14.212,25.644,16.678,40.316c0.671,3.994,4.129,6.919,8.179,6.919h10.438    c0.304,0,0.553,0.248,0.553,0.553V388.7h0.004C477.72,389.005,477.471,389.253,477.167,389.253z" fill="#000246"/>
	</g>
</g>
<g>
	<g>
		<path d="M362.16,336.173c-24.085,0-43.68,19.595-43.68,43.68c0,24.085,19.595,43.68,43.68,43.68    c24.085,0,43.68-19.595,43.68-43.68C405.841,355.768,386.245,336.173,362.16,336.173z M362.16,406.946    c-14.94,0-27.093-12.154-27.093-27.093c0-14.939,12.153-27.093,27.093-27.093c14.94,0,27.093,12.154,27.093,27.093    C389.253,394.792,377.1,406.946,362.16,406.946z" fill="#000246"/>
	</g>
</g>
<g>
	<g>
		<path d="M246.469,160.142c-0.816-4.508-5.129-7.502-9.638-6.687c-5.54,1.001-11.348,1.889-17.261,2.635    c-4.544,0.575-7.762,4.724-7.187,9.269c0.53,4.191,4.1,7.254,8.217,7.254c0.346,0,0.699-0.022,1.051-0.066    c6.203-0.784,12.304-1.716,18.131-2.769C244.29,168.964,247.283,164.649,246.469,160.142z" fill="#000246"/>
	</g>
</g>
<g>
	<g>
		<path d="M246.468,230.915c-0.815-4.507-5.128-7.503-9.637-6.686c-5.54,1.001-11.348,1.889-17.261,2.635    c-4.544,0.575-7.762,4.724-7.187,9.269c0.529,4.19,4.1,7.253,8.216,7.253c0.346,0,0.699-0.022,1.051-0.066    c6.203-0.784,12.304-1.716,18.131-2.769C244.289,239.738,247.282,235.423,246.468,230.915z" fill="#000246"/>
	</g>
</g>
<g>
	<g>
		<path d="M237.657,303.384c-0.69-4.528-4.922-7.638-9.448-6.95c-2.821,0.43-5.728,0.835-8.639,1.202    c-4.544,0.575-7.763,4.724-7.188,9.269c0.53,4.191,4.1,7.254,8.217,7.254c0.347,0,0.698-0.022,1.051-0.066    c3.051-0.386,6.098-0.81,9.057-1.261C235.236,312.143,238.347,307.912,237.657,303.384z" fill="#000246"/>
	</g>
</g>
<g>
	<g>
		<path d="M270.097,13.333C242.582,4.735,206.158,0,167.534,0C128.91,0,92.486,4.735,64.971,13.333    c-30.929,9.665-47.278,23.219-47.278,39.194V335.62c0,15.975,16.349,29.528,47.278,39.194    c27.514,8.598,63.938,13.333,102.563,13.333c12.207,0,24.337-0.478,36.053-1.42c4.566-0.368,7.969-4.367,7.601-8.933    c-0.367-4.565-4.376-7.964-8.933-7.602c-11.275,0.907-22.956,1.367-34.722,1.367c-36.992,0-71.659-4.468-97.614-12.579    c-26.305-8.22-35.639-17.721-35.639-23.361v-45.417c7.671,5.204,17.938,9.852,30.69,13.837    c27.514,8.598,63.938,13.333,102.563,13.333c6.028,0,12.09-0.117,18.016-0.348c4.577-0.179,8.142-4.034,7.963-8.611    c-0.178-4.577-4.036-8.154-8.611-7.964c-5.712,0.223-11.555,0.336-17.368,0.336c-81.344,0-133.253-21.286-133.253-35.94V219.43    c7.671,5.204,17.938,9.852,30.69,13.837c27.514,8.598,63.938,13.333,102.563,13.333c6.028,0,12.09-0.117,18.016-0.348    c4.577-0.179,8.142-4.034,7.963-8.611c-0.178-4.577-4.036-8.15-8.611-7.964c-5.712,0.223-11.555,0.336-17.368,0.336    c-81.344,0-133.253-21.286-133.253-35.94v-45.417c7.671,5.204,17.938,9.852,30.69,13.837    c27.514,8.598,63.938,13.333,102.563,13.333c6.028,0,12.09-0.117,18.016-0.348c4.577-0.179,8.142-4.034,7.963-8.611    c-0.178-4.577-4.036-8.144-8.611-7.964c-5.712,0.223-11.555,0.336-17.368,0.336c-81.344,0-133.253-21.286-133.253-35.94V77.884    c7.671,5.204,17.938,9.852,30.69,13.837c27.514,8.598,63.938,13.333,102.563,13.333c38.625,0,75.048-4.735,102.563-13.333    c12.753-3.985,23.019-8.633,30.69-13.837V123.3c0,8.022-16.088,16.564-29.864,21.442c-4.318,1.528-6.579,6.268-5.05,10.586    c1.205,3.404,4.403,5.528,7.818,5.528c0.918,0,1.853-0.154,2.768-0.478c8.142-2.883,16.966-6.753,24.328-11.752v45.446    c0,8.022-16.088,16.564-29.864,21.442c-4.318,1.528-6.579,6.268-5.05,10.586c1.205,3.404,4.403,5.528,7.818,5.528    c0.918,0,1.853-0.154,2.768-0.478c8.142-2.883,16.966-6.753,24.328-11.752v27.753c0,4.58,3.712,8.294,8.294,8.294    s8.294-3.713,8.294-8.294V52.527C317.374,36.552,301.026,22.998,270.097,13.333z M167.534,88.466    c-81.344,0-133.253-21.286-133.253-35.94s51.909-35.94,133.253-35.94s133.253,21.286,133.253,35.94S248.878,88.466,167.534,88.466    z" fill="#000246"/>
	</g>
</g>
<g>
</g>
<g>
</g>
<g>
</g>
<g>
</g>
<g>
</g>
<g>
</g>
<g>
</g>
<g>
</g>
<g>
</g>
<g>
</g>
<g>
</g>
<g>
</g>
<g>
</g>
<g>
</g>
<g>
</g>
</svg>
