<?xml version="1.0" encoding="utf-8"?>
<!-- Generator: Adobe Illustrator 19.0.0, SVG Export Plug-In . SVG Version: 6.00 Build 0)  -->
<svg version="1.1" id="Layer_1" xmlns="http://www.w3.org/2000/svg" xmlns:xlink="http://www.w3.org/1999/xlink" x="0px" y="0px"
	 viewBox="0 0 640 450" style="enable-background:new 0 0 640 450;" xml:space="preserve">
<style type="text/css">
	.st0{display:none;fill:#258ACB;}
	.st1{fill:#CCCCCC;}
	.st2{fill:#020202;}
	.st3{fill:#E2E2E2;}
	.st4{fill:#6D6D6D;}
	.st5{fill:#FFFFFF;}
	.st6{fill:#258ACB;}
	.st7{fill:#C6C6C5;}
	.st8{fill:#FFFFFF;stroke:#0E6799;stroke-width:3;stroke-miterlimit:10;}
	.st9{fill:none;stroke:#B0AFB0;stroke-width:2;stroke-miterlimit:10;stroke-dasharray:6;}
	.st10{fill:#B0AFB0;}
	.st11{fill:#343434;}
	.st12{fill:#8C8C8C;}
	.st13{fill:#3D3D3C;}
	.st14{fill:#161616;}
	.st15{fill:#3A3A39;}
	.st16{fill:#359ED9;}
	.st17{opacity:0.4;fill:#359ED9;}
	.st18{opacity:0.8;fill:#359ED9;}
	.st19{fill:none;stroke:#FFFFFF;stroke-width:2;stroke-miterlimit:10;stroke-dasharray:6;}
	.st20{clip-path:url(#XMLID_83_);fill:#FFFFFF;}
	.st21{clip-path:url(#XMLID_84_);fill:#FFFFFF;}
	.st22{fill:none;stroke:#FFFFFF;stroke-width:2;stroke-miterlimit:10;}
</style>
<rect id="XMLID_1_" class="st0" width="640" height="450"/>
<g id="XMLID_2_">
	<path id="XMLID_13_" class="st1" d="M620.2,303c0,3.7-3,6.7-6.7,6.7H379.9c-3.7,0-6.7-3-6.7-6.7l0,0c0-3.7,3-6.7,6.7-6.7h233.6
		C617.2,296.2,620.2,299.2,620.2,303L620.2,303z"/>
	<path id="XMLID_12_" class="st2" d="M604.1,291.3H389.8c-2.4,0-4.3-1.9-4.3-4.3V154.4c0-2.4,1.9-4.3,4.3-4.3h214.3
		c2.4,0,4.3,1.9,4.3,4.3v132.5C608.5,289.3,606.5,291.3,604.1,291.3z"/>
	<path id="XMLID_11_" class="st3" d="M605,154.4v132.5c0,0.5-0.4,0.9-0.9,0.9H389.8c-0.5,0-0.9-0.4-0.9-0.9V154.4
		c0-0.5,0.4-0.9,0.9-0.9h214.3C604.6,153.5,605,153.9,605,154.4z"/>
	<rect id="XMLID_9_" x="394.3" y="291.3" class="st4" width="198.9" height="4.9"/>
	<rect id="XMLID_8_" x="438.1" y="220.7" class="st5" width="117" height="49.9"/>
	<rect id="XMLID_7_" x="438.1" y="176.8" class="st5" width="117" height="23.2"/>
	<circle id="XMLID_4_" class="st6" cx="456.1" cy="187.5" r="4.9"/>
	<rect id="XMLID_6_" x="445.1" y="229.3" class="st7" width="102.9" height="6"/>
	<rect id="XMLID_3_" x="445.1" y="243.3" class="st7" width="102.9" height="6"/>
	<rect id="XMLID_5_" x="445.1" y="256.3" class="st7" width="102.9" height="6"/>
	<rect id="XMLID_14_" x="466" y="191" class="st6" width="27.7" height="0.5"/>
	<rect id="XMLID_10_" x="466" y="185" class="st6" width="27.7" height="0.5"/>
	<rect id="XMLID_56_" x="445.1" y="243.3" class="st6" width="71.3" height="6"/>
	<rect id="XMLID_57_" x="445.1" y="256.3" class="st6" width="51.9" height="6"/>
	<rect id="XMLID_58_" x="445.1" y="229.3" class="st6" width="91.7" height="6"/>
</g>
<g id="XMLID_39_">
	<circle id="XMLID_17_" class="st8" cx="133" cy="227.4" r="78.4"/>
	<g id="XMLID_35_">
		<polygon id="XMLID_33_" class="st9" points="101.8,283 71.7,231 101.8,179 162.2,179 192.3,231 162.2,283 		"/>
	</g>
	<circle id="XMLID_18_" class="st6" cx="103.1" cy="179.9" r="8.1"/>
	<circle id="XMLID_19_" class="st10" cx="73.1" cy="228.9" r="8.1"/>
	<circle id="XMLID_20_" class="st6" cx="100.1" cy="278.9" r="8.1"/>
	<circle id="XMLID_21_" class="st10" cx="164.1" cy="278.9" r="8.1"/>
	<circle id="XMLID_22_" class="st10" cx="160.1" cy="178.9" r="8.1"/>
	<circle id="XMLID_23_" class="st6" cx="190.1" cy="226.9" r="8.1"/>
	<circle id="XMLID_24_" class="st6" cx="131" cy="231" r="8.1"/>
	<line id="XMLID_25_" class="st9" x1="156" y1="188" x2="136.1" y2="224.7"/>
	<line id="XMLID_26_" class="st9" x1="127.6" y1="237.5" x2="104.7" y2="272.4"/>
	<line id="XMLID_30_" class="st9" x1="122" y1="231" x2="80.2" y2="231"/>
	<line id="XMLID_27_" class="st9" x1="133.9" y1="237.9" x2="158.2" y2="272"/>
	<line id="XMLID_29_" class="st9" x1="106.5" y1="187.8" x2="125.8" y2="224.9"/>
	<line id="XMLID_28_" class="st9" x1="182" y1="231" x2="140.2" y2="231"/>
</g>
<g id="Social_icons" transform="translate(-722.000000, -954.000000)">
	<g id="Ethereum" transform="translate(722.000000, 954.000000)">
		<g id="Shape" transform="translate(19.000000, 12.000000)">
			<polygon id="XMLID_38_" class="st11" points="272.1,158.3 271.3,161.1 271.3,240.5 272.1,241.3 309,219.5 			"/>
			<polygon id="XMLID_37_" class="st12" points="272.1,158.3 235.3,219.5 272.1,241.3 272.1,202.7 			"/>
			<polygon id="XMLID_36_" class="st13" points="272.1,248.2 271.7,248.8 271.7,277.1 272.1,278.4 309,226.5 			"/>
			<polygon id="XMLID_34_" class="st12" points="272.1,278.4 272.1,248.2 235.3,226.5 			"/>
			<polygon id="XMLID_32_" class="st14" points="272.1,241.3 309,219.5 272.1,202.7 			"/>
			<polygon id="XMLID_40_" class="st15" points="235.3,219.5 272.1,241.3 272.1,202.7 			"/>
		</g>
	</g>
</g>
<g id="XMLID_69_">
	<circle id="XMLID_16_" class="st16" cx="49" cy="255" r="10"/>
	<circle id="XMLID_66_" class="st17" cx="456.1" cy="332.7" r="10"/>
	<circle id="XMLID_42_" class="st16" cx="74.2" cy="291.3" r="3.7"/>
	<circle id="XMLID_46_" class="st16" cx="57.6" cy="277.9" r="5.9"/>
	<circle id="XMLID_43_" class="st16" cx="101.1" cy="143.1" r="5.9"/>
	<circle id="XMLID_67_" class="st18" cx="432.1" cy="327.6" r="5.9"/>
	<circle id="XMLID_44_" class="st16" cx="122" cy="137.1" r="3.7"/>
	<circle id="XMLID_68_" class="st16" cx="480.7" cy="337.2" r="3.7"/>
	<circle id="XMLID_45_" class="st16" cx="204.1" cy="164.4" r="5.9"/>
</g>
<g id="XMLID_65_">
	<line id="XMLID_31_" class="st19" x1="505.9" y1="59" x2="505.9" y2="150"/>
	<line id="XMLID_41_" class="st19" x1="128.9" y1="57" x2="128.9" y2="127.5"/>
	<g id="XMLID_47_">
		<g id="XMLID_52_">
			<defs>
				<rect id="XMLID_49_" x="119.2" y="115.4" width="18.9" height="10.3"/>
			</defs>
			<clipPath id="XMLID_83_">
				<use xlink:href="#XMLID_49_"  style="overflow:visible;"/>
			</clipPath>
			<path id="XMLID_54_" class="st20" d="M137.9,115.6c-0.3-0.3-0.7-0.3-0.9,0l-8.3,8.3l-8.3-8.3c-0.3-0.3-0.7-0.3-0.9,0
				c-0.3,0.3-0.3,0.7,0,0.9l8.8,8.8c0.1,0.1,0.3,0.2,0.5,0.2c0.2,0,0.3-0.1,0.5-0.2l8.8-8.8C138.2,116.3,138.2,115.9,137.9,115.6
				L137.9,115.6z M137.9,115.6"/>
		</g>
	</g>
	<line id="XMLID_48_" class="st19" x1="128.9" y1="307" x2="128.9" y2="398"/>
	<line id="XMLID_55_" class="st19" x1="506.9" y1="326.2" x2="506.9" y2="397"/>
	<g id="XMLID_59_">
		<g id="XMLID_60_">
			<defs>
				<rect id="XMLID_61_" x="497.2" y="322.4" width="18.9" height="10.3"/>
			</defs>
			<clipPath id="XMLID_84_">
				<use xlink:href="#XMLID_61_"  style="overflow:visible;"/>
			</clipPath>
			<path id="XMLID_62_" class="st21" d="M497.4,332.5c0.3,0.3,0.7,0.3,0.9,0l8.3-8.3l8.3,8.3c0.3,0.3,0.7,0.3,0.9,0
				c0.3-0.3,0.3-0.7,0-0.9l-8.8-8.8c-0.1-0.1-0.3-0.2-0.5-0.2c-0.2,0-0.3,0.1-0.5,0.2l-8.8,8.8C497.2,331.8,497.2,332.2,497.4,332.5
				L497.4,332.5z M497.4,332.5"/>
		</g>
	</g>
	<line id="XMLID_74_" class="st19" x1="347.9" y1="58" x2="506.9" y2="58"/>
	<line id="XMLID_76_" class="st19" x1="127.9" y1="58" x2="270.4" y2="58"/>
	<line id="XMLID_81_" class="st19" x1="347.8" y1="397" x2="506.9" y2="397"/>
	<line id="XMLID_82_" class="st19" x1="128.8" y1="397" x2="270.4" y2="397"/>
</g>
<circle id="XMLID_70_" class="st22" cx="309.1" cy="59.3" r="38.7"/>
<path id="XMLID_75_" class="st5" d="M329.6,68.2l0.8,7.4c0,0.4-0.1,0.8-0.4,1.2c-0.3,0.3-0.7,0.5-1.1,0.5h-39.5
	c-0.5,0-0.8-0.2-1.1-0.5c-0.3-0.3-0.4-0.7-0.4-1.2l0.8-7.4H329.6z M327.4,48.2l2,18.4h-40.5l2-18.4c0-0.4,0.2-0.7,0.5-1
	c0.3-0.3,0.6-0.4,1-0.4h6.1v3c0,0.8,0.3,1.6,0.9,2.1c0.6,0.6,1.3,0.9,2.1,0.9c0.8,0,1.6-0.3,2.1-0.9c0.6-0.6,0.9-1.3,0.9-2.1v-3h9.1
	v3c0,0.8,0.3,1.6,0.9,2.1c0.6,0.6,1.3,0.9,2.1,0.9c0.8,0,1.6-0.3,2.1-0.9c0.6-0.6,0.9-1.3,0.9-2.1v-3h6.1c0.4,0,0.7,0.1,1,0.4
	C327.2,47.5,327.4,47.9,327.4,48.2z M318.3,43.9v6.1c0,0.4-0.2,0.8-0.5,1.1c-0.3,0.3-0.7,0.5-1.1,0.5s-0.8-0.2-1.1-0.5
	c-0.3-0.3-0.5-0.7-0.5-1.1v-6.1c0-1.7-0.6-3.1-1.8-4.3c-1.2-1.2-2.6-1.8-4.3-1.8s-3.1,0.6-4.3,1.8c-1.2,1.2-1.8,2.6-1.8,4.3v6.1
	c0,0.4-0.2,0.8-0.5,1.1c-0.3,0.3-0.7,0.5-1.1,0.5s-0.8-0.2-1.1-0.5c-0.3-0.3-0.5-0.7-0.5-1.1v-6.1c0-2.5,0.9-4.7,2.7-6.4
	c1.8-1.8,3.9-2.7,6.4-2.7s4.7,0.9,6.4,2.7C317.4,39.2,318.3,41.3,318.3,43.9z"/>
<circle id="XMLID_80_" class="st22" cx="309.1" cy="397.3" r="38.7"/>
<path id="XMLID_15_" class="st5" d="M329.6,406.2l0.8,7.4c0,0.4-0.1,0.8-0.4,1.2c-0.3,0.3-0.7,0.5-1.1,0.5h-39.5
	c-0.5,0-0.8-0.2-1.1-0.5c-0.3-0.3-0.4-0.7-0.4-1.2l0.8-7.4H329.6z M327.4,386.2l2,18.4h-40.5l2-18.4c0-0.4,0.2-0.7,0.5-1
	c0.3-0.3,0.6-0.4,1-0.4h6.1v3c0,0.8,0.3,1.6,0.9,2.1s1.3,0.9,2.1,0.9c0.8,0,1.6-0.3,2.1-0.9s0.9-1.3,0.9-2.1v-3h9.1v3
	c0,0.8,0.3,1.6,0.9,2.1s1.3,0.9,2.1,0.9c0.8,0,1.6-0.3,2.1-0.9s0.9-1.3,0.9-2.1v-3h6.1c0.4,0,0.7,0.1,1,0.4
	C327.2,385.5,327.4,385.9,327.4,386.2z M318.3,381.9v6.1c0,0.4-0.2,0.8-0.5,1.1c-0.3,0.3-0.7,0.5-1.1,0.5s-0.8-0.2-1.1-0.5
	c-0.3-0.3-0.5-0.7-0.5-1.1v-6.1c0-1.7-0.6-3.1-1.8-4.3s-2.6-1.8-4.3-1.8s-3.1,0.6-4.3,1.8s-1.8,2.6-1.8,4.3v6.1
	c0,0.4-0.2,0.8-0.5,1.1c-0.3,0.3-0.7,0.5-1.1,0.5s-0.8-0.2-1.1-0.5c-0.3-0.3-0.5-0.7-0.5-1.1v-6.1c0-2.5,0.9-4.7,2.7-6.4
	s3.9-2.7,6.4-2.7s4.7,0.9,6.4,2.7S318.3,379.3,318.3,381.9z"/>
</svg>
