<?xml version="1.0" encoding="utf-8"?>
<!-- Generator: Adobe Illustrator 16.0.0, SVG Export Plug-In . SVG Version: 6.00 Build 0)  -->
<!DOCTYPE svg PUBLIC "-//W3C//DTD SVG 1.1//EN" "http://www.w3.org/Graphics/SVG/1.1/DTD/svg11.dtd" [
	<!ENTITY ns_extend "http://ns.adobe.com/Extensibility/1.0/">
	<!ENTITY ns_ai "http://ns.adobe.com/AdobeIllustrator/10.0/">
	<!ENTITY ns_graphs "http://ns.adobe.com/Graphs/1.0/">
	<!ENTITY ns_vars "http://ns.adobe.com/Variables/1.0/">
	<!ENTITY ns_imrep "http://ns.adobe.com/ImageReplacement/1.0/">
	<!ENTITY ns_sfw "http://ns.adobe.com/SaveForWeb/1.0/">
	<!ENTITY ns_custom "http://ns.adobe.com/GenericCustomNamespace/1.0/">
	<!ENTITY ns_adobe_xpath "http://ns.adobe.com/XPath/1.0/">
]>
<svg version="1.1" id="Layer_1" xmlns:x="&ns_extend;" xmlns:i="&ns_ai;" xmlns:graph="&ns_graphs;"
	 xmlns="http://www.w3.org/2000/svg" xmlns:xlink="http://www.w3.org/1999/xlink" x="0px" y="0px" width="640px" height="480px"
	 viewBox="0 0 640 480" enable-background="new 0 0 640 480" xml:space="preserve">
<metadata>
	<sfw  xmlns="&ns_sfw;">
		<slices></slices>
		<sliceSourceBounds  height="450.2" width="640" bottomLeftOrigin="true" y="15.5" x="-0.5"></sliceSourceBounds>
	</sfw>
</metadata>
<rect id="XMLID_1_" y="15" display="none" fill="#258ACB" width="640" height="450"/>
<g>
	<g>
		<path id="XMLID_13_" fill="#CCCCCC" d="M610.6,298.2c0,3.7-3,6.7-6.698,6.7H370.301c-3.701,0-6.701-3-6.701-6.7l0,0
			c0-3.7,3-6.7,6.701-6.7h233.601C607.6,291.4,610.6,294.4,610.6,298.2L610.6,298.2z"/>
		<g>
			<path id="XMLID_12_" fill="#020202" d="M594.5,286.5H380.199c-2.398,0-4.299-1.899-4.299-4.3V149.6c0-2.399,1.899-4.3,4.299-4.3
				H594.5c2.4,0,4.301,1.9,4.301,4.3v132.5C598.9,284.5,596.9,286.5,594.5,286.5z"/>
			<path id="XMLID_11_" fill="#E2E2E2" d="M595.4,149.6v132.5c0,0.5-0.4,0.899-0.9,0.899H380.199c-0.5,0-0.898-0.399-0.898-0.899
				V149.6c0-0.5,0.398-0.899,0.898-0.899H594.5C595,148.7,595.4,149.1,595.4,149.6z"/>
		</g>
		<rect id="XMLID_9_" x="384.699" y="286.5" fill="#6D6D6D" width="198.899" height="4.9"/>
	</g>
	<rect id="XMLID_8_" x="428.5" y="215.9" fill="#FFFFFF" width="117" height="49.899"/>
	<rect id="XMLID_7_" x="428.5" y="172" fill="#FFFFFF" width="117" height="23.2"/>
	<circle id="XMLID_4_" fill="#258ACB" cx="446.5" cy="182.7" r="4.9"/>
	<rect id="XMLID_6_" x="435.5" y="224.5" fill="#C6C6C5" width="102.9" height="6"/>
	<rect id="XMLID_3_" x="435.5" y="238.5" fill="#C6C6C5" width="102.9" height="6"/>
	<rect id="XMLID_5_" x="435.5" y="251.5" fill="#C6C6C5" width="102.9" height="6"/>
	<rect id="XMLID_14_" x="456.4" y="186.2" fill="#258ACB" width="27.698" height="0.5"/>
	<rect id="XMLID_10_" x="456.4" y="180.2" fill="#258ACB" width="27.698" height="0.5"/>
	<rect id="XMLID_56_" x="435.5" y="238.5" fill="#258ACB" width="71.301" height="6"/>
	<rect id="XMLID_57_" x="435.5" y="251.5" fill="#258ACB" width="51.9" height="6"/>
	<rect id="XMLID_58_" x="435.5" y="224.5" fill="#258ACB" width="91.699" height="6"/>
	<circle id="XMLID_17_" fill="#FFFFFF" stroke="#0E6799" stroke-width="3" stroke-miterlimit="10" cx="123.4" cy="222.6" r="78.4"/>
	<polygon id="XMLID_33_" fill="none" stroke="#B0AFB0" stroke-width="2" stroke-miterlimit="10" stroke-dasharray="6" points="
		92.2,278.2 62.1,226.2 92.2,174.2 152.6,174.2 182.7,226.2 152.6,278.2 	"/>
	<circle id="XMLID_18_" fill="#258ACB" cx="93.5" cy="175.1" r="8.1"/>
	<circle id="XMLID_19_" fill="#B0AFB0" cx="63.5" cy="224.1" r="8.1"/>
	<circle id="XMLID_20_" fill="#258ACB" cx="90.5" cy="274.1" r="8.1"/>
	<circle id="XMLID_21_" fill="#B0AFB0" cx="154.5" cy="274.1" r="8.1"/>
	<circle id="XMLID_22_" fill="#B0AFB0" cx="150.5" cy="174.1" r="8.1"/>
	<circle id="XMLID_23_" fill="#258ACB" cx="180.5" cy="222.1" r="8.1"/>
	<circle id="XMLID_24_" fill="#258ACB" cx="121.4" cy="226.2" r="8.1"/>
	
		<line id="XMLID_25_" fill="none" stroke="#B0AFB0" stroke-width="2" stroke-miterlimit="10" stroke-dasharray="6" x1="146.4" y1="183.2" x2="126.5" y2="219.9"/>
	
		<line id="XMLID_26_" fill="none" stroke="#B0AFB0" stroke-width="2" stroke-miterlimit="10" stroke-dasharray="6" x1="118" y1="232.7" x2="95.1" y2="267.602"/>
	
		<line id="XMLID_30_" fill="none" stroke="#B0AFB0" stroke-width="2" stroke-miterlimit="10" stroke-dasharray="6" x1="112.4" y1="226.2" x2="70.6" y2="226.2"/>
	
		<line id="XMLID_27_" fill="none" stroke="#B0AFB0" stroke-width="2" stroke-miterlimit="10" stroke-dasharray="6" x1="124.3" y1="233.102" x2="148.6" y2="267.2"/>
	
		<line id="XMLID_29_" fill="none" stroke="#B0AFB0" stroke-width="2" stroke-miterlimit="10" stroke-dasharray="6" x1="96.9" y1="183" x2="116.2" y2="220.1"/>
	
		<line id="XMLID_28_" fill="none" stroke="#B0AFB0" stroke-width="2" stroke-miterlimit="10" stroke-dasharray="6" x1="172.4" y1="226.2" x2="130.6" y2="226.2"/>
	<polygon id="XMLID_38_" fill="#343434" points="281.5,165.5 280.7,168.3 280.7,247.7 281.5,248.5 318.4,226.7 	"/>
	<polygon id="XMLID_37_" fill="#8C8C8C" points="281.5,165.5 244.7,226.7 281.5,248.5 281.5,209.9 	"/>
	<polygon id="XMLID_36_" fill="#3D3D3C" points="281.5,255.4 281.1,256 281.1,284.3 281.5,285.601 318.4,233.7 	"/>
	<polygon id="XMLID_34_" fill="#8C8C8C" points="281.5,285.601 281.5,255.4 244.7,233.7 	"/>
	<polygon id="XMLID_32_" fill="#161616" points="281.5,248.5 318.4,226.7 281.5,209.9 	"/>
	<polygon id="XMLID_40_" fill="#3A3A39" points="244.7,226.7 281.5,248.5 281.5,209.9 	"/>
	<circle id="XMLID_16_" fill="#359ED9" cx="39.4" cy="250.2" r="10"/>
	<circle id="XMLID_66_" opacity="0.4" fill="#359ED9" enable-background="new    " cx="446.5" cy="327.9" r="10"/>
	<circle id="XMLID_42_" fill="#359ED9" cx="64.6" cy="286.5" r="3.7"/>
	<circle id="XMLID_46_" fill="#359ED9" cx="48" cy="273.1" r="5.9"/>
	<circle id="XMLID_43_" fill="#359ED9" cx="91.5" cy="138.3" r="5.9"/>
	<circle id="XMLID_67_" opacity="0.8" fill="#359ED9" enable-background="new    " cx="422.5" cy="322.8" r="5.9"/>
	<circle id="XMLID_44_" fill="#359ED9" cx="112.4" cy="132.3" r="3.7"/>
	<circle id="XMLID_68_" fill="#359ED9" cx="471.1" cy="332.4" r="3.7"/>
	<circle id="XMLID_45_" fill="#359ED9" cx="194.5" cy="159.6" r="5.9"/>
	<g id="XMLID_31_">
		<path fill="#FFFFFF" d="M497.301,144.2h-2v-6h2V144.2z M497.301,132.2h-2v-6h2V132.2z M497.301,120.2h-2v-6h2V120.2z
			 M497.301,108.2h-2v-6h2V108.2z M497.301,96.2h-2v-6h2V96.2z M497.301,84.2h-2v-6h2V84.2z M497.301,72.2h-2v-6h2V72.2z
			 M497.301,60.2h-2v-6h2V60.2z"/>
	</g>
	<g id="XMLID_41_">
		<path fill="#FFFFFF" d="M120.3,118.2h-2v-6h2V118.2z M120.3,106.2h-2v-6h2V106.2z M120.3,94.2h-2v-6h2V94.2z M120.3,82.2h-2v-6h2
			V82.2z M120.3,70.2h-2v-6h2V70.2z M120.3,58.2h-2v-6h2V58.2z"/>
	</g>
	<path id="XMLID_54_" fill="#FFFFFF" d="M128.3,110.8c-0.301-0.3-0.7-0.3-0.899,0l-8.301,8.3l-8.3-8.3c-0.301-0.3-0.7-0.3-0.899,0
		c-0.301,0.3-0.301,0.7,0,0.9l8.8,8.8c0.101,0.1,0.3,0.2,0.5,0.2s0.3-0.101,0.5-0.2l8.8-8.8C128.6,111.5,128.6,111.1,128.3,110.8
		L128.3,110.8z"/>
	<rect id="XMLID_49_" x="109.6" y="110.6" fill="none" width="18.899" height="10.301"/>
	<g id="XMLID_48_">
		<path fill="#FFFFFF" d="M120.3,392.2h-2v-6h2V392.2z M120.3,380.2h-2v-6h2V380.2z M120.3,368.2h-2v-6h2V368.2z M120.3,356.2h-2v-6
			h2V356.2z M120.3,344.2h-2v-6h2V344.2z M120.3,332.2h-2v-6h2V332.2z M120.3,320.2h-2v-6h2V320.2z M120.3,308.2h-2v-6h2V308.2z"/>
	</g>
	<g id="XMLID_55_">
		<path fill="#FFFFFF" d="M498.301,387.4h-2v-6h2V387.4z M498.301,375.4h-2v-6h2V375.4z M498.301,363.4h-2v-6h2V363.4z
			 M498.301,351.4h-2v-6h2V351.4z M498.301,339.4h-2v-6h2V339.4z M498.301,327.4h-2v-6h2V327.4z"/>
	</g>
	<path id="XMLID_62_" fill="#FFFFFF" d="M487.801,327.7c0.299,0.3,0.699,0.3,0.898,0l8.301-8.3l8.301,8.3
		c0.299,0.3,0.699,0.3,0.898,0c0.301-0.3,0.301-0.7,0-0.9L497.4,318c-0.101-0.1-0.302-0.2-0.5-0.2c-0.201,0-0.302,0.102-0.5,0.2
		l-8.802,8.8C487.6,327,487.6,327.4,487.801,327.7L487.801,327.7z"/>
	<rect id="XMLID_61_" x="487.6" y="317.601" fill="none" width="18.9" height="10.301"/>
	<g id="XMLID_74_">
		<path fill="#FFFFFF" d="M497.301,54.2h-3v-2h3V54.2z M488.301,54.2h-6v-2h6V54.2z M476.301,54.2h-6v-2h6V54.2z M464.301,54.2h-6
			v-2h6V54.2z M452.301,54.2h-6v-2h6V54.2z M440.301,54.2h-6v-2h6V54.2z M428.301,54.2h-6v-2h6V54.2z M416.301,54.2h-6v-2h6V54.2z
			 M404.301,54.2h-6v-2h6V54.2z M392.301,54.2h-6v-2h6V54.2z M380.301,54.2h-6v-2h6V54.2z M368.301,54.2h-6v-2h6V54.2z
			 M356.301,54.2h-6v-2h6V54.2z M344.301,54.2h-6v-2h6V54.2z"/>
	</g>
	<g id="XMLID_76_">
		<path fill="#FFFFFF" d="M256.3,54.2h-6v-2h6V54.2z M244.3,54.2h-6v-2h6V54.2z M232.3,54.2h-6v-2h6V54.2z M220.3,54.2h-6v-2h6V54.2
			z M208.3,54.2h-6v-2h6V54.2z M196.3,54.2h-6v-2h6V54.2z M184.3,54.2h-6v-2h6V54.2z M172.3,54.2h-6v-2h6V54.2z M160.3,54.2h-6v-2h6
			V54.2z M148.3,54.2h-6v-2h6V54.2z M136.3,54.2h-6v-2h6V54.2z M124.3,54.2h-6v-2h6V54.2z"/>
	</g>
	<g id="XMLID_81_">
		<path fill="#FFFFFF" d="M497.301,393.2h-3.102v-2h3.102V393.2z M488.199,393.2h-6v-2h6V393.2z M476.199,393.2h-6v-2h6V393.2z
			 M464.199,393.2h-6v-2h6V393.2z M452.199,393.2h-6v-2h6V393.2z M440.199,393.2h-6v-2h6V393.2z M428.199,393.2h-6v-2h6V393.2z
			 M416.199,393.2h-6v-2h6V393.2z M404.199,393.2h-6v-2h6V393.2z M392.199,393.2h-6v-2h6V393.2z M380.199,393.2h-6v-2h6V393.2z
			 M368.199,393.2h-6v-2h6V393.2z M356.199,393.2h-6v-2h6V393.2z M344.199,393.2h-6v-2h6V393.2z"/>
	</g>
	<g id="XMLID_82_">
		<path fill="#FFFFFF" d="M257.2,393.2h-6v-2h6V393.2z M245.2,393.2h-6v-2h6V393.2z M233.2,393.2h-6v-2h6V393.2z M221.2,393.2h-6v-2
			h6V393.2z M209.2,393.2h-6v-2h6V393.2z M197.2,393.2h-6v-2h6V393.2z M185.2,393.2h-6v-2h6V393.2z M173.2,393.2h-6v-2h6V393.2z
			 M161.2,393.2h-6v-2h6V393.2z M149.2,393.2h-6v-2h6V393.2z M137.2,393.2h-6v-2h6V393.2z M125.2,393.2h-6v-2h6V393.2z"/>
	</g>
	<circle id="XMLID_70_" fill="none" stroke="#FFFFFF" stroke-width="2" stroke-miterlimit="10" cx="299.5" cy="54.5" r="38.7"/>
	<circle id="XMLID_80_" fill="none" stroke="#FFFFFF" stroke-width="2" stroke-miterlimit="10" cx="299.5" cy="392.5" r="38.7"/>
</g>
</svg>
