<?xml version="1.0" encoding="utf-8"?>
<!-- Generator: Adobe Illustrator 16.0.0, SVG Export Plug-In . SVG Version: 6.00 Build 0)  -->
<!DOCTYPE svg PUBLIC "-//W3C//DTD SVG 1.1//EN" "http://www.w3.org/Graphics/SVG/1.1/DTD/svg11.dtd">
<svg version="1.1" id="Layer_1" xmlns="http://www.w3.org/2000/svg" xmlns:xlink="http://www.w3.org/1999/xlink" x="0px" y="0px"
	 width="340px" height="106px" viewBox="0 0 340 106" enable-background="new 0 0 340 106" xml:space="preserve">
<g>
	<g>
		<path fill="#FFFFFF" d="M106.985,65.852V35.125h2.672v28.331h14.879v2.396H106.985z"/>
		<path fill="#FFFFFF" d="M152.173,65.852l-3.041-7.555h-16.261l-3.041,7.555h-3.041l12.576-30.726h3.271l12.576,30.726H152.173z
			 M141.025,37.936l-7.278,17.966h14.511L141.025,37.936z"/>
		<path fill="#FFFFFF" d="M159.079,65.852V35.125h2.672v28.331h14.88v2.396H159.079z"/>
		<path fill="#FFFFFF" d="M204.268,65.852l-3.041-7.555h-16.262l-3.039,7.555h-3.041l12.576-30.726h3.271l12.576,30.726H204.268z
			 M193.119,37.936l-7.277,17.966h14.51L193.119,37.936z"/>
		<path fill="#FFFFFF" d="M223.012,65.852V35.125h3.822v27.317h14.281v3.409H223.012z"/>
		<path fill="#FFFFFF" d="M268.152,65.852l-2.717-6.864h-15.295l-2.717,6.864h-4.377l12.393-30.726h4.744l12.346,30.726H268.152z
			 M257.789,39.041l-6.496,16.584h13.037L257.789,39.041z"/>
		<path fill="#FFFFFF" d="M276.533,65.852V35.125h13.682c5.344,0,8.615,3.225,8.615,7.831c0,3.87-2.58,6.449-5.391,7.048
			c3.271,0.507,5.988,3.869,5.988,7.555c0,4.929-3.27,8.292-8.891,8.292H276.533z M294.867,43.509c0-2.764-1.842-4.975-5.297-4.975
			h-9.213v9.904h9.213C293.025,48.438,294.867,46.319,294.867,43.509z M295.467,57.146c0-2.811-1.936-5.298-5.666-5.298h-9.443
			v10.595h9.443C293.348,62.442,295.467,60.416,295.467,57.146z"/>
		<path fill="#FFFFFF" d="M303.662,61.521l2.303-2.948c1.982,2.303,5.299,4.422,9.629,4.422c5.48,0,7.232-2.948,7.232-5.344
			c0-7.923-18.197-3.501-18.197-14.464c0-5.067,4.516-8.568,10.596-8.568c4.652,0,8.293,1.612,10.871,4.33l-2.303,2.81
			c-2.303-2.58-5.527-3.685-8.891-3.685c-3.639,0-6.311,1.981-6.311,4.883c0,6.91,18.195,2.948,18.195,14.418
			c0,4.423-3.041,9.029-11.332,9.029C310.158,66.404,306.195,64.377,303.662,61.521z"/>
	</g>
	<path fill="#FFFFFF" d="M49.5,8.065L11,30.532v44.935l38.499,22.468L88,75.467V30.532L49.5,8.065z M70,65.563L49,78.13L28,65.566
		V40.437L49,27.87l21,12.567V65.563z"/>
	<path fill="#FFFFFF" d="M58.081,56.796"/>
	<path fill="#FFFFFF" d="M103.806,44.326"/>
</g>
</svg>
