<?xml version="1.0" encoding="iso-8859-1"?>
<!-- Generator: Adobe Illustrator 19.0.0, SVG Export Plug-In . SVG Version: 6.00 Build 0)  -->
<svg version="1.1" id="Layer_1" xmlns="http://www.w3.org/2000/svg" xmlns:xlink="http://www.w3.org/1999/xlink" x="0px" y="0px"
	 width="50px" height="50px" viewBox="0 0 50 50" style="enable-background:new 0 0 50 50;" xml:space="preserve">
<g>
	<path style="fill:#FFFFFF;" d="M47.167,18.148h-2.008v-5.646h-1.615V9.277H21.039l-2.882-4.032H3.015
		c-1.218,0-2.205,0.988-2.205,2.204v35.227h0.004c-0.004,0.453,0.138,0.897,0.421,1.268c0.393,0.515,0.992,0.81,1.642,0.81h36.092
		c0.933,0,1.753-0.626,1.977-1.461l8.245-22.608v-0.145C49.19,19.156,48.34,18.148,47.167,18.148L47.167,18.148z M43.544,18.148
		h-6.449V17.34c0-0.444-0.362-0.807-0.807-0.807c-0.445,0-0.807,0.363-0.807,0.807v0.807h-4.032V17.34
		c0-0.444-0.358-0.807-0.802-0.807c-0.445,0-0.807,0.363-0.807,0.807v0.807h-4.032V17.34c0-0.444-0.363-0.807-0.807-0.807
		s-0.807,0.363-0.807,0.807v0.807h-4.032V17.34c0-0.444-0.362-0.807-0.807-0.807c-0.445,0-0.802,0.363-0.802,0.807v0.807h-4.032
		V17.34c0-0.444-0.363-0.807-0.807-0.807c-0.446,0-0.807,0.363-0.807,0.807v0.807h-1.83c-0.115,0-0.229,0.008-0.339,0.027
		c-0.402,0.068-0.768,0.252-1.055,0.516v-4.575h33.864V18.148z M4.841,31.286V18.955h4.591c-0.15,0.193-0.268,0.413-0.331,0.653
		l-0.256,0.701L4.841,31.286z M8.066,17.34H5.983l0.473-0.473l1.61-1.614V17.34z M41.934,10.891v1.61H8.538l-2.082,2.087v-3.697
		H41.934z M2.424,7.449c0-0.327,0.263-0.59,0.591-0.59h14.312l1.729,2.417H4.841v6.921l-1.615,1.615v17.808l-0.802,2.2V7.449z
		 M39.41,42.807c-0.055,0.197-0.237,0.339-0.441,0.339H2.877c-0.194,0-0.311-0.115-0.359-0.181c-0.05-0.068-0.13-0.205-0.102-0.327
		l0.81-2.225l7.387-20.249l0.023-0.068c0.051-0.197,0.232-0.339,0.437-0.339h36.092c0.307,0,0.386,0.441,0.406,0.662L39.41,42.807z
		 M39.41,42.807"/>
</g>
<g id="XMLID_9_">
</g>
<g id="XMLID_10_">
</g>
<g id="XMLID_11_">
</g>
<g id="XMLID_12_">
</g>
<g id="XMLID_13_">
</g>
<g id="XMLID_14_">
</g>
</svg>
