<?xml version="1.0" encoding="iso-8859-1"?>
<!-- Generator: Adobe Illustrator 19.0.0, SVG Export Plug-In . SVG Version: 6.00 Build 0)  -->
<svg version="1.1" id="Layer_1" xmlns="http://www.w3.org/2000/svg" xmlns:xlink="http://www.w3.org/1999/xlink" x="0px" y="0px"
	 width="50px" height="50px" viewBox="0 0 50 50" style="enable-background:new 0 0 50 50;" xml:space="preserve">
<circle id="XMLID_1_" style="fill:#FFFFFF;stroke:#FFFFFF;stroke-miterlimit:10;" cx="25" cy="25" r="6.122"/>
<g id="XMLID_2_">
	<g id="XMLID_55_">
		
			<line id="XMLID_58_" style="fill:none;stroke:#FFFFFF;stroke-width:0.75;stroke-miterlimit:10;" x1="25" y1="1.333" x2="25" y2="11.796"/>
		<g id="XMLID_56_">
			<polygon id="XMLID_57_" style="fill:#FFFFFF;" points="25,17.092 21.951,9.63 25,11.401 28.048,9.63 			"/>
		</g>
	</g>
</g>
<g id="XMLID_3_">
	<g id="XMLID_50_">
		
			<line id="XMLID_53_" style="fill:none;stroke:#FFFFFF;stroke-width:0.75;stroke-miterlimit:10;" x1="41.279" y1="6.824" x2="35.154" y2="15.307"/>
		<g id="XMLID_51_">
			<polygon id="XMLID_52_" style="fill:#FFFFFF;" points="32.054,19.601 33.95,11.766 35.386,14.986 38.894,15.335 			"/>
		</g>
	</g>
</g>
<g id="XMLID_4_">
	<g id="XMLID_45_">
		
			<line id="XMLID_48_" style="fill:none;stroke:#FFFFFF;stroke-width:0.75;stroke-miterlimit:10;" x1="48.466" y1="24.861" x2="38.003" y2="24.974"/>
		<g id="XMLID_46_">
			<polygon id="XMLID_47_" style="fill:#FFFFFF;" points="32.708,25.03 40.137,21.901 38.399,24.969 40.202,27.999 			"/>
		</g>
	</g>
</g>
<g id="XMLID_6_">
	<g id="XMLID_40_">
		
			<line id="XMLID_43_" style="fill:none;stroke:#FFFFFF;stroke-width:0.75;stroke-miterlimit:10;" x1="1" y1="25.03" x2="11.462" y2="24.918"/>
		<g id="XMLID_41_">
			<polygon id="XMLID_42_" style="fill:#FFFFFF;" points="16.758,24.861 9.329,27.99 11.067,24.922 9.263,21.893 			"/>
		</g>
	</g>
</g>
<g id="XMLID_5_">
	<g id="XMLID_35_">
		
			<line id="XMLID_38_" style="fill:none;stroke:#FFFFFF;stroke-width:0.75;stroke-miterlimit:10;" x1="10.054" y1="45" x2="16.179" y2="36.517"/>
		<g id="XMLID_36_">
			<polygon id="XMLID_37_" style="fill:#FFFFFF;" points="19.279,32.224 17.383,40.058 15.947,36.838 12.439,36.489 			"/>
		</g>
	</g>
</g>
<g id="XMLID_7_">
	<g id="XMLID_30_">
		
			<line id="XMLID_33_" style="fill:none;stroke:#FFFFFF;stroke-width:0.75;stroke-miterlimit:10;" x1="25" y1="49" x2="25" y2="38.537"/>
		<g id="XMLID_31_">
			<polygon id="XMLID_32_" style="fill:#FFFFFF;" points="25,33.241 28.049,40.703 25,38.933 21.952,40.703 			"/>
		</g>
	</g>
</g>
<g id="XMLID_8_">
	<g id="XMLID_25_">
		
			<line id="XMLID_28_" style="fill:none;stroke:#FFFFFF;stroke-width:0.75;stroke-miterlimit:10;" x1="8.056" y1="6.482" x2="15.025" y2="14.286"/>
		<g id="XMLID_26_">
			<polygon id="XMLID_27_" style="fill:#FFFFFF;" points="18.553,18.236 11.308,14.701 14.762,13.991 15.856,10.64 			"/>
		</g>
	</g>
</g>
<g id="XMLID_9_">
	<g id="XMLID_20_">
		
			<line id="XMLID_23_" style="fill:none;stroke:#FFFFFF;stroke-width:0.75;stroke-miterlimit:10;" x1="41.553" y1="43.236" x2="34.583" y2="35.432"/>
		<g id="XMLID_21_">
			<polygon id="XMLID_22_" style="fill:#FFFFFF;" points="31.056,31.482 38.3,35.017 34.847,35.727 33.753,39.078 			"/>
		</g>
	</g>
</g>
<g id="XMLID_10_">
</g>
<g id="XMLID_11_">
</g>
<g id="XMLID_12_">
</g>
<g id="XMLID_13_">
</g>
<g id="XMLID_14_">
</g>
<g id="XMLID_15_">
</g>
<g id="XMLID_16_">
</g>
</svg>
