<?xml version="1.0" encoding="iso-8859-1"?>
<!-- Generator: Adobe Illustrator 19.0.0, SVG Export Plug-In . SVG Version: 6.00 Build 0)  -->
<svg version="1.1" id="Layer_1" xmlns="http://www.w3.org/2000/svg" xmlns:xlink="http://www.w3.org/1999/xlink" x="0px" y="0px"
	 width="50px" height="50px" viewBox="0 0 50 50" style="enable-background:new 0 0 50 50;" xml:space="preserve">
<g>
	<path style="fill:#FFFFFF;" d="M31.228,22.988l-5.449,1.224v-6.405c-0.509,0.121-1.048,0.118-1.556-0.002v6.407l-6.351-1.426
		c-0.009,0.264-0.047,0.525-0.117,0.779l1.018,1.018l4.966,1.115l-0.889,1.367c0.517,0.138,0.985,0.397,1.372,0.745L25,26.612
		l3.128,4.814l2.371,1.199c0.063-0.039,0.129-0.073,0.195-0.107l-4.431-6.819l5.517-1.239
		C31.484,24.024,31.293,23.521,31.228,22.988L31.228,22.988z M31.228,22.988"/>
	<path style="fill:#FFFFFF;" d="M25,2L0.816,19.57L10.054,48h29.893l9.237-28.43L25,2z M38.034,43.813l-3.713-5.714
		c-0.409,0.325-0.894,0.558-1.425,0.664l3.981,6.125H13.124l7.497-11.537c-0.484-0.217-0.907-0.546-1.237-0.954l-7.419,11.416
		L4.691,21.422l6.501,1.46c-0.004-0.068-0.007-0.137-0.007-0.207c0-0.472,0.099-0.921,0.275-1.328L5.507,20.01L24.222,6.413v4.888
		c0.25-0.06,0.51-0.092,0.778-0.092s0.528,0.032,0.778,0.092V6.413L44.493,20.01l-6.771,1.52c0.111,0.331,0.171,0.686,0.171,1.054
		c0,0.174-0.014,0.344-0.039,0.512l7.455-1.674L38.034,43.813z M38.034,43.813"/>
	<path style="fill:#FFFFFF;" d="M34.5,20.287c-0.443,0-0.857,0.126-1.208,0.343l-6.196-5.211c0.105-0.264,0.164-0.552,0.164-0.854
		c0-1.273-1.035-2.308-2.308-2.308c-1.272,0-2.307,1.036-2.307,2.308c0,0.277,0.049,0.543,0.139,0.789l-6.928,5.478
		c-0.384-0.285-0.859-0.454-1.373-0.454c-1.273,0-2.308,1.036-2.308,2.308c0,1.273,1.035,2.308,2.308,2.308
		c0.329,0,0.642-0.07,0.926-0.195l4.47,4.475c-0.157,0.312-0.246,0.663-0.246,1.036c0,1.273,1.035,2.308,2.308,2.308
		c0.633,0,1.208-0.257,1.626-0.672l6.345,3.208c-0.017,0.111-0.025,0.225-0.025,0.34c0,1.272,1.035,2.307,2.308,2.307
		c1.272,0,2.308-1.035,2.308-2.307c0-0.874-0.489-1.636-1.207-2.028l1.536-8.587c1.117-0.16,1.978-1.123,1.978-2.284
		C36.807,21.322,35.772,20.287,34.5,20.287L34.5,20.287z M31.862,33.209c-0.502,0.072-0.953,0.306-1.296,0.648l-6.345-3.209
		c0.016-0.111,0.025-0.225,0.025-0.34c0-1.273-1.035-2.308-2.307-2.308c-0.371,0-0.723,0.089-1.034,0.246l-4.417-4.422
		c0.192-0.336,0.301-0.725,0.301-1.139c0-0.23-0.034-0.453-0.097-0.663l6.993-5.53c0.364,0.24,0.799,0.381,1.267,0.381
		c0.443,0,0.857-0.126,1.208-0.343l6.196,5.211c-0.105,0.264-0.164,0.552-0.164,0.854c0,0.874,0.488,1.636,1.207,2.028
		L31.862,33.209z M31.862,33.209"/>
</g>
<g id="XMLID_9_">
</g>
<g id="XMLID_10_">
</g>
<g id="XMLID_11_">
</g>
<g id="XMLID_12_">
</g>
<g id="XMLID_13_">
</g>
<g id="XMLID_14_">
</g>
</svg>
