<?xml version="1.0" encoding="iso-8859-1"?>
<!-- Generator: Adobe Illustrator 19.0.0, SVG Export Plug-In . SVG Version: 6.00 Build 0)  -->
<svg version="1.1" id="Layer_1" xmlns="http://www.w3.org/2000/svg" xmlns:xlink="http://www.w3.org/1999/xlink" x="0px" y="0px"
	 width="50px" height="50px" viewBox="0 0 50 50" style="enable-background:new 0 0 50 50;" xml:space="preserve">
<g>
	<path style="fill:#FFFFFF;" d="M25,0.619C11.556,0.619,0.619,11.556,0.619,25S11.556,49.381,25,49.381S49.381,38.444,49.381,25
		S38.444,0.619,25,0.619L25,0.619z M25,47.349C12.676,47.349,2.651,37.324,2.651,25S12.676,2.651,25,2.651S47.349,12.676,47.349,25
		S37.324,47.349,25,47.349L25,47.349z M25,47.349"/>
	<path style="fill:#FFFFFF;" d="M42.27,20.429h-2.749c-0.269-0.858-0.61-1.683-1.019-2.466l1.946-1.946
		c0.383-0.384,0.595-0.893,0.595-1.435c0-0.542-0.211-1.052-0.595-1.435l-3.596-3.596c-0.383-0.383-0.893-0.595-1.435-0.595
		c-0.542,0-1.051,0.211-1.435,0.595l-1.946,1.946c-0.783-0.409-1.608-0.75-2.465-1.019V7.73c0-1.121-0.912-2.032-2.032-2.032H22.46
		c-1.121,0-2.032,0.911-2.032,2.032v2.749c-0.858,0.269-1.683,0.61-2.466,1.019l-1.946-1.946c-0.384-0.383-0.893-0.595-1.435-0.595
		c-0.542,0-1.052,0.211-1.435,0.595l-3.596,3.596c-0.383,0.383-0.595,0.893-0.595,1.435c0,0.542,0.211,1.051,0.595,1.435
		l1.946,1.946c-0.409,0.783-0.75,1.608-1.019,2.465H7.73c-1.121,0-2.032,0.912-2.032,2.032v5.079c0,1.121,0.911,2.032,2.032,2.032
		h2.749c0.269,0.858,0.61,1.683,1.019,2.466l-1.946,1.946c-0.383,0.384-0.595,0.893-0.595,1.435c0,0.542,0.211,1.052,0.595,1.435
		l3.596,3.596c0.383,0.383,0.893,0.595,1.435,0.595c0.542,0,1.051-0.211,1.435-0.595l1.946-1.946
		c0.784,0.409,1.609,0.75,2.466,1.019v2.749c0,1.121,0.911,2.032,2.032,2.032h5.079c1.121,0,2.032-0.911,2.032-2.032v-2.749
		c0.858-0.269,1.683-0.61,2.466-1.019l1.946,1.946c0.384,0.383,0.893,0.595,1.435,0.595c0.542,0,1.052-0.211,1.435-0.595
		l3.596-3.596c0.383-0.383,0.595-0.893,0.595-1.435c0-0.542-0.211-1.051-0.595-1.435l-1.946-1.946
		c0.409-0.783,0.75-1.608,1.019-2.465h2.749c1.121,0,2.032-0.912,2.032-2.032V22.46C44.302,21.34,43.391,20.429,42.27,20.429
		L42.27,20.429z M42.27,27.54h-3.515c-0.463,0-0.868,0.314-0.984,0.762c-0.311,1.209-0.784,2.35-1.403,3.392
		c-0.237,0.399-0.174,0.909,0.155,1.238l2.489,2.485l-3.592,3.596l-2.489-2.489c-0.329-0.329-0.838-0.392-1.238-0.155
		c-1.042,0.619-2.183,1.091-3.391,1.403c-0.449,0.116-0.762,0.52-0.762,0.984v3.515H22.46v-3.515c0-0.463-0.314-0.868-0.762-0.984
		c-1.209-0.312-2.35-0.784-3.391-1.403c-0.161-0.096-0.341-0.143-0.519-0.143c-0.263,0-0.523,0.102-0.719,0.298l-2.485,2.489
		l-3.596-3.592l2.489-2.489c0.328-0.329,0.392-0.838,0.155-1.238c-0.619-1.042-1.091-2.183-1.403-3.392
		c-0.116-0.449-0.52-0.762-0.984-0.762H7.73V22.46h3.514c0.464,0,0.868-0.314,0.984-0.762c0.311-1.209,0.784-2.35,1.403-3.392
		c0.238-0.399,0.174-0.909-0.155-1.238l-2.489-2.485l3.592-3.596l2.489,2.489c0.329,0.329,0.839,0.392,1.238,0.155
		c1.042-0.619,2.183-1.091,3.392-1.403c0.449-0.116,0.762-0.52,0.762-0.984V7.73h5.079v3.514c0,0.464,0.314,0.868,0.762,0.984
		c1.209,0.311,2.35,0.784,3.392,1.403c0.399,0.238,0.909,0.174,1.238-0.155l2.485-2.489l3.596,3.592l-2.489,2.489
		c-0.328,0.329-0.392,0.838-0.155,1.238c0.619,1.042,1.091,2.183,1.403,3.392c0.116,0.449,0.52,0.762,0.984,0.762h3.515V27.54z
		 M42.27,27.54"/>
	<path style="fill:#FFFFFF;" d="M34.304,30.331l-4.064-3.556l-1.338,1.529l2.029,1.775H25c-2.801,0-5.079-2.279-5.079-5.079h-2.032
		c0,3.921,3.19,7.111,7.111,7.111h5.931l-2.029,1.775l1.338,1.529l4.064-3.556c0.22-0.193,0.347-0.471,0.347-0.764
		C34.651,30.803,34.524,30.524,34.304,30.331L34.304,30.331z M34.304,30.331"/>
	<path style="fill:#FFFFFF;" d="M21.098,21.695l-2.029-1.775H25c2.801,0,5.079,2.279,5.079,5.079h2.032
		c0-3.921-3.19-7.111-7.111-7.111h-5.931l2.029-1.775l-1.338-1.529l-4.064,3.556c-0.22,0.193-0.347,0.471-0.347,0.764
		c0,0.293,0.126,0.571,0.347,0.764l4.064,3.556L21.098,21.695z M21.098,21.695"/>
</g>
<g id="XMLID_11_">
</g>
<g id="XMLID_12_">
</g>
<g id="XMLID_13_">
</g>
<g id="XMLID_14_">
</g>
<g id="XMLID_15_">
</g>
<g id="XMLID_16_">
</g>
</svg>
