<?xml version="1.0" encoding="iso-8859-1"?>
<!-- Generator: Adobe Illustrator 19.0.0, SVG Export Plug-In . SVG Version: 6.00 Build 0)  -->
<svg version="1.1" id="Layer_1" xmlns="http://www.w3.org/2000/svg" xmlns:xlink="http://www.w3.org/1999/xlink" x="0px" y="0px"
	 width="100px" height="100px" viewBox="0 0 100 100" style="enable-background:new 0 0 100 100;" xml:space="preserve">
<g id="XMLID_9_">
	<path style="fill:#388BCA;" d="M50.19,18.389c-17.325,0-31.802,14.095-31.802,31.421S32.865,81.611,50.19,81.611
		S81.611,67.135,81.611,49.81S67.516,18.389,50.19,18.389z M55.903,64.092h-2.856v2.856c0,3.765-5.713,3.781-5.713,0v-2.856h-8.569
		c-3.765,0-3.781-5.713,0-5.713h2.856V41.24h-2.856c-3.765,0-3.781-5.713,0-5.713h8.569v-2.856c0-3.765,5.713-3.781,5.713,0v2.856
		h2.856c7.332,0,11.362,8.714,6.341,14.282C67.265,55.378,63.235,64.092,55.903,64.092z"/>
	<path id="XMLID_6_" style="fill:#388BCA;" d="M55.903,52.666h-8.569v5.713h8.569C59.679,58.379,59.679,52.666,55.903,52.666z"/>
	<path id="XMLID_5_" style="fill:#388BCA;" d="M55.903,41.24h-8.569v5.713h8.569C59.679,46.953,59.679,41.24,55.903,41.24z"/>
	<path id="XMLID_4_" style="fill:#388BCA;" d="M15.532,29.814c-4.725,0-8.569-3.844-8.569-8.569s3.844-8.569,8.569-8.569
		s8.569,3.844,8.569,8.569S20.258,29.814,15.532,29.814z"/>
	<path id="XMLID_3_" style="fill:#388BCA;" d="M27.454,13.417c6.69-4.129,14.731-6.492,22.736-6.492
		c23.627,0,42.885,19.258,42.885,42.885c0,5.335-1.093,10.92-3.018,15.807c1.841,0.786,3.457,1.969,4.806,3.41
		c2.53-5.924,3.886-12.682,3.886-19.217c0-26.776-21.783-48.56-48.56-48.56c-9.55,0-19.092,2.847-26.94,8.013
		C24.923,10.345,26.358,11.754,27.454,13.417z"/>
	<path id="XMLID_2_" style="fill:#388BCA;" d="M72.546,86.583c-6.69,4.129-14.35,6.492-22.355,6.492
		c-23.627,0-43.266-19.639-43.266-43.266c0-5.335,1.093-10.539,3.018-15.426c-1.841-0.786-3.458-1.969-4.807-3.41
		C2.606,36.897,1.25,43.655,1.25,50.19c0,26.776,22.164,48.56,48.94,48.56c9.55,0,18.711-2.847,26.559-8.013
		C75.077,89.655,73.642,88.246,72.546,86.583z"/>
	<path id="XMLID_1_" style="fill:#388BCA;" d="M84.468,87.324c-4.725,0-8.569-3.844-8.569-8.569s3.844-8.569,8.569-8.569
		s8.569,3.844,8.569,8.569S89.193,87.324,84.468,87.324z"/>
</g>
<g id="XMLID_10_">
</g>
<g id="XMLID_11_">
</g>
<g id="XMLID_12_">
</g>
<g id="XMLID_13_">
</g>
<g id="XMLID_14_">
</g>
<g id="XMLID_15_">
</g>
</svg>
