<?xml version="1.0" encoding="utf-8"?>
<!-- Generator: Adobe Illustrator 19.0.0, SVG Export Plug-In . SVG Version: 6.00 Build 0)  -->
<svg version="1.1" id="Layer_1" xmlns="http://www.w3.org/2000/svg" xmlns:xlink="http://www.w3.org/1999/xlink" x="0px" y="0px"
	 width="100px" height="100px" viewBox="0 0 100 100" style="enable-background:new 0 0 100 100;" xml:space="preserve">
<style type="text/css">
	.st0{clip-path:url(#XMLID_25_);}
</style>
<g id="XMLID_24_">
	<g id="XMLID_42_">
		<defs>
			<rect id="XMLID_15_" x="2.1" y="1.2" width="95.8" height="97.5"/>
		</defs>
		<clipPath id="XMLID_25_">
			<use xlink:href="#XMLID_15_"  style="overflow:visible;"/>
		</clipPath>
		<path id="XMLID_49_" class="st0" d="M16.9,29c0,4.9,4,8.9,8.9,8.9c4.9,0,8.9-4,8.9-8.9c0-4.9-4-8.9-8.9-8.9
			C20.9,20.2,16.9,24.1,16.9,29L16.9,29z M31.7,29c0,3.3-2.6,5.9-5.9,5.9c-3.3,0-5.9-2.7-5.9-5.9c0-3.3,2.6-5.9,5.9-5.9
			C29,23.1,31.7,25.8,31.7,29L31.7,29z M31.7,29"/>
		<path id="XMLID_44_" class="st0" d="M47.5,44.8l10.3-10.3c0.6-0.6,0.6-1.5,0-2.1L53.4,28c-0.5-0.5-1.4-0.6-2-0.1l-10.2,8.7
			l-9.9,4.2H13.9c-0.4,0-0.8,0.2-1.1,0.5L2.5,53.2c-0.3,0.4-0.5,0.9-0.3,1.4l4.4,13.3c0.1,0.4,0.4,0.7,0.8,0.9
			c0.4,0.2,0.8,0.2,1.2,0l5.9-3c0.5-0.3,0.8-0.8,0.8-1.3v25.1c0,4.1,3.3,7.4,7.4,7.4h11.8c0.8,0,1.5-0.7,1.5-1.5V50.6l11-5.5
			C47.3,45,47.4,45,47.5,44.8L47.5,44.8z M15.4,64.5c0-0.2,0-0.4-0.1-0.5l-2.6-6.6l2.7-3.4V64.5z M34,48.4c-0.5,0.3-0.8,0.8-0.8,1.3
			V94h-5.9V70.4c0-0.8-0.7-1.5-1.5-1.5c-0.8,0-1.5,0.7-1.5,1.5V94h-1.5c-2.4,0-4.4-2-4.4-4.4V49.7c0-0.6-0.4-1.2-1-1.4
			c-0.6-0.2-1.3,0-1.6,0.5l-5.9,7.4c-0.3,0.4-0.4,1-0.2,1.5l2.5,6.1l-3.2,1.6L5.3,54.5l9.3-10.7h17.1c0.2,0,0.4,0,0.6-0.1l10.3-4.4
			c0.1-0.1,0.3-0.1,0.4-0.2l9.3-8l2.4,2.4l-9.1,9.1L34,48.4z M34,48.4"/>
	</g>
	<path id="XMLID_39_" d="M22.8,49.7h1.5v11.8h3V49.7h1.5v-3h-5.9V49.7z M22.8,49.7"/>
	<path id="XMLID_36_" d="M95.2,2.4H40.5c-0.8,0-1.5,0.7-1.5,1.5V32h3V5.4h51.7v39.9c0,2.4-2,4.4-4.4,4.4H43.5v2.9h45.8
		c4.1,0,7.4-3.3,7.4-7.4V3.9C96.7,3.1,96,2.4,95.2,2.4L95.2,2.4z M95.2,2.4"/>
	<path id="XMLID_29_" d="M64.2,9.8H49.4c-0.8,0-1.5,0.7-1.5,1.5v5.9c0,0.8,0.7,1.5,1.5,1.5h14.8c0.8,0,1.5-0.7,1.5-1.5v-1.5h4.4v1.5
		c0,0.8,0.7,1.5,1.5,1.5h5.9v4.4h-5.9c-0.8,0-1.5,0.7-1.5,1.5v5.9c0,0.8,0.7,1.5,1.5,1.5h5.9v4.4h-5.9c-0.8,0-1.5,0.7-1.5,1.5v5.9
		c0,0.8,0.7,1.5,1.5,1.5h14.8c0.8,0,1.5-0.7,1.5-1.5v-5.9c0-0.8-0.7-1.5-1.5-1.5h-5.9V32h5.9c0.8,0,1.5-0.7,1.5-1.5v-5.9
		c0-0.8-0.7-1.5-1.5-1.5h-5.9v-4.4h5.9c0.8,0,1.5-0.7,1.5-1.5v-5.9c0-0.8-0.7-1.5-1.5-1.5H71.6c-0.8,0-1.5,0.7-1.5,1.5v1.5h-4.4
		v-1.5C65.7,10.5,65,9.8,64.2,9.8L64.2,9.8z M62.7,15.7H50.9v-2.9h11.8V15.7z M84.9,42.3H73v-3h11.8V42.3z M84.9,29H73v-2.9h11.8V29
		z M73,12.8h11.8v2.9H73V12.8z M73,12.8"/>
	<rect id="XMLID_4_" x="49.4" y="21.6" width="16.2" height="3"/>
	<rect id="XMLID_3_" x="59.8" y="27.5" width="5.9" height="3"/>
	<rect id="XMLID_2_" x="61.2" y="33.5" width="4.4" height="3"/>
	<rect id="XMLID_1_" x="56.8" y="39.4" width="8.9" height="3"/>
</g>
</svg>
