<?xml version="1.0" encoding="utf-8"?>
<!-- Generator: Adobe Illustrator 19.0.0, SVG Export Plug-In . SVG Version: 6.00 Build 0)  -->
<svg version="1.1" id="Layer_1" xmlns="http://www.w3.org/2000/svg" xmlns:xlink="http://www.w3.org/1999/xlink" x="0px" y="0px"
	 width="100px" height="100px" viewBox="0 0 100 100" style="enable-background:new 0 0 100 100;" xml:space="preserve">
<g>
	<g>
		<g>
			<path id="XMLID_32_" d="M68.7,97.6H7.6c-3.3,0-5.9-2.6-5.9-5.9V8.3c0-3.3,2.6-5.9,5.9-5.9h61.1c3.3,0,5.9,2.6,5.9,5.9v31.4
				c0,0.4-0.3,0.7-0.7,0.7c-0.4,0-0.7-0.3-0.7-0.7V8.3c0-2.5-2-4.5-4.5-4.5H7.6c-2.5,0-4.5,2-4.5,4.5v83.4c0,2.5,2,4.5,4.5,4.5h61.1
				c2.5,0,4.5-2,4.5-4.5V59.3c0-0.4,0.3-0.7,0.7-0.7c0.4,0,0.7,0.3,0.7,0.7v32.4C74.6,95,72,97.6,68.7,97.6z"/>
		</g>
		<g>
			<g>
				<path id="XMLID_29_" d="M92.3,41.6c-0.2,0-0.4-0.1-0.5-0.2L82,31.6c-0.3-0.3-0.3-0.7,0-1l5.2-5.2c0.3-0.3,0.7-0.3,1,0l9.8,9.8
					c0.3,0.3,0.3,0.7,0,1l-5.2,5.2C92.7,41.5,92.5,41.6,92.3,41.6z M83.5,31l8.8,8.8l4.2-4.2l-8.8-8.8L83.5,31z"/>
			</g>
			<g>
				<path id="XMLID_26_" d="M53.1,80.8c-0.2,0-0.4-0.1-0.5-0.2l-9.8-9.8c-0.3-0.3-0.3-0.7,0-1L82,30.5c0.3-0.3,0.7-0.3,1,0l9.8,9.8
					c0.1,0.1,0.2,0.3,0.2,0.5s-0.1,0.4-0.2,0.5L53.6,80.6C53.5,80.7,53.3,80.8,53.1,80.8z M44.3,70.3l8.8,8.8l38.2-38.2l-8.8-8.8
					L44.3,70.3z"/>
			</g>
			<g>
				<path id="XMLID_23_" d="M39.8,84.3c-0.2,0-0.4-0.1-0.5-0.2c-0.2-0.2-0.3-0.4-0.2-0.7l3.5-13.3c0.1-0.2,0.3-0.4,0.5-0.5
					c0.2-0.1,0.5,0,0.7,0.2l9.8,9.8c0.2,0.2,0.3,0.4,0.2,0.7c-0.1,0.2-0.3,0.4-0.5,0.5L40,84.3C39.9,84.3,39.8,84.3,39.8,84.3z
					 M43.7,71.7l-2.9,10.9l10.9-2.9L43.7,71.7z"/>
			</g>
		</g>
	</g>
	<g>
		<path id="XMLID_22_" d="M50,19.2H26.3c-0.4,0-0.7-0.3-0.7-0.7c0-0.4,0.3-0.7,0.7-0.7H50c0.4,0,0.7,0.3,0.7,0.7
			C50.7,18.9,50.4,19.2,50,19.2z"/>
	</g>
	<g>
		<path id="XMLID_18_" d="M56.9,31.8H45.2c-0.4,0-0.7-0.3-0.7-0.7c0-0.4,0.3-0.7,0.7-0.7h11.7c0.4,0,0.7,0.3,0.7,0.7
			C57.6,31.4,57.3,31.8,56.9,31.8z M33.5,31.8H32c-0.4,0-0.7-0.3-0.7-0.7c0-0.4,0.3-0.7,0.7-0.7h1.5c0.4,0,0.7,0.3,0.7,0.7
			C34.2,31.4,33.9,31.8,33.5,31.8z M24.7,31.8H13c-0.4,0-0.7-0.3-0.7-0.7c0-0.4,0.3-0.7,0.7-0.7h11.7c0.4,0,0.7,0.3,0.7,0.7
			C25.4,31.4,25.1,31.8,24.7,31.8z"/>
	</g>
	<g>
		<path id="XMLID_14_" d="M56.9,44.3H45.2c-0.4,0-0.7-0.3-0.7-0.7s0.3-0.7,0.7-0.7h11.7c0.4,0,0.7,0.3,0.7,0.7S57.3,44.3,56.9,44.3z
			 M33.5,44.3H32c-0.4,0-0.7-0.3-0.7-0.7s0.3-0.7,0.7-0.7h1.5c0.4,0,0.7,0.3,0.7,0.7S33.9,44.3,33.5,44.3z M24.7,44.3H13
			c-0.4,0-0.7-0.3-0.7-0.7s0.3-0.7,0.7-0.7h11.7c0.4,0,0.7,0.3,0.7,0.7S25.1,44.3,24.7,44.3z"/>
	</g>
	<g>
		<path id="XMLID_10_" d="M57.5,56.8H45.8c-0.4,0-0.7-0.3-0.7-0.7s0.3-0.7,0.7-0.7h11.7c0.4,0,0.7,0.3,0.7,0.7S57.9,56.8,57.5,56.8z
			 M38.5,56.8H37c-0.4,0-0.7-0.3-0.7-0.7s0.3-0.7,0.7-0.7h1.5c0.4,0,0.7,0.3,0.7,0.7S38.9,56.8,38.5,56.8z M25.3,56.8H13.6
			c-0.4,0-0.7-0.3-0.7-0.7s0.3-0.7,0.7-0.7h11.7c0.4,0,0.7,0.3,0.7,0.7S25.7,56.8,25.3,56.8z"/>
	</g>
	<g>
		<path id="XMLID_7_" d="M45,69.3H33.2c-0.4,0-0.7-0.3-0.7-0.7c0-0.4,0.3-0.7,0.7-0.7H45c0.4,0,0.7,0.3,0.7,0.7
			C45.7,69,45.4,69.3,45,69.3z M25.9,69.3h-1.5c-0.4,0-0.7-0.3-0.7-0.7c0-0.4,0.3-0.7,0.7-0.7h1.5c0.4,0,0.7,0.3,0.7,0.7
			C26.6,69,26.3,69.3,25.9,69.3z"/>
	</g>
	<g>
		<path id="XMLID_6_" d="M63.3,81.9H49.1c-0.4,0-0.7-0.3-0.7-0.7c0-0.4,0.3-0.7,0.7-0.7h14.3c0.4,0,0.7,0.3,0.7,0.7
			C64.1,81.5,63.7,81.9,63.3,81.9z"/>
	</g>
	<g>
		<path id="XMLID_3_" d="M40.4,81.9H28.7c-0.4,0-0.7-0.3-0.7-0.7c0-0.4,0.3-0.7,0.7-0.7h11.7c0.4,0,0.7,0.3,0.7,0.7
			C41.1,81.5,40.8,81.9,40.4,81.9z M21.4,81.9h-1.5c-0.4,0-0.7-0.3-0.7-0.7c0-0.4,0.3-0.7,0.7-0.7h1.5c0.4,0,0.7,0.3,0.7,0.7
			C22.1,81.5,21.8,81.9,21.4,81.9z"/>
	</g>
</g>
</svg>
