<?xml version="1.0" encoding="iso-8859-1"?>
<!-- Generator: Adobe Illustrator 19.0.0, SVG Export Plug-In . SVG Version: 6.00 Build 0)  -->
<svg version="1.1" id="Layer_1" xmlns="http://www.w3.org/2000/svg" xmlns:xlink="http://www.w3.org/1999/xlink" x="0px" y="0px"
	 width="100px" height="100px" viewBox="0 0 100 100" style="enable-background:new 0 0 100 100;" xml:space="preserve">
<g>
	<path style="fill:#388BCA;" d="M86.265,40.69c-0.022,0-0.044,0.011-0.074,0.011c-0.077,0-0.15-0.011-0.224-0.011H86.265z
		 M86.158,52.339c-0.022,0-0.033,0-0.044,0c-0.011,0-0.022,0-0.03,0H86.158z M81.893,48.055c0.011,0,0.022-0.011,0.033-0.011
		c0.673,2.427,2.416,4.254,4.188,4.295c1.614-0.074,3.592-1.869,4.254-4.295c0.298,0.022,0.599-0.331,0.684-0.834
		c0.085-0.512-0.096-0.982-0.405-1.037c-0.022-0.011-0.044,0.011-0.066,0.011c-0.085-4.008-1.986-5.428-4.391-5.482
		c-2.47,0.011-4.681,1.732-4.541,5.482c-0.033,0-0.055-0.022-0.077-0.011c-0.309,0.055-0.492,0.514-0.405,1.037
		C81.253,47.735,81.584,48.107,81.893,48.055L81.893,48.055z M89.449,53.034l-2.254,4.405l-0.353-2.864l0.555-0.46h-2.574
		l0.555,0.46l-0.353,2.864l-2.243-4.405c-3.901,0.525-6.703,2.202-6.703,6.262h20.069C96.149,55.236,93.35,53.559,89.449,53.034
		L89.449,53.034z M13.746,40.69c0.077,0,0.151,0.011,0.224,0.011c0.022,0,0.055-0.011,0.077-0.011H13.746z M13.929,52.339
		c-0.011,0-0.022,0-0.044,0c0,0-0.011,0-0.022,0H13.929z M9.675,48.055c0.011,0,0.022-0.011,0.033-0.011
		c0.673,2.427,2.413,4.254,4.178,4.295c1.614-0.074,3.6-1.869,4.254-4.295c0.309,0.022,0.607-0.331,0.695-0.834
		c0.085-0.512-0.099-0.982-0.408-1.037c-0.022-0.011-0.044,0.011-0.063,0.011c-0.096-4.008-2-5.428-4.394-5.482
		c-2.468,0.011-4.692,1.732-4.552,5.482c-0.022,0-0.041-0.022-0.063-0.011c-0.312,0.055-0.503,0.514-0.408,1.037
		C9.035,47.735,9.355,48.107,9.675,48.055L9.675,48.055z M17.22,53.034l-2.246,4.405l-0.35-2.864l0.555-0.46h-2.577l0.555,0.46
		l-0.361,2.864l-2.235-4.405c-3.912,0.525-6.711,2.202-6.711,6.262H23.92C23.931,55.236,21.119,53.559,17.22,53.034L17.22,53.034z
		 M49.855,2.809c0.077,0,0.15,0,0.224,0.011c0.022,0,0.055-0.011,0.077-0.011H49.855z M50.038,14.457
		c-0.011,0-0.022-0.011-0.033-0.011c-0.011,0-0.022,0.011-0.033,0.011H50.038z M45.784,10.171c0.011-0.011,0.022-0.022,0.033-0.022
		c0.673,2.438,2.416,4.254,4.188,4.298c1.614-0.066,3.592-1.86,4.243-4.287c0.309,0.022,0.61-0.342,0.695-0.832
		c0.085-0.525-0.096-0.985-0.408-1.037c-0.019-0.011-0.041,0-0.063,0c-0.096-4.008-2-5.419-4.394-5.482
		C47.612,2.82,45.39,4.54,45.527,8.291c-0.019,0-0.041-0.011-0.063,0c-0.309,0.041-0.503,0.512-0.408,1.037
		C45.144,9.839,45.464,10.214,45.784,10.171L45.784,10.171z M53.329,15.141l-2.243,4.402l-0.353-2.864l0.555-0.46h-2.577l0.558,0.46
		l-0.353,2.864l-2.246-4.402c-3.909,0.523-6.711,2.199-6.711,6.273h20.08C60.04,17.341,57.241,15.664,53.329,15.141L53.329,15.141z
		 M49.855,78.586c0.077,0,0.15,0,0.224,0.011c0.022,0,0.055-0.011,0.077-0.011H49.855z M50.038,90.234c-0.011,0-0.022,0-0.033,0
		c-0.011,0-0.022,0-0.033,0H50.038z M45.538,84.079c-0.03,0-0.052-0.022-0.074-0.011c-0.309,0.052-0.492,0.511-0.408,1.037
		c0.087,0.512,0.408,0.897,0.728,0.843c0.011,0,0.022-0.008,0.033-0.019c0.673,2.435,2.416,4.262,4.178,4.306
		c1.614-0.077,3.603-1.871,4.254-4.295c0.309,0.019,0.61-0.334,0.695-0.834c0.085-0.525-0.096-0.985-0.419-1.037
		c-0.008-0.011-0.041,0.011-0.052,0.011c-0.096-4.019-2-5.43-4.394-5.493C47.612,78.608,45.401,80.317,45.538,84.079L45.538,84.079z
		 M53.329,90.918l-2.243,4.402l-0.353-2.864l0.555-0.449h-2.577l0.558,0.449l-0.353,2.864l-2.246-4.402
		c-3.909,0.533-6.711,2.202-6.711,6.273h20.08C60.04,93.121,57.241,91.452,53.329,90.918L53.329,90.918z M51.587,48.482
		c0.353-0.129,0.621-0.32,0.802-0.566c0.183-0.257,0.279-0.544,0.279-0.886c0-0.331-0.088-0.632-0.257-0.875
		c-0.17-0.235-0.416-0.419-0.747-0.514c-0.323-0.107-0.908-0.161-1.754-0.161h-1.434v3.195h1.434
		C50.668,48.673,51.223,48.61,51.587,48.482L51.587,48.482z M64.934,49.915c0,8.248-6.689,14.929-14.94,14.929
		c-8.24,0-14.929-6.681-14.929-14.929c0-8.251,6.689-14.929,14.929-14.929C58.256,34.986,64.934,41.664,64.934,49.915L64.934,49.915
		z M56.322,52.747c0-0.577-0.14-1.113-0.408-1.581c-0.276-0.471-0.651-0.845-1.122-1.102c-0.331-0.192-0.802-0.364-1.412-0.523
		c0.577-0.192,1.026-0.438,1.379-0.739c0.353-0.298,0.621-0.64,0.802-1.026c0.183-0.394,0.279-0.802,0.279-1.228
		c0-0.599-0.172-1.144-0.525-1.644c-0.35-0.503-0.853-0.878-1.505-1.144c-0.246-0.109-0.547-0.183-0.878-0.246v-2.309h-2.221v2.147
		h-1.423v-2.147h-2.221v2.147H43.68v1.817h0.512c0.353,0,0.588,0.033,0.706,0.096c0.118,0.055,0.202,0.14,0.257,0.246
		c0.052,0.107,0.074,0.364,0.074,0.75v7.307c0,0.386-0.022,0.621-0.074,0.739c-0.055,0.118-0.14,0.192-0.257,0.246
		c-0.129,0.063-0.353,0.096-0.706,0.096H43.68v1.806h3.387v2.158h2.221v-2.158h1.423v2.158h2.221v-2.328
		c0.375-0.077,0.695-0.161,0.985-0.279c0.769-0.309,1.357-0.758,1.773-1.335C56.117,54.082,56.322,53.442,56.322,52.747
		L56.322,52.747z M51.833,50.802c-0.364-0.14-0.919-0.202-1.655-0.202h-1.702v2.831c0.011,0.405,0.022,0.64,0.044,0.706
		c0.033,0.085,0.085,0.148,0.161,0.181c0.063,0.033,0.265,0.052,0.577,0.052h0.96c0.555,0,1.015-0.052,1.379-0.159
		c0.375-0.096,0.684-0.32,0.941-0.643c0.257-0.32,0.386-0.714,0.386-1.163c0-0.397-0.088-0.728-0.279-0.996
		C52.465,51.144,52.197,50.941,51.833,50.802L51.833,50.802z M75.524,51.089H68.92c-0.588,9.553-8.259,17.194-17.823,17.752v6.689
		c0,0.599-0.492,1.089-1.102,1.089c-0.599,0-1.089-0.49-1.089-1.089v-6.689c-9.564-0.547-17.238-8.199-17.826-17.752h-6.604
		c-0.61,0-1.1-0.49-1.1-1.089s0.49-1.103,1.1-1.103h6.593c0.514-9.627,8.218-17.353,17.837-17.908V24.47
		c0-0.61,0.49-1.092,1.089-1.092c0.61,0,1.102,0.481,1.102,1.092v6.519c9.616,0.555,17.323,8.281,17.823,17.908h6.604
		c0.599,0,1.092,0.503,1.092,1.103S76.134,51.089,75.524,51.089L75.524,51.089z M66.795,49.915c0-9.255-7.534-16.789-16.8-16.789
		c-9.255,0-16.789,7.523-16.789,16.789c0,9.252,7.534,16.797,16.789,16.797C59.26,66.713,66.795,59.167,66.795,49.915L66.795,49.915
		z M66.795,49.915"/>
</g>
</svg>
