<?xml version="1.0" encoding="iso-8859-1"?>
<!-- Generator: Adobe Illustrator 19.0.0, SVG Export Plug-In . SVG Version: 6.00 Build 0)  -->
<svg version="1.1" id="Layer_1" xmlns="http://www.w3.org/2000/svg" xmlns:xlink="http://www.w3.org/1999/xlink" x="0px" y="0px"
	 width="50px" height="50px" viewBox="0 0 50 50" style="enable-background:new 0 0 50 50;" xml:space="preserve">
<path style="fill:#FFFFFF;" d="M38.321,12.631V7.247c0-0.53-0.43-0.96-0.96-0.96H1.855c-0.53,0-0.96,0.43-0.96,0.96v35.506
	c0,0.53,0.43,0.96,0.96,0.96h35.506c0.53,0,0.96-0.43,0.96-0.96l0-20.257l9.985-9.985c0.516-0.516,0.799-1.201,0.799-1.93
	c0-0.729-0.284-1.415-0.799-1.93l-1.072-1.072c-0.516-0.516-1.201-0.799-1.93-0.799c-0.729,0-1.415,0.284-1.93,0.799L38.321,12.631z
	 M22.553,35.548l-3.324,1.108l1.108-3.324L40.728,12.94l2.216,2.216L22.553,35.548z M36.401,41.793H2.816V8.208h33.585v6.344
	L18.818,32.134c-0.105,0.105-0.185,0.234-0.232,0.375l-1.787,5.361c-0.115,0.345-0.025,0.726,0.232,0.983
	c0.183,0.183,0.429,0.281,0.679,0.281c0.102,0,0.204-0.016,0.304-0.049l5.361-1.787c0.141-0.047,0.27-0.127,0.375-0.232l12.65-12.65
	V41.793z M46.948,11.153l-2.645,2.645l-1.108-1.108l-1.108-1.108l2.645-2.645C44.884,8.784,45.087,8.7,45.304,8.7
	c0.216,0,0.419,0.084,0.572,0.237l1.072,1.072c0,0,0,0,0,0c0.153,0.153,0.237,0.356,0.237,0.572
	C47.185,10.797,47.1,11,46.948,11.153z"/>
<g id="XMLID_5_">
</g>
<g id="XMLID_6_">
</g>
<g id="XMLID_7_">
</g>
<g id="XMLID_8_">
</g>
<g id="XMLID_9_">
</g>
<g id="XMLID_10_">
</g>
</svg>
