<?xml version="1.0" encoding="iso-8859-1"?>
<!-- Generator: Adobe Illustrator 19.0.0, SVG Export Plug-In . SVG Version: 6.00 Build 0)  -->
<svg version="1.1" id="Layer_1" xmlns="http://www.w3.org/2000/svg" xmlns:xlink="http://www.w3.org/1999/xlink" x="0px" y="0px"
	 width="50px" height="50px" viewBox="0 0 50 50" style="enable-background:new 0 0 50 50;" xml:space="preserve">
<g>
	<path style="fill:#FFFFFF;" d="M45.572,1.047H4.428c-1.913,0-3.468,1.556-3.468,3.468v0.557c0,1.59,1.076,2.929,2.537,3.338v29.362
		c0,0.668,0.542,1.21,1.21,1.21H23.79v2.491c-1.525,0.508-2.628,1.948-2.628,3.642c0,2.116,1.722,3.837,3.838,3.837
		s3.838-1.721,3.838-3.837c0-1.694-1.103-3.134-2.628-3.642v-2.491h19.083c0.668,0,1.21-0.542,1.21-1.21V8.411
		c1.46-0.408,2.537-1.748,2.537-3.338V4.516C49.04,2.603,47.484,1.047,45.572,1.047L45.572,1.047z M25,46.533
		c-0.781,0-1.418-0.636-1.418-1.418c0-0.782,0.636-1.418,1.418-1.418c0.782,0,1.418,0.636,1.418,1.418
		C26.418,45.897,25.782,46.533,25,46.533L25,46.533z M44.083,36.563H5.917V8.541h38.167V36.563z M46.62,5.073
		c0,0.578-0.47,1.048-1.048,1.048H4.428c-0.578,0-1.048-0.47-1.048-1.048V4.516c0-0.578,0.47-1.048,1.048-1.048h41.143
		c0.578,0,1.048,0.47,1.048,1.048V5.073z M46.62,5.073"/>
	<path style="fill:#FFFFFF;" d="M9.235,33.727c0.31,0,0.619-0.118,0.855-0.355l4.638-4.638l4.475,2.237
		c0.546,0.273,1.21,0.097,1.548-0.411l4.584-6.876l6.876,4.585c0.295,0.197,0.662,0.253,1.003,0.157
		c0.341-0.098,0.622-0.34,0.77-0.662l4.73-10.39l0.946,2.113c0.202,0.45,0.643,0.716,1.105,0.716c0.165,0,0.333-0.034,0.494-0.106
		c0.61-0.272,0.883-0.989,0.61-1.598l-2.181-4.869c-0.131-0.293-0.373-0.522-0.673-0.636c-0.3-0.114-0.633-0.105-0.926,0.027
		L33.222,15.2c-0.61,0.273-0.883,0.989-0.61,1.598c0.273,0.61,0.989,0.883,1.599,0.61l2.299-1.03l-4.139,9.087l-6.7-4.466
		c-0.267-0.178-0.594-0.243-0.908-0.18c-0.315,0.063-0.591,0.248-0.77,0.515l-4.663,6.994l-4.3-2.15
		c-0.466-0.233-1.028-0.142-1.397,0.226l-5.254,5.256c-0.473,0.472-0.473,1.238,0,1.711C8.615,33.609,8.925,33.727,9.235,33.727
		L9.235,33.727z M9.235,33.727"/>
</g>
<g id="XMLID_8_">
</g>
<g id="XMLID_9_">
</g>
<g id="XMLID_10_">
</g>
<g id="XMLID_11_">
</g>
<g id="XMLID_12_">
</g>
<g id="XMLID_13_">
</g>
</svg>
