<?xml version="1.0" encoding="iso-8859-1"?>
<!-- Generator: Adobe Illustrator 19.0.0, SVG Export Plug-In . SVG Version: 6.00 Build 0)  -->
<svg version="1.1" id="Layer_1" xmlns="http://www.w3.org/2000/svg" xmlns:xlink="http://www.w3.org/1999/xlink" x="0px" y="0px"
	 width="50px" height="50px" viewBox="0 0 50 50" style="enable-background:new 0 0 50 50;" xml:space="preserve">
<g>
	<g>
		<defs>
			<rect id="XMLID_8_" x="8.944" y="0.623" width="32.112" height="48.754"/>
		</defs>
		<clipPath id="XMLID_22_">
			<use xlink:href="#XMLID_8_"  style="overflow:visible;"/>
		</clipPath>
		<path style="clip-path:url(#XMLID_22_);fill:#FFFFFF;" d="M41.002,38.006l-1.433-13.039c-0.393-3.58-2.604-6.546-5.653-8.024
			l1.202-1.202c1.671-1.673,2.592-3.897,2.592-6.263c0-2.366-0.921-4.589-2.593-6.262c-1.672-1.672-3.897-2.594-6.263-2.594
			c-2.367,0-4.591,0.922-6.262,2.594c-2.824,2.823-3.351,7.152-1.497,10.529c-1.374,0.168-2.711,0.619-3.938,1.346
			c-2.331,1.383-3.982,3.59-4.653,6.215L9.261,34.018c-0.21,0.825-0.317,1.671-0.317,2.514c0,4.636,3.14,8.676,7.637,9.825
			c0.832,0.212,1.676,0.317,2.518,0.317c1.429,0,2.845-0.305,4.161-0.9c1.865,2.146,4.61,3.485,7.648,3.485
			c0.371,0,0.747-0.021,1.119-0.061c2.694-0.296,5.11-1.623,6.806-3.736C40.527,43.347,41.297,40.699,41.002,38.006L41.002,38.006z
			 M23.953,4.577c1.308-1.309,3.048-2.03,4.901-2.03c1.852,0,3.593,0.721,4.902,2.03c1.308,1.308,2.029,3.049,2.029,4.901
			c0,1.852-0.721,3.593-2.029,4.903l-1.84,1.84c-0.777-0.19-1.588-0.291-2.42-0.291c-0.249,0-0.499,0.012-0.749,0.031
			c-1.136-0.927-2.476-1.607-3.905-1.973c-0.487-0.124-0.977-0.212-1.468-0.263C21.255,10.996,21.48,7.05,23.953,4.577L23.953,4.577
			z M17.056,44.492c-3.644-0.93-6.188-4.203-6.188-7.96c0-0.683,0.086-1.369,0.257-2.038l3.244-12.71
			c0.542-2.127,1.882-3.916,3.77-5.036c1.888-1.12,4.099-1.438,6.227-0.895c0.612,0.156,1.191,0.378,1.739,0.66
			c-0.599,0.211-1.169,0.477-1.707,0.79c-0.132-0.09-0.279-0.16-0.441-0.202c-0.749-0.19-1.511,0.261-1.702,1.01
			c-0.071,0.281-0.051,0.564,0.039,0.818c-0.278,0.281-0.54,0.577-0.785,0.889c-0.606-0.412-1.12-0.947-1.511-1.579l-0.487-0.789
			l-0.806,0.458c-1.709,0.969-2.917,2.553-3.402,4.458l-3.068,12.017c-0.473,1.857-0.196,3.786,0.781,5.431
			c0.976,1.648,2.536,2.816,4.394,3.29c0.587,0.15,1.185,0.224,1.78,0.224c0.791,0,1.576-0.135,2.326-0.393
			c0.173,0.427,0.375,0.839,0.601,1.235C20.514,44.806,18.752,44.924,17.056,44.492L17.056,44.492z M19.741,23.259
			c-0.408,0.021-0.773,0.306-0.88,0.723l-3.158,12.371c-0.131,0.515,0.179,1.038,0.694,1.17c0.08,0.02,0.16,0.03,0.239,0.03
			c0.429,0,0.82-0.289,0.931-0.724l2.023-7.924l1.243,11.317c0.032,0.294,0.078,0.582,0.135,0.868
			c-0.982,0.356-2.054,0.411-3.082,0.148c-1.359-0.346-2.5-1.2-3.214-2.406c-0.716-1.204-0.919-2.616-0.572-3.975l3.068-12.016
			c0.284-1.113,0.904-2.075,1.778-2.779c0.44,0.53,0.953,0.991,1.524,1.373C20.17,22.014,19.926,22.625,19.741,23.259L19.741,23.259
			z M31.815,47.285c-0.301,0.033-0.607,0.05-0.909,0.05c-4.193,0-7.702-3.149-8.16-7.324l-1.432-13.039
			c-0.24-2.183,0.385-4.328,1.758-6.041c1.374-1.712,3.332-2.788,5.515-3.028c0.302-0.033,0.608-0.05,0.909-0.05
			c0.254,0,0.505,0.012,0.753,0.035l-1.325,1.325c-0.091-0.008-0.185-0.008-0.28,0.003c-0.768,0.085-1.322,0.776-1.238,1.544
			c0.085,0.768,0.775,1.323,1.544,1.238c0.697-0.077,1.216-0.653,1.243-1.333l2.262-2.262c2.788,1.076,4.857,3.635,5.201,6.774
			l1.432,13.039C39.584,42.722,36.321,46.79,31.815,47.285L31.815,47.285z M31.815,47.285"/>
	</g>
	<path style="fill:#FFFFFF;" d="M36.65,25.622c-0.214-1.955-1.19-3.692-2.745-4.892l-0.735-0.566l-0.592,0.713
		c-0.873,1.05-2.101,1.711-3.459,1.859c-1.344,0.148-2.714-0.239-3.781-1.064l-0.733-0.567l-0.594,0.712
		c-1.258,1.508-1.833,3.415-1.617,5.37l1.354,12.327c0.209,1.905,1.148,3.614,2.641,4.81c1.267,1.018,2.857,1.578,4.478,1.578
		c0.263,0,0.529-0.015,0.791-0.043c3.931-0.432,6.777-3.981,6.345-7.911L36.65,25.622z M31.449,43.946
		c-1.379,0.152-2.777-0.256-3.856-1.123c-1.093-0.875-1.78-2.126-1.933-3.519l-1.354-12.327c-0.125-1.142,0.118-2.261,0.689-3.228
		c1.303,0.742,2.832,1.065,4.334,0.9c1.521-0.167,2.923-0.804,4.037-1.818c0.767,0.82,1.246,1.859,1.371,3.001l1.354,12.326
		C36.407,41.034,34.324,43.631,31.449,43.946L31.449,43.946z M31.449,43.946"/>
	<path style="fill:#FFFFFF;" d="M32.875,26.494c-0.058-0.528-0.534-0.909-1.062-0.851c-0.528,0.058-0.909,0.534-0.851,1.061
		l1.395,12.692c0.054,0.493,0.47,0.857,0.955,0.857c0.035,0,0.07-0.003,0.106-0.006c0.529-0.058,0.91-0.533,0.852-1.061
		L32.875,26.494z M32.875,26.494"/>
	<path style="fill:#FFFFFF;" d="M28.181,27.01c-0.058-0.529-0.532-0.91-1.061-0.852c-0.528,0.058-0.909,0.533-0.851,1.062
		l0.956,8.708c0.054,0.492,0.471,0.857,0.955,0.857c0.035,0,0.07-0.002,0.106-0.005c0.529-0.058,0.909-0.534,0.851-1.061
		L28.181,27.01z M28.181,27.01"/>
</g>
<g id="XMLID_15_">
</g>
<g id="XMLID_16_">
</g>
<g id="XMLID_17_">
</g>
<g id="XMLID_18_">
</g>
<g id="XMLID_19_">
</g>
<g id="XMLID_20_">
</g>
</svg>
