<?xml version="1.0" encoding="iso-8859-1"?>
<!-- Generator: Adobe Illustrator 19.0.0, SVG Export Plug-In . SVG Version: 6.00 Build 0)  -->
<svg version="1.1" id="Layer_1" xmlns="http://www.w3.org/2000/svg" xmlns:xlink="http://www.w3.org/1999/xlink" x="0px" y="0px"
	 width="50px" height="50px" viewBox="0 0 50 50" style="enable-background:new 0 0 50 50;" xml:space="preserve">
<g>
	<g>
		<defs>
			<rect id="XMLID_40_" x="1.186" y="1.174" width="47.628" height="47.652"/>
		</defs>
		<clipPath id="XMLID_51_">
			<use xlink:href="#XMLID_40_"  style="overflow:visible;"/>
		</clipPath>
		<path style="clip-path:url(#XMLID_51_);fill:#FFFFFF;" d="M47.592,20.552h-3.058c-0.5-2.224-1.369-4.319-2.59-6.25l2.164-2.165
			c0.471-0.471,0.471-1.235,0-1.706l-4.566-4.568c-0.226-0.226-0.533-0.353-0.854-0.353c-0.32,0-0.627,0.127-0.853,0.354
			l-2.163,2.164C33.744,6.808,31.65,5.94,29.427,5.44V2.38c0-0.666-0.54-1.206-1.206-1.206h-6.457c-0.666,0-1.206,0.54-1.206,1.206
			v3.06c-2.223,0.5-4.317,1.369-6.246,2.589l-2.164-2.164c-0.226-0.226-0.533-0.353-0.853-0.353c-0.32,0-0.627,0.127-0.854,0.353
			l-4.566,4.568c-0.47,0.471-0.47,1.235,0,1.705l2.164,2.165c-1.22,1.93-2.088,4.025-2.589,6.249H2.392
			c-0.666,0-1.206,0.539-1.206,1.206v6.459c0,0.666,0.54,1.206,1.206,1.206h3.058c0.5,2.223,1.368,4.317,2.589,6.249l-2.164,2.164
			c-0.47,0.471-0.47,1.235,0,1.706l4.566,4.567c0.227,0.226,0.533,0.353,0.854,0.353c0.32,0,0.627-0.127,0.853-0.353l2.164-2.164
			c1.929,1.22,4.023,2.088,6.246,2.59v3.06c0,0.666,0.54,1.206,1.206,1.206h6.457c0.666,0,1.206-0.54,1.206-1.206v-3.06
			c2.224-0.501,4.317-1.369,6.246-2.59l2.163,2.164c0.227,0.226,0.533,0.353,0.854,0.353c0.32,0,0.627-0.127,0.853-0.353
			l4.566-4.567c0.471-0.471,0.471-1.235,0-1.706l-2.164-2.164c1.221-1.931,2.088-4.025,2.589-6.249h3.058
			c0.667,0,1.206-0.54,1.206-1.206v-6.459C48.798,21.091,48.258,20.552,47.592,20.552L47.592,20.552z M46.386,27.011h-2.842
			c-0.587,0-1.089,0.422-1.188,1c-0.445,2.578-1.438,4.974-2.949,7.119c-0.338,0.48-0.282,1.133,0.133,1.548l2.011,2.011
			l-2.86,2.861l-2.01-2.011c-0.415-0.415-1.069-0.471-1.549-0.133c-2.143,1.511-4.537,2.504-7.116,2.95
			c-0.579,0.1-1.001,0.602-1.001,1.189v2.843H22.97v-2.843c0-0.588-0.423-1.089-1.001-1.189c-2.578-0.446-4.972-1.438-7.116-2.95
			c-0.48-0.339-1.133-0.282-1.549,0.133l-2.01,2.011l-2.86-2.861l2.011-2.011c0.415-0.415,0.471-1.068,0.133-1.548
			c-1.511-2.146-2.503-4.541-2.948-7.119c-0.1-0.578-0.602-1-1.188-1H3.599v-4.046h2.842c0.587,0,1.089-0.423,1.188-1.002
			c0.445-2.578,1.437-4.973,2.948-7.119c0.339-0.479,0.282-1.133-0.133-1.547l-2.01-2.011l2.86-2.861l2.01,2.011
			c0.416,0.416,1.069,0.471,1.549,0.134c2.144-1.512,4.538-2.505,7.116-2.95c0.578-0.101,1.001-0.602,1.001-1.189V3.586h4.044v2.843
			c0,0.588,0.423,1.089,1.001,1.189c2.578,0.445,4.972,1.438,7.116,2.949c0.479,0.339,1.133,0.283,1.548-0.133l2.011-2.011
			l2.86,2.861l-2.011,2.012c-0.415,0.415-0.47,1.068-0.133,1.547c1.511,2.145,2.504,4.54,2.949,7.119
			c0.1,0.579,0.602,1.002,1.188,1.002h2.842V27.011z M46.386,27.011"/>
	</g>
	<path style="fill:#FFFFFF;" d="M24.992,16.717c-4.559,0-8.268,3.71-8.268,8.271c0,4.561,3.71,8.271,8.268,8.271h0.001
		c4.559-0.001,8.268-3.711,8.268-8.271c0-2.209-0.86-4.286-2.422-5.848C29.277,17.578,27.2,16.717,24.992,16.717L24.992,16.717z
		 M24.992,30.846c-3.229,0-5.855-2.628-5.855-5.858c0-3.23,2.627-5.858,5.855-5.858c1.565,0,3.035,0.61,4.141,1.716
		c1.107,1.106,1.715,2.578,1.715,4.142C30.848,28.218,28.22,30.845,24.992,30.846L24.992,30.846z M24.992,30.846"/>
	<path style="fill:#FFFFFF;" d="M18.152,14.347c0.206,0,0.415-0.052,0.606-0.164c0.042-0.024,0.085-0.049,0.127-0.072
		c0.581-0.327,0.787-1.063,0.46-1.643c-0.327-0.581-1.062-0.786-1.643-0.46c-0.053,0.03-0.105,0.06-0.157,0.09
		c-0.576,0.335-0.771,1.073-0.437,1.649C17.332,14.132,17.736,14.347,18.152,14.347L18.152,14.347z M18.152,14.347"/>
	<path style="fill:#FFFFFF;" d="M34.633,17.079c0.239,0.292,0.585,0.443,0.935,0.443c0.269,0,0.539-0.089,0.763-0.273
		c0.515-0.422,0.591-1.182,0.169-1.697c-0.038-0.046-0.075-0.092-0.114-0.138c-0.428-0.511-1.189-0.577-1.7-0.149
		c-0.511,0.428-0.577,1.189-0.149,1.7C34.569,17.002,34.601,17.04,34.633,17.079L34.633,17.079z M34.633,17.079"/>
	<path style="fill:#FFFFFF;" d="M11.727,21.443c0.137,0.049,0.276,0.073,0.412,0.073c0.493,0,0.956-0.305,1.134-0.795
		c0.017-0.046,0.034-0.092,0.052-0.139c0.236-0.623-0.078-1.319-0.701-1.556c-0.623-0.236-1.32,0.077-1.556,0.701
		c-0.021,0.056-0.042,0.113-0.063,0.17C10.778,20.524,11.101,21.215,11.727,21.443L11.727,21.443z M11.727,21.443"/>
	<path style="fill:#FFFFFF;" d="M12.525,25.017v-0.029c0-0.05,0.001-0.101,0.001-0.151c0.007-0.667-0.527-1.213-1.193-1.22
		c-0.005,0-0.009,0-0.014,0c-0.66,0-1.198,0.531-1.206,1.192c-0.001,0.06-0.001,0.119-0.001,0.178v0.03
		c0,0.667,0.54,1.206,1.206,1.206C11.985,26.223,12.525,25.684,12.525,25.017L12.525,25.017z M12.525,25.017"/>
	<path style="fill:#FFFFFF;" d="M22.61,12.72c0.068,0,0.138-0.006,0.208-0.018l0.152-0.026c0.657-0.108,1.103-0.73,0.993-1.387
		c-0.108-0.657-0.73-1.102-1.386-0.993l-0.174,0.03c-0.656,0.114-1.096,0.739-0.981,1.396C21.525,12.307,22.034,12.72,22.61,12.72
		L22.61,12.72z M22.61,12.72"/>
	<path style="fill:#FFFFFF;" d="M36.707,20.711c0.016,0.046,0.033,0.092,0.049,0.137c0.174,0.498,0.64,0.81,1.14,0.81
		c0.131,0,0.266-0.021,0.397-0.068c0.629-0.219,0.961-0.907,0.742-1.536c-0.02-0.057-0.041-0.115-0.062-0.172
		c-0.229-0.626-0.921-0.948-1.547-0.719C36.8,19.393,36.477,20.086,36.707,20.711L36.707,20.711z M36.707,20.711"/>
	<path style="fill:#FFFFFF;" d="M31.22,14.18c0.043,0.024,0.086,0.05,0.129,0.075c0.193,0.115,0.406,0.17,0.616,0.17
		c0.412,0,0.812-0.211,1.037-0.59c0.341-0.572,0.152-1.313-0.419-1.653c-0.052-0.031-0.104-0.061-0.156-0.091
		c-0.576-0.333-1.315-0.136-1.648,0.441C30.445,13.108,30.643,13.846,31.22,14.18L31.22,14.18z M31.22,14.18"/>
	<path style="fill:#FFFFFF;" d="M13.282,29.278c-0.017-0.047-0.034-0.094-0.051-0.141c-0.221-0.628-0.909-0.958-1.539-0.737
		c-0.628,0.222-0.958,0.91-0.737,1.539c0.02,0.057,0.04,0.112,0.061,0.169c0.179,0.489,0.641,0.792,1.133,0.792
		c0.138,0,0.277-0.024,0.415-0.074C13.189,30.597,13.511,29.904,13.282,29.278L13.282,29.278z M13.282,29.278"/>
	<path style="fill:#FFFFFF;" d="M27.152,12.7c0.049,0.008,0.097,0.016,0.145,0.026c0.075,0.014,0.151,0.021,0.225,0.021
		c0.569,0,1.074-0.403,1.184-0.982c0.123-0.654-0.306-1.286-0.961-1.41c-0.06-0.012-0.119-0.022-0.179-0.033
		c-0.657-0.116-1.281,0.325-1.396,0.982C26.057,11.961,26.497,12.586,27.152,12.7L27.152,12.7z M27.152,12.7"/>
	<path style="fill:#FFFFFF;" d="M27.177,37.272c-0.049,0.008-0.097,0.016-0.145,0.024c-0.657,0.107-1.104,0.726-0.997,1.384
		c0.097,0.592,0.608,1.013,1.19,1.013c0.064,0,0.129-0.005,0.194-0.016c0.061-0.009,0.12-0.02,0.18-0.031
		c0.656-0.116,1.094-0.742,0.977-1.398C28.459,37.592,27.833,37.156,27.177,37.272L27.177,37.272z M27.177,37.272"/>
	<path style="fill:#FFFFFF;" d="M38.261,28.519c-0.626-0.228-1.318,0.096-1.546,0.721c-0.017,0.047-0.034,0.093-0.052,0.14
		c-0.236,0.623,0.078,1.319,0.701,1.556c0.141,0.053,0.285,0.079,0.427,0.079c0.487,0,0.946-0.297,1.129-0.779
		c0.021-0.057,0.042-0.113,0.063-0.171C39.211,29.439,38.888,28.747,38.261,28.519L38.261,28.519z M38.261,28.519"/>
	<path style="fill:#FFFFFF;" d="M36.251,32.843c-0.511-0.427-1.272-0.36-1.7,0.152c-0.031,0.038-0.063,0.075-0.095,0.112
		c-0.435,0.505-0.377,1.267,0.128,1.701c0.228,0.196,0.507,0.292,0.786,0.292c0.339,0,0.676-0.142,0.915-0.419
		c0.039-0.046,0.079-0.093,0.118-0.139C36.831,34.03,36.763,33.27,36.251,32.843L36.251,32.843z M36.251,32.843"/>
	<path style="fill:#FFFFFF;" d="M38.665,23.774c-0.667,0-1.206,0.547-1.206,1.213l-0.001,0.139
		c-0.006,0.666,0.529,1.211,1.195,1.217h0.012c0.661,0,1.2-0.532,1.206-1.195l0.001-0.176
		C39.871,24.307,39.331,23.774,38.665,23.774L38.665,23.774z M38.665,23.774"/>
	<path style="fill:#FFFFFF;" d="M15.36,32.908c-0.422-0.516-1.182-0.592-1.697-0.17c-0.516,0.422-0.592,1.182-0.17,1.697
		c0.038,0.047,0.077,0.093,0.116,0.14c0.239,0.284,0.58,0.43,0.923,0.43c0.275,0,0.551-0.093,0.777-0.285
		c0.51-0.429,0.575-1.191,0.145-1.7C15.423,32.983,15.391,32.946,15.36,32.908L15.36,32.908z M15.36,32.908"/>
	<path style="fill:#FFFFFF;" d="M31.24,35.785l-0.131,0.075c-0.579,0.329-0.783,1.066-0.454,1.645
		c0.222,0.392,0.631,0.611,1.05,0.611c0.202,0,0.407-0.05,0.595-0.157c0.051-0.029,0.102-0.058,0.153-0.088
		c0.576-0.335,0.771-1.073,0.437-1.649C32.554,35.645,31.815,35.45,31.24,35.785L31.24,35.785z M31.24,35.785"/>
	<path style="fill:#FFFFFF;" d="M15.41,15.157c-0.505-0.434-1.267-0.378-1.702,0.127c-0.038,0.046-0.077,0.091-0.115,0.137
		c-0.429,0.511-0.362,1.272,0.148,1.7c0.226,0.19,0.502,0.283,0.775,0.283c0.344,0,0.686-0.147,0.925-0.431
		c0.032-0.038,0.064-0.076,0.097-0.114C15.971,16.353,15.915,15.591,15.41,15.157L15.41,15.157z M15.41,15.157"/>
	<path style="fill:#FFFFFF;" d="M18.777,35.804l-0.133-0.078c-0.574-0.338-1.314-0.147-1.653,0.427
		c-0.338,0.573-0.147,1.313,0.426,1.652l0.152,0.089c0.19,0.11,0.398,0.162,0.602,0.162c0.417,0,0.822-0.216,1.046-0.603
		C19.551,36.874,19.354,36.137,18.777,35.804L18.777,35.804z M18.777,35.804"/>
	<path style="fill:#FFFFFF;" d="M22.846,37.278l-0.152-0.028c-0.654-0.119-1.284,0.313-1.404,0.969
		c-0.12,0.656,0.313,1.284,0.969,1.405l0.173,0.031c0.07,0.012,0.14,0.018,0.209,0.018c0.575,0,1.085-0.413,1.187-0.999
		C23.942,38.017,23.502,37.393,22.846,37.278L22.846,37.278z M22.846,37.278"/>
</g>
<g id="XMLID_44_">
</g>
<g id="XMLID_45_">
</g>
<g id="XMLID_46_">
</g>
<g id="XMLID_47_">
</g>
<g id="XMLID_48_">
</g>
<g id="XMLID_49_">
</g>
</svg>
