<?xml version="1.0" encoding="iso-8859-1"?>
<!-- Generator: Adobe Illustrator 19.0.0, SVG Export Plug-In . SVG Version: 6.00 Build 0)  -->
<svg version="1.1" id="Layer_1" xmlns="http://www.w3.org/2000/svg" xmlns:xlink="http://www.w3.org/1999/xlink" x="0px" y="0px"
	 width="50px" height="50px" viewBox="0 0 50 50" style="enable-background:new 0 0 50 50;" xml:space="preserve">
<g>
	<g>
		<defs>
			<rect id="XMLID_11_" x="2.41" y="0.805" width="45.181" height="48.391"/>
		</defs>
		<clipPath id="XMLID_22_">
			<use xlink:href="#XMLID_11_"  style="overflow:visible;"/>
		</clipPath>
		<path style="clip-path:url(#XMLID_22_);fill:#FFFFFF;" d="M19.108,30.856l1.115-0.644c0.454-0.263,0.61-0.844,0.348-1.299
			l-2.114-3.66c-0.176-0.305-0.495-0.476-0.824-0.476c-0.161,0-0.325,0.041-0.474,0.128l-1.115,0.644
			c-0.153,0.089-0.316,0.129-0.473,0.129c-0.497,0-0.952-0.397-0.952-0.952v-1.288c0-0.525-0.426-0.951-0.951-0.951H9.44
			c-0.525,0-0.951,0.426-0.951,0.951v1.288c0,0.555-0.455,0.952-0.951,0.952c-0.158,0-0.321-0.04-0.474-0.129l-1.115-0.644
			c-0.15-0.087-0.313-0.127-0.474-0.128c-0.328,0-0.648,0.171-0.824,0.476l-2.114,3.66c-0.262,0.455-0.107,1.036,0.348,1.299
			l1.115,0.644c0.633,0.366,0.633,1.281,0,1.646l-1.115,0.644c-0.455,0.262-0.61,0.844-0.348,1.298l2.114,3.66
			c0.176,0.305,0.495,0.476,0.824,0.476c0.162,0,0.325-0.041,0.474-0.127l1.115-0.644c0.154-0.088,0.316-0.128,0.474-0.128
			c0.496,0,0.951,0.397,0.951,0.952v1.288c0,0.525,0.426,0.951,0.951,0.951h4.227c0.525,0,0.951-0.426,0.951-0.951v-1.288
			c0-0.555,0.455-0.952,0.951-0.952c0.158,0,0.321,0.04,0.474,0.128l1.115,0.644c0.15,0.086,0.313,0.127,0.474,0.127
			c0.328,0,0.648-0.171,0.824-0.476l2.114-3.66c0.263-0.455,0.107-1.036-0.348-1.298l-1.115-0.644
			C18.474,32.137,18.474,31.222,19.108,30.856L19.108,30.856z M11.554,34.5c-1.557,0-2.82-1.262-2.82-2.82
			c0-1.558,1.262-2.82,2.82-2.82c1.558,0,2.82,1.263,2.82,2.82C14.374,33.237,13.111,34.5,11.554,34.5L11.554,34.5z M11.554,34.5"/>
	</g>
	<path style="fill:#FFFFFF;" d="M18.374,4.688c-0.51-0.51-1.336-0.51-1.846,0c-0.51,0.51-0.51,1.337,0,1.847l2.333,2.333
		C10.286,9.292,3.346,16.027,2.596,24.512l0.192-0.334c0.553-0.956,1.582-1.551,2.687-1.551c0.023,0,0.047,0.002,0.07,0.003
		c1.471-6.116,6.803-10.741,13.264-11.142l-2.28,2.28c-0.51,0.51-0.51,1.336,0,1.846c0.255,0.255,0.589,0.382,0.923,0.382
		c0.334,0,0.668-0.127,0.923-0.382l4.54-4.54c0.245-0.245,0.382-0.577,0.382-0.923c0-0.347-0.137-0.678-0.382-0.923L18.374,4.688z
		 M18.374,4.688"/>
	<path style="fill:#FFFFFF;" d="M34.871,11.368c2.899,0,5.257-2.359,5.257-5.258c0-2.899-2.358-5.257-5.257-5.257
		c-2.899,0-5.258,2.358-5.258,5.257C29.613,9.009,31.972,11.368,34.871,11.368L34.871,11.368z M34.871,11.368"/>
	<path style="fill:#FFFFFF;" d="M45.112,25.539v-7.227c0-2-1.286-3.774-3.187-4.397l-0.009-0.003l-2.78-0.46
		c-0.237-0.073-0.49,0.052-0.575,0.286l-3.155,8.657c-0.182,0.5-0.889,0.5-1.07,0l-3.155-8.657
		c-0.069-0.188-0.247-0.306-0.438-0.306c-0.045,0-2.918,0.48-2.918,0.48c-1.916,0.639-3.197,2.415-3.197,4.424v7.203
		c0,1.08,0.875,1.954,1.954,1.954h16.575C44.237,27.494,45.112,26.619,45.112,25.539L45.112,25.539z M45.112,25.539"/>
	<path style="fill:#FFFFFF;" d="M47.435,27.267c-0.109,1.494-1.335,2.409-2.829,2.516c-1.145,6.553-6.68,11.614-13.452,12.035
		l2.28-2.28c0.51-0.51,0.51-1.336,0-1.846c-0.51-0.51-1.336-0.51-1.847,0l-4.54,4.54c-0.51,0.511-0.51,1.337,0,1.847l4.54,4.54
		c0.256,0.255,0.589,0.382,0.924,0.382c0.334,0,0.668-0.127,0.923-0.382c0.51-0.51,0.51-1.337,0-1.847l-2.333-2.333
		C40.183,43.99,47.435,36.46,47.435,27.267L47.435,27.267z M47.435,27.267"/>
	<path style="fill:#FFFFFF;" d="M36.016,13.353c-0.121-0.132-0.298-0.199-0.477-0.199h-1.337c-0.179,0-0.356,0.066-0.477,0.199
		c-0.188,0.204-0.214,0.499-0.081,0.731l0.714,1.077l-0.334,2.822l0.659,1.752c0.064,0.176,0.313,0.176,0.378,0l0.659-1.752
		l-0.334-2.822l0.714-1.077C36.232,13.852,36.204,13.557,36.016,13.353L36.016,13.353z M36.016,13.353"/>
</g>
<g id="XMLID_15_">
</g>
<g id="XMLID_16_">
</g>
<g id="XMLID_17_">
</g>
<g id="XMLID_18_">
</g>
<g id="XMLID_19_">
</g>
<g id="XMLID_20_">
</g>
</svg>
