<?xml version="1.0" encoding="iso-8859-1"?>
<!-- Generator: Adobe Illustrator 19.0.0, SVG Export Plug-In . SVG Version: 6.00 Build 0)  -->
<svg version="1.1" id="Layer_1" xmlns="http://www.w3.org/2000/svg" xmlns:xlink="http://www.w3.org/1999/xlink" x="0px" y="0px"
	 width="50px" height="50px" viewBox="0 0 50 50" style="enable-background:new 0 0 50 50;" xml:space="preserve">
<g>
	<g>
		<path style="fill:#FFFFFF;" d="M48.363,38.512l-5.14-5.142c-0.003-0.003-0.007-0.007-0.011-0.011
			c-0.003-0.004-0.008-0.007-0.011-0.011L35.2,25.348l13.157-13.157c0.641-0.639,0.641-1.678,0-2.319l-8.229-8.231
			c-0.308-0.308-0.725-0.481-1.16-0.481c-0.054,0-0.109,0.003-0.162,0.008c-0.375,0.037-0.728,0.203-0.997,0.472l-8.23,8.229
			c-0.001,0.001-0.002,0.003-0.003,0.004L24.65,14.8l-2.86-2.859l-0.001-0.002l-5.137-5.137c-0.004-0.005-0.009-0.011-0.014-0.015
			c-0.004-0.005-0.01-0.008-0.015-0.014l-5.136-5.136c-0.308-0.308-0.724-0.481-1.16-0.481c-0.435,0-0.852,0.173-1.16,0.481
			L1.637,9.169c-0.641,0.64-0.641,1.68,0,2.32l13.162,13.161L1.637,37.812c-0.308,0.309-0.481,0.725-0.481,1.161v8.231
			c0,0.435,0.173,0.852,0.481,1.16c0.308,0.308,0.725,0.48,1.16,0.48l8.231-0.002c0.435,0,0.852-0.172,1.16-0.479L25.348,35.2
			L38.51,48.364c0.32,0.32,0.741,0.48,1.161,0.48c0.42,0,0.839-0.16,1.16-0.48l7.533-7.533c0.308-0.308,0.481-0.725,0.481-1.16
			C48.844,39.236,48.672,38.819,48.363,38.512L48.363,38.512z M38.968,16.941l-5.909-5.91l5.91-5.909l5.908,5.91L38.968,16.941z
			 M5.115,10.329l5.212-5.212l2.831,2.831l-2.607,2.608c-0.64,0.641-0.64,1.679,0,2.319c0.32,0.32,0.74,0.481,1.16,0.481
			c0.421,0,0.841-0.16,1.161-0.481l2.607-2.608l2.832,2.832l-3.601,3.601c-0.641,0.64-0.641,1.678,0,2.319
			c0.32,0.32,0.74,0.481,1.16,0.481c0.42,0,0.84-0.16,1.16-0.481l3.601-3.6l1.701,1.7l-5.212,5.212L5.115,10.329z M10.347,45.563
			l-5.91,0.001v-5.911L30.739,13.35l5.909,5.911L10.347,45.563z M39.67,44.885L27.667,32.881l5.214-5.214l1.7,1.701l-3.6,3.601
			c-0.641,0.642-0.641,1.68,0,2.32c0.32,0.32,0.74,0.481,1.16,0.481c0.42,0,0.839-0.16,1.16-0.481l3.601-3.602l2.832,2.832
			l-2.607,2.607c-0.641,0.641-0.641,1.68,0,2.319c0.32,0.32,0.74,0.48,1.16,0.48c0.42,0,0.84-0.16,1.16-0.48l2.607-2.607
			l2.833,2.832L39.67,44.885z M39.67,44.885"/>
	</g>
</g>
<g id="XMLID_7_">
</g>
<g id="XMLID_8_">
</g>
<g id="XMLID_9_">
</g>
<g id="XMLID_10_">
</g>
<g id="XMLID_11_">
</g>
<g id="XMLID_12_">
</g>
</svg>
