<?xml version="1.0" encoding="iso-8859-1"?>
<!-- Generator: Adobe Illustrator 19.0.0, SVG Export Plug-In . SVG Version: 6.00 Build 0)  -->
<svg version="1.1" id="Layer_1" xmlns="http://www.w3.org/2000/svg" xmlns:xlink="http://www.w3.org/1999/xlink" x="0px" y="0px"
	 width="50px" height="50px" viewBox="0 0 50 50" style="enable-background:new 0 0 50 50;" xml:space="preserve">
<g>
	<g>
		<path id="XMLID_3_" style="fill:#FFFFFF;" d="M24.765,0.725L3.797,24.055l1.513,1.37l1.779-1.973v16.623h14.845V32.8
			c-3.427-1.269-5.842-4.596-5.842-8.354c0-4.913,3.997-8.909,8.909-8.909c4.913,0,8.91,3.997,8.91,8.909
			c0,3.759-2.414,7.085-5.843,8.354v6.397h3.36v0.878h11.484V23.493l1.779,1.932l1.513-1.38L24.765,0.725z"/>
	</g>
	<g>
		<path style="fill:#FFFFFF;" d="M26.023,43.286h3.36v-2.045h-3.36V31.226c3.301-0.496,5.843-3.344,5.843-6.78
			c0-3.785-3.08-6.864-6.865-6.864s-6.864,3.08-6.864,6.864c0,3.437,2.541,6.284,5.842,6.78v18.049h2.045v-2.191h4.089v-2.045
			h-4.089V43.286z M25.001,29.266c-2.658,0-4.819-2.162-4.819-4.82s2.161-4.82,4.819-4.82s4.82,2.162,4.82,4.82
			S27.658,29.266,25.001,29.266z"/>
	</g>
</g>
<g id="XMLID_4_">
</g>
<g id="XMLID_5_">
</g>
<g id="XMLID_6_">
</g>
<g id="XMLID_7_">
</g>
<g id="XMLID_8_">
</g>
<g id="XMLID_9_">
</g>
</svg>
