<?xml version="1.0" encoding="iso-8859-1"?>
<!-- Generator: Adobe Illustrator 19.0.0, SVG Export Plug-In . SVG Version: 6.00 Build 0)  -->
<svg version="1.1" id="Layer_1" xmlns="http://www.w3.org/2000/svg" xmlns:xlink="http://www.w3.org/1999/xlink" x="0px" y="0px"
	 width="50px" height="50px" viewBox="0 0 50 50" style="enable-background:new 0 0 50 50;" xml:space="preserve">
<g>
	<path style="fill:#FFFFFF;" d="M45.785,15.939H27.116L37.557,4.864c0.199,0.115,0.426,0.181,0.668,0.181
		c0.739,0,1.339-0.6,1.339-1.34c0-0.739-0.6-1.339-1.339-1.339c-0.74,0-1.336,0.6-1.336,1.339c0,0.274,0.08,0.525,0.217,0.737
		L26.588,15.6L13.941,3.677c0.115-0.199,0.181-0.426,0.181-0.668c0-0.739-0.6-1.339-1.34-1.339c-0.74,0-1.336,0.6-1.336,1.339
		c0,0.737,0.597,1.336,1.336,1.336c0.274,0,0.525-0.081,0.737-0.22l12.529,11.814H4.218c-1.492,0-2.701,1.209-2.701,2.701v26.99
		c0,1.492,1.209,2.701,2.701,2.701h41.567c1.489,0,2.698-1.209,2.698-2.701v-26.99C48.482,17.148,47.274,15.939,45.785,15.939
		L45.785,15.939z M32.063,43.109c0,1.563-1.27,2.838-2.834,2.838H6.915c-1.563,0-2.834-1.274-2.834-2.838v-22.13
		c0-1.563,1.27-2.834,2.834-2.834h22.314c1.563,0,2.834,1.27,2.834,2.834V43.109z M40.521,43.831c-2.834,0-5.13-2.297-5.13-5.128
		c0-2.834,2.297-5.13,5.13-5.13c2.831,0,5.128,2.297,5.128,5.13C45.649,41.534,43.352,43.831,40.521,43.831L40.521,43.831z
		 M45.81,31.233H34.114V18.459H45.81V31.233z M41.196,21.023c0-0.821,0.665-1.485,1.485-1.485h0.541c0.82,0,1.485,0.664,1.485,1.485
		c0,0.82-0.665,1.485-1.485,1.485h-0.541C41.861,22.508,41.196,21.843,41.196,21.023L41.196,21.023z M41.196,24.748
		c0-0.82,0.665-1.485,1.485-1.485h0.541c0.82,0,1.485,0.665,1.485,1.485c0,0.821-0.665,1.486-1.485,1.486h-0.541
		C41.861,26.234,41.196,25.569,41.196,24.748L41.196,24.748z M41.196,28.449c0-0.821,0.665-1.486,1.485-1.486h0.541
		c0.82,0,1.485,0.665,1.485,1.486c0,0.82-0.665,1.485-1.485,1.485h-0.541C41.861,29.934,41.196,29.269,41.196,28.449L41.196,28.449z
		 M42.951,38.523c0,1.314-1.069,2.383-2.386,2.383c-1.317,0-2.383-1.069-2.383-2.383c0-1.318,1.069-2.386,2.383-2.386
		C41.882,36.137,42.951,37.205,42.951,38.523L42.951,38.523z M42.951,38.523"/>
</g>
<g id="XMLID_10_">
</g>
<g id="XMLID_11_">
</g>
<g id="XMLID_12_">
</g>
<g id="XMLID_13_">
</g>
<g id="XMLID_14_">
</g>
<g id="XMLID_15_">
</g>
</svg>
