<?xml version="1.0" encoding="iso-8859-1"?>
<!-- Generator: Adobe Illustrator 19.0.0, SVG Export Plug-In . SVG Version: 6.00 Build 0)  -->
<svg version="1.1" id="Layer_1" xmlns="http://www.w3.org/2000/svg" xmlns:xlink="http://www.w3.org/1999/xlink" x="0px" y="0px"
	 width="50px" height="50px" viewBox="0 0 50 50" style="enable-background:new 0 0 50 50;" xml:space="preserve">
<g>
	<g>
		<path style="fill:#FFFFFF;" d="M42.985,29.883c3.439,0,6.249-2.557,6.264-5.757c0-6.04-4.641-11.194-10.927-12.298
			C37.551,5.551,31.867,0.75,25,0.75c-4.481,0-8.582,2.04-11.091,5.484h-0.046c-4.386,0-7.954,3.341-7.954,7.449
			c0,0.184,0.009,0.372,0.027,0.564c-3.26,2.369-5.186,6.019-5.185,9.934c0.014,3.144,2.825,5.702,6.264,5.702h7.204l-2.601,2.174
			c-0.859-0.571-1.889-0.905-2.995-0.905c-2.99,0-5.422,2.433-5.422,5.422c0,2.99,2.432,5.422,5.422,5.422
			c1.936,0,3.637-1.02,4.596-2.551l22.804,5.219c0.404,2.594,2.652,4.586,5.357,4.586c2.99,0,5.422-2.433,5.422-5.423
			c0-2.99-2.432-5.422-5.422-5.422c-2.555,0-4.703,1.778-5.272,4.161l-22.143-5.067c0.052-0.301,0.08-0.609,0.08-0.925
			c0-1.135-0.351-2.189-0.95-3.061l4.344-3.63H42.985z M41.379,40.469c1.852,0,3.358,1.507,3.358,3.358
			c0,1.852-1.507,3.359-3.358,3.359c-1.851,0-3.358-1.507-3.358-3.359C38.021,41.976,39.527,40.469,41.379,40.469L41.379,40.469z
			 M8.621,39.932c-1.851,0-3.358-1.507-3.358-3.358c0-1.852,1.506-3.359,3.358-3.359c1.852,0,3.358,1.507,3.358,3.359
			C11.979,38.426,10.473,39.932,8.621,39.932L8.621,39.932z M7.014,27.819c-2.307,0-4.191-1.637-4.2-3.693
			c0-3.373,1.792-6.56,4.794-8.526c0.346-0.227,0.523-0.638,0.451-1.045c-0.058-0.32-0.085-0.606-0.085-0.872
			c0-2.97,2.642-5.386,5.89-5.386c0.165,0,0.328,0.011,0.491,0.023c0.375,0.033,0.733-0.147,0.938-0.46
			C17.378,4.7,21.006,2.814,25,2.814c6.073,0,11.052,4.378,11.335,9.969c0.025,0.503,0.411,0.915,0.912,0.972
			c5.666,0.655,9.939,5.113,9.939,10.416c-0.01,2.011-1.894,3.648-4.201,3.648H19.906l3.188-2.664
			c0.877,0.611,1.941,0.97,3.088,0.97c2.99,0,5.422-2.433,5.422-5.423s-2.432-5.422-5.422-5.422c-2.99,0-5.422,2.432-5.422,5.422
			c0,1.096,0.328,2.117,0.889,2.971l-4.962,4.147H7.014z M22.823,20.702c0-1.851,1.507-3.358,3.358-3.358
			c1.852,0,3.358,1.507,3.358,3.358c0,1.852-1.507,3.359-3.358,3.359C24.33,24.061,22.823,22.554,22.823,20.702L22.823,20.702z
			 M22.823,20.702"/>
	</g>
</g>
<g id="XMLID_7_">
</g>
<g id="XMLID_8_">
</g>
<g id="XMLID_9_">
</g>
<g id="XMLID_10_">
</g>
<g id="XMLID_11_">
</g>
<g id="XMLID_12_">
</g>
</svg>
