<?xml version="1.0" encoding="iso-8859-1"?>
<!-- Generator: Adobe Illustrator 19.0.0, SVG Export Plug-In . SVG Version: 6.00 Build 0)  -->
<svg version="1.1" id="Layer_1" xmlns="http://www.w3.org/2000/svg" xmlns:xlink="http://www.w3.org/1999/xlink" x="0px" y="0px"
	 width="50px" height="50px" viewBox="0 0 50 50" style="enable-background:new 0 0 50 50;" xml:space="preserve">
<g id="XMLID_8_">
	<path id="XMLID_14_" style="fill-rule:evenodd;clip-rule:evenodd;fill:#FFFFFF;" d="M26.637,44.553
		c0,0.907-0.756,1.633-1.696,1.633c-0.929,0-1.685-0.726-1.685-1.633c0-0.907,0.756-1.644,1.685-1.644
		C25.881,42.909,26.637,43.646,26.637,44.553L26.637,44.553z M26.637,44.553"/>
	<path id="XMLID_9_" style="fill-rule:evenodd;clip-rule:evenodd;fill:#FFFFFF;" d="M37.976,49.035c0,0,4.503,0,4.503-4.375V5.34
		c0-4.375-4.503-4.375-4.503-4.375H12.022c0,0-4.501,0-4.501,4.375V44.66c0,4.375,4.501,4.375,4.501,4.375H37.976z M9.708,5.414
		c0-2.261,2.422-2.261,2.422-2.261h25.728c0,0,2.433,0,2.433,2.261v34.871H9.708V5.414z M9.708,44.586v-2.114h30.583v2.114
		c0,2.261-2.433,2.261-2.433,2.261H12.131C12.131,46.847,9.708,46.847,9.708,44.586L9.708,44.586z M9.708,44.586"/>
</g>
<g id="XMLID_7_">
	<path id="XMLID_11_" style="fill:#FFFFFF;" d="M24.231,30.221v-2.021c-1.16-0.02-2.36-0.379-3.061-0.879l0.48-1.341
		c0.72,0.479,1.76,0.86,2.881,0.86c1.42,0,2.381-0.82,2.381-1.96c0-1.101-0.78-1.781-2.261-2.381c-2.041-0.8-3.301-1.72-3.301-3.46
		c0-1.661,1.18-2.921,3.021-3.221v-2.021h1.24v1.94c1.2,0.04,2.021,0.36,2.601,0.7l-0.5,1.32c-0.42-0.24-1.24-0.68-2.521-0.68
		c-1.541,0-2.121,0.92-2.121,1.72c0,1.041,0.74,1.561,2.48,2.281c2.061,0.84,3.101,1.88,3.101,3.661c0,1.58-1.101,3.061-3.161,3.401
		v2.08H24.231z"/>
</g>
<g id="XMLID_10_">
</g>
<g id="XMLID_13_">
</g>
<g id="XMLID_15_">
</g>
<g id="XMLID_16_">
</g>
<g id="XMLID_17_">
</g>
<g id="XMLID_18_">
</g>
</svg>
