<?xml version="1.0" encoding="iso-8859-1"?>
<!-- Generator: Adobe Illustrator 19.0.0, SVG Export Plug-In . SVG Version: 6.00 Build 0)  -->
<svg version="1.1" id="Layer_1" xmlns="http://www.w3.org/2000/svg" xmlns:xlink="http://www.w3.org/1999/xlink" x="0px" y="0px"
	 width="100px" height="100px" viewBox="0 0 100 100" style="enable-background:new 0 0 100 100;" xml:space="preserve">
<g id="XMLID_1_">
	<circle id="XMLID_36_" style="fill:#388BCA;" cx="8.769" cy="13.227" r="5.572"/>
</g>
<g id="XMLID_3_">
	<circle id="XMLID_35_" style="fill:#388BCA;" cx="67.829" cy="7.655" r="5.572"/>
</g>
<g id="XMLID_5_">
	<circle id="XMLID_34_" style="fill:#388BCA;" cx="44.428" cy="92.345" r="5.572"/>
</g>
<g id="XMLID_6_">
	<circle id="XMLID_33_" style="fill:#388BCA;" cx="28.27" cy="57.243" r="5.572"/>
</g>
<g id="XMLID_4_">
	<circle id="XMLID_32_" style="fill:#388BCA;" cx="94.016" cy="51.672" r="5.572"/>
</g>
<g id="XMLID_2_">
	
		<rect id="XMLID_31_" x="-3.532" y="34.678" transform="matrix(0.4422 0.8969 -0.8969 0.4422 41.9345 3.0442)" style="fill:#388BCA;" width="44.104" height="1.114"/>
</g>
<g id="XMLID_7_">
	
		<rect id="XMLID_30_" x="47.492" y="3.202" transform="matrix(0.7632 0.6461 -0.6461 0.7632 33.2425 -23.0333)" style="fill:#388BCA;" width="1.115" height="61.281"/>
</g>
<g id="XMLID_8_">
	
		<rect id="XMLID_29_" x="57.665" y="31.892" transform="matrix(0.563 0.8265 -0.8265 0.563 62.1847 -52.6999)" style="fill:#388BCA;" width="46.516" height="1.114"/>
</g>
<g id="XMLID_9_">
	
		<rect id="XMLID_28_" x="68.665" y="39.941" transform="matrix(0.6338 0.7735 -0.7735 0.6338 81.0444 -27.174)" style="fill:#388BCA;" width="1.114" height="64.135"/>
</g>
<g id="XMLID_10_">
	
		<rect id="XMLID_27_" x="17.028" y="74.237" transform="matrix(0.4181 0.9084 -0.9084 0.4181 89.0916 10.5004)" style="fill:#388BCA;" width="38.642" height="1.114"/>
</g>
<g id="XMLID_11_">
	
		<rect id="XMLID_26_" x="2.503" y="31.892" transform="matrix(0.9155 0.4024 -0.4024 0.9155 17.3054 -17.4872)" style="fill:#388BCA;" width="95.551" height="1.114"/>
</g>
<g id="XMLID_12_">
	
		<rect id="XMLID_25_" x="55.572" y="8.803" transform="matrix(0.9614 0.2752 -0.2752 0.9614 16.3132 -13.4638)" style="fill:#388BCA;" width="1.115" height="85.181"/>
</g>
<g id="XMLID_13_">
	
		<rect id="XMLID_24_" x="37.743" y="-19.22" transform="matrix(0.0938 0.9956 -0.9956 0.0938 45.102 -28.669)" style="fill:#388BCA;" width="1.114" height="59.322"/>
</g>
<g id="XMLID_14_">
	<circle id="XMLID_19_" style="fill:#388BCA;" cx="5.984" cy="79.53" r="5.572"/>
</g>
<g id="XMLID_15_">
	
		<rect id="XMLID_23_" x="6.819" y="15.425" transform="matrix(0.9991 0.043 -0.043 0.9991 2.0476 -0.2731)" style="fill:#388BCA;" width="1.114" height="64.135"/>
</g>
<g id="XMLID_16_">
	
		<rect id="XMLID_22_" x="7.653" y="85.38" transform="matrix(0.9411 0.3382 -0.3382 0.9411 30.6313 -3.9318)" style="fill:#388BCA;" width="37.892" height="1.115"/>
</g>
<g id="XMLID_17_">
	
		<rect id="XMLID_21_" x="17.963" y="53.58" transform="matrix(0.7529 0.6582 -0.6582 0.7529 49.5859 4.7108)" style="fill:#388BCA;" width="1.114" height="29.614"/>
</g>
<g id="XMLID_18_">
	
		<rect id="XMLID_20_" x="63.558" y="21.5" transform="matrix(0.0889 0.996 -0.996 0.0889 112.5206 -14.3699)" style="fill:#388BCA;" width="1.114" height="65.635"/>
</g>
<g id="XMLID_37_">
</g>
<g id="XMLID_38_">
</g>
<g id="XMLID_39_">
</g>
<g id="XMLID_40_">
</g>
<g id="XMLID_41_">
</g>
<g id="XMLID_42_">
</g>
</svg>
