<?xml version="1.0" encoding="iso-8859-1"?>
<!-- Generator: Adobe Illustrator 19.0.0, SVG Export Plug-In . SVG Version: 6.00 Build 0)  -->
<svg version="1.1" id="Layer_1" xmlns="http://www.w3.org/2000/svg" xmlns:xlink="http://www.w3.org/1999/xlink" x="0px" y="0px"
	 width="100px" height="100px" viewBox="0 0 100 100" style="enable-background:new 0 0 100 100;" xml:space="preserve">
<g>
	<path style="fill:#388BCA;" d="M65.122,41.489v4.804c0,1.079,0.863,1.942,1.941,1.942c1.078,0,1.942-0.863,1.942-1.942v-4.804
		c0-1.609-0.707-3.118-1.942-4.119c-3.687-3.02-7.609-5.217-9.453-6.178v-4.884c0.902-0.941,1.412-2.196,1.412-3.53v-7.021
		c0-4.55-3.706-8.257-8.257-8.257h-1.51c-4.55,0-8.257,3.707-8.257,8.257v7.021c0,1.334,0.51,2.589,1.413,3.53v4.864
		c-1.843,0.961-5.766,3.158-9.454,6.179c-1.235,1.02-1.941,2.51-1.941,4.118v4.805c0,1.078,0.863,1.941,1.941,1.941
		c1.079,0,1.942-0.863,1.942-1.941v-4.805c0-0.431,0.196-0.843,0.53-1.118c4.197-3.451,8.727-5.747,9.61-6.159
		c0.765-0.373,1.255-1.177,1.255-2.02v-6.767c0-0.647-0.333-1.254-0.863-1.608c-0.334-0.235-0.55-0.608-0.55-1.02v-7.021
		c0-2.412,1.961-4.374,4.374-4.374h1.51c2.412,0,4.374,1.961,4.374,4.374v7.021c0,0.412-0.196,0.784-0.549,1.02
		c-0.55,0.354-0.863,0.961-0.863,1.608v6.767c0,0.863,0.49,1.647,1.254,2.02c0.864,0.432,5.414,2.707,9.611,6.159
		C64.925,40.626,65.122,41.037,65.122,41.489L65.122,41.489z M65.122,41.489"/>
	<path style="fill:#388BCA;" d="M83.655,68.063c-0.549,0.353-0.863,0.961-0.863,1.609v6.766c0,0.863,0.49,1.648,1.255,2.021
		c0.863,0.431,5.413,2.726,9.61,6.158c0.333,0.275,0.53,0.686,0.53,1.118v4.805c0,1.079,0.863,1.942,1.941,1.942
		c1.079,0,1.942-0.863,1.942-1.942v-4.805c0-1.609-0.706-3.119-1.942-4.119c-3.687-3.02-7.609-5.217-9.453-6.178v-4.884
		c0.902-0.941,1.412-2.197,1.412-3.53v-7.021c0-4.55-3.707-8.257-8.257-8.257h-1.51c-4.551,0-8.257,3.707-8.257,8.257v7.021
		c0,1.333,0.509,2.588,1.412,3.53v4.884c-1.844,0.961-5.766,3.157-9.453,6.178c-1.236,1.02-1.942,2.53-1.942,4.119v4.805
		c0,1.079,0.863,1.942,1.942,1.942c1.078,0,1.941-0.863,1.941-1.942v-4.805c0-0.432,0.196-0.844,0.53-1.118
		c4.197-3.452,8.728-5.746,9.61-6.158c0.765-0.372,1.256-1.177,1.256-2.021v-6.766c0-0.647-0.333-1.256-0.863-1.609
		c-0.333-0.236-0.549-0.608-0.549-1.02v-7.021c0-2.412,1.961-4.374,4.374-4.374h1.51c2.412,0,4.374,1.961,4.374,4.374v7.021
		C84.205,67.455,84.008,67.827,83.655,68.063L83.655,68.063z M83.655,68.063"/>
	<path style="fill:#388BCA;" d="M36.036,85.753v4.806c0,1.078,0.863,1.941,1.941,1.941c1.079,0,1.942-0.863,1.942-1.941v-4.806
		c0-1.608-0.707-3.118-1.942-4.119c-3.687-3.02-7.609-5.216-9.453-6.178v-4.883c0.902-0.941,1.412-2.197,1.412-3.531v-7.021
		c0-4.55-3.706-8.257-8.257-8.257h-1.51c-4.55,0-8.257,3.707-8.257,8.257v7.021c0,1.334,0.51,2.589,1.412,3.531v4.883
		c-1.843,0.962-5.766,3.157-9.453,6.178c-1.236,1.02-1.942,2.511-1.942,4.119v4.806c0,1.078,0.863,1.941,1.942,1.941
		c1.078,0,1.941-0.863,1.941-1.941v-4.806c0-0.431,0.196-0.843,0.53-1.117c4.197-3.452,8.728-5.747,9.61-6.159
		c0.784-0.373,1.255-1.157,1.255-2.02v-6.767c0-0.647-0.333-1.255-0.863-1.608c-0.333-0.236-0.55-0.608-0.55-1.02v-7.021
		c0-2.412,1.961-4.374,4.373-4.374h1.51c2.412,0,4.373,1.961,4.373,4.374v7.021c0,0.412-0.195,0.784-0.549,1.02
		c-0.549,0.353-0.863,0.961-0.863,1.608v6.767c0,0.863,0.49,1.647,1.255,2.02c0.863,0.432,5.413,2.706,9.61,6.159
		C35.84,84.911,36.036,85.302,36.036,85.753L36.036,85.753z M36.036,85.753"/>
	<path style="fill:#388BCA;" d="M50,76.183c1.079,0,1.942-0.863,1.942-1.942v-2.607h0.215c3.668,0,6.668-2.981,6.668-6.669
		c0-3.687-2.98-6.668-6.668-6.668h-4.314c-1.53,0-2.785-1.255-2.785-2.785c0-1.529,1.254-2.766,2.785-2.766h7.589
		c1.079,0,1.942-0.863,1.942-1.941c0-1.079-0.863-1.942-1.942-1.942h-3.51v-2.569c0-1.078-0.864-1.941-1.942-1.941
		c-1.078,0-1.942,0.863-1.942,1.941v2.569h-0.195c-3.668,0-6.669,2.981-6.669,6.669c0,3.667,2.981,6.668,6.669,6.668h4.314
		c1.53,0,2.785,1.254,2.785,2.785c0,1.53-1.254,2.785-2.785,2.785h-7.746c-1.079,0-1.942,0.863-1.942,1.942
		c0,1.078,0.863,1.941,1.942,1.941h3.648v2.608C48.058,75.32,48.921,76.183,50,76.183L50,76.183z M50,76.183"/>
</g>
<g id="XMLID_9_">
</g>
<g id="XMLID_10_">
</g>
<g id="XMLID_11_">
</g>
<g id="XMLID_12_">
</g>
<g id="XMLID_13_">
</g>
<g id="XMLID_14_">
</g>
</svg>
