<?xml version="1.0" encoding="iso-8859-1"?>
<!-- Generator: Adobe Illustrator 19.0.0, SVG Export Plug-In . SVG Version: 6.00 Build 0)  -->
<svg version="1.1" id="Layer_1" xmlns="http://www.w3.org/2000/svg" xmlns:xlink="http://www.w3.org/1999/xlink" x="0px" y="0px"
	 width="50px" height="50px" viewBox="0 0 50 50" style="enable-background:new 0 0 50 50;" xml:space="preserve">
<g id="XMLID_11_">
	<path id="XMLID_10_" style="fill:#FFFFFF;" d="M38.169,37.156c-0.559,0-1.013-0.454-1.013-1.013s0.454-1.013,1.013-1.013
		c5.027,0,9.117-4.091,9.117-9.117s-4.091-9.117-9.117-9.117c-0.438-0.01-1.09-0.348-1.161-0.855
		C36.091,9.598,30.493,4.74,23.987,4.74c-7.261,0-13.169,5.908-13.169,13.169c0,0.571,0.049,1.175,0.154,1.898
		c0.043,0.294-0.047,0.592-0.243,0.814c-0.197,0.223-0.511,0.316-0.778,0.342c-0.045,0-0.17-0.012-0.215-0.02
		c-3.841,0.004-7.022,3.185-7.022,7.095s3.181,7.091,7.091,7.091c0.559,0,1.013,0.454,1.013,1.013s-0.454,1.013-1.013,1.013
		c-5.027,0-9.117-4.091-9.117-9.117c0-4.7,3.576-8.58,8.149-9.067c-0.03-0.371-0.045-0.721-0.045-1.064
		c0-8.38,6.816-15.195,15.195-15.195c7.221,0,13.475,5.189,14.883,12.203c5.9,0.423,10.442,5.239,10.442,11.097
		C49.312,32.158,44.312,37.156,38.169,37.156z"/>
	<path style="fill:#FFFFFF;" d="M23.987,47.286c-6.143,0-11.143-4.998-11.143-11.143S17.844,25,23.987,25S35.13,29.998,35.13,36.143
		S30.13,47.286,23.987,47.286z M23.987,27.026c-5.027,0-9.117,4.091-9.117,9.117s4.091,9.117,9.117,9.117s9.117-4.091,9.117-9.117
		S29.014,27.026,23.987,27.026z"/>
	<path style="fill:#FFFFFF;" d="M26.013,41.208h-6.078c-0.559,0-1.013-0.454-1.013-1.013v-8.104c0-0.559,0.454-1.013,1.013-1.013
		h6.078c1.676,0,3.039,1.364,3.039,3.039c0,0.778-0.294,1.487-0.776,2.026c0.482,0.539,0.776,1.248,0.776,2.026
		C29.052,39.845,27.689,41.208,26.013,41.208z M20.948,39.182h5.065c0.557,0,1.013-0.454,1.013-1.013s-0.456-1.013-1.013-1.013
		h-5.065V39.182z M20.948,35.13h5.065c0.557,0,1.013-0.454,1.013-1.013c0-0.559-0.456-1.013-1.013-1.013h-5.065V35.13z"/>
	<path id="XMLID_4_" style="fill:#FFFFFF;" d="M21.961,33.104c-0.559,0-1.013-0.454-1.013-1.013v-2.026
		c0-0.559,0.454-1.013,1.013-1.013c0.559,0,1.013,0.454,1.013,1.013v2.026C22.974,32.65,22.52,33.104,21.961,33.104z"/>
	<path id="XMLID_3_" style="fill:#FFFFFF;" d="M21.961,43.234c-0.559,0-1.013-0.454-1.013-1.013v-2.026
		c0-0.559,0.454-1.013,1.013-1.013c0.559,0,1.013,0.454,1.013,1.013v2.026C22.974,42.781,22.52,43.234,21.961,43.234z"/>
	<path id="XMLID_2_" style="fill:#FFFFFF;" d="M26.013,33.104c-0.559,0-1.013-0.454-1.013-1.013v-2.026
		c0-0.559,0.454-1.013,1.013-1.013c0.559,0,1.013,0.454,1.013,1.013v2.026C27.026,32.65,26.572,33.104,26.013,33.104z"/>
	<path id="XMLID_1_" style="fill:#FFFFFF;" d="M26.013,43.234c-0.559,0-1.013-0.454-1.013-1.013v-2.026
		c0-0.559,0.454-1.013,1.013-1.013c0.559,0,1.013,0.454,1.013,1.013v2.026C27.026,42.781,26.572,43.234,26.013,43.234z"/>
</g>
<g id="XMLID_12_">
</g>
<g id="XMLID_13_">
</g>
<g id="XMLID_14_">
</g>
<g id="XMLID_15_">
</g>
<g id="XMLID_16_">
</g>
<g id="XMLID_17_">
</g>
</svg>
