<?xml version="1.0" encoding="iso-8859-1"?>
<!-- Generator: Adobe Illustrator 19.0.0, SVG Export Plug-In . SVG Version: 6.00 Build 0)  -->
<svg version="1.1" id="Layer_1" xmlns="http://www.w3.org/2000/svg" xmlns:xlink="http://www.w3.org/1999/xlink" x="0px" y="0px"
	 width="50px" height="50px" viewBox="0 0 50 50" style="enable-background:new 0 0 50 50;" xml:space="preserve">
<g id="hand-coins-euro-dollar-bitcoin">
	<g>
		<g id="_x32_6">
			<g>
				<g id="_x39_">
					<g>
						<path id="XMLID_11_" style="fill:#FFFFFF;" d="M42.19,26.761c-6.32,9.609-7.692,10.829-7.692,10.829
							c-1.022,1.749-3.311,2.592-5.125,3.319c-5.212,2.096-9.999,5.242-11.925,8.504H6.279c-2.025-13.394,6.177-13.394,6.177-13.394
							c1.022-0.116,3.191-0.371,5.582-0.349c10.483-0.116,12.875-2.97,12.875-2.97c2.504-2.968,3.073-4.019,7.52-9.956
							c2.744-3.674,3.511-2.335,4.564-1.799C45.753,22.353,42.19,26.761,42.19,26.761z"/>
					</g>
				</g>
				<g>
					<path id="XMLID_10_" style="fill:#FFFFFF;" d="M32.162,5.306c-3.757,0-6.803,3.044-6.803,6.799s3.046,6.801,6.803,6.801
						c3.755,0,6.799-3.046,6.799-6.801S35.917,5.306,32.162,5.306z"/>
					<path style="fill:#398BCA;" d="M29.755,13.537c0.044,0.973,0.889,1.554,2.056,1.695v-2.896
						c-2.056-0.372-2.989-0.831-2.989-2.11c0-1.322,1.312-2.219,2.989-2.295V7.207h0.801v0.733c1.574,0.142,2.492,0.906,2.87,2.164
						h-1.24c-0.188-0.71-0.757-1.146-1.631-1.267v2.687l0.874,0.176c0.743,0.141,2.319,0.688,2.319,2.032
						c0,1.41-1.343,2.263-3.193,2.372v0.896h-0.801v-0.896c-1.909-0.141-3.135-1.06-3.296-2.568H29.755z M31.811,8.804
						c-0.933,0.078-1.676,0.492-1.676,1.322c0,0.776,0.699,1.018,1.676,1.237V8.804z M32.612,15.231
						c1.095-0.065,1.879-0.46,1.879-1.399c0-0.832-0.816-1.115-1.879-1.344V15.231z"/>
				</g>
				<g>
					<path id="XMLID_6_" style="fill:#FFFFFF;" d="M19.212,15.501c-4.507,0-8.161,3.654-8.161,8.162
						c0,4.505,3.654,8.159,8.161,8.159c4.508,0,8.162-3.654,8.162-8.159C27.375,19.155,23.72,15.501,19.212,15.501z"/>
					<path style="fill:#398BCA;" d="M21.915,23.522v-0.021c0.936-0.286,1.501-0.893,1.501-1.698c0-0.743-0.524-1.284-1.188-1.581
						c-0.44-0.2-1.177-0.256-1.888-0.269v-1.84h-0.761v1.833c-0.007,0-0.017,0-0.025,0h-1.571v-1.833h-0.762v1.833H15.89v7.576
						h1.332v1.688h0.762v-1.688h1.595v1.688h0.761v-1.688h0.43c2.01,0,3.071-1.062,3.071-2.175
						C23.841,24.414,23.161,23.714,21.915,23.522z M19.895,20.915c1.044,0,1.936,0.133,1.936,1.08c0,0.716-0.561,1.089-1.936,1.089
						h-2.42v-2.169H19.895z M20.527,26.543h-3.03v-2.358h2.763c1.019,0,1.973,0.248,1.973,1.137
						C22.233,26.064,21.572,26.543,20.527,26.543z"/>
				</g>
			</g>
			<g>
				<path id="XMLID_2_" style="fill:#FFFFFF;" d="M18.102,0.587c-3.248,0-5.881,2.632-5.881,5.88s2.633,5.88,5.881,5.88
					s5.882-2.632,5.882-5.88S21.35,0.587,18.102,0.587z"/>
				<path id="XMLID_1_" style="fill:#398BCA;" d="M20.508,4.329c-0.596-0.438-1.194-0.657-1.816-0.657
					c-0.634,0-1.156,0.201-1.574,0.61c-0.343,0.333-0.571,0.751-0.711,1.275h3.593l-0.343,0.582h-3.341
					c-0.012,0.104-0.012,0.208-0.012,0.295c0,0.076,0,0.143,0.012,0.199h3.162L19.15,7.215h-2.768
					c0.279,1.364,1.08,2.048,2.413,2.048c0.406,0,0.761-0.057,1.078-0.181c0.242-0.094,0.535-0.267,0.876-0.504v0.999
					c-0.572,0.277-1.232,0.418-1.955,0.418c-2.07,0-3.29-0.922-3.645-2.781h-0.978l0.343-0.582h0.585
					c-0.012-0.065-0.012-0.133-0.012-0.19c0-0.114,0-0.219,0.012-0.304h-0.927l0.329-0.582h0.687c0.203-0.77,0.584-1.39,1.155-1.848
					c0.635-0.514,1.447-0.771,2.451-0.771c0.774,0,1.537,0.199,2.298,0.6L20.508,4.329z"/>
			</g>
		</g>
	</g>
</g>
<g id="Layer_1_1_">
</g>
<g id="XMLID_12_">
</g>
<g id="XMLID_13_">
</g>
<g id="XMLID_14_">
</g>
<g id="XMLID_15_">
</g>
<g id="XMLID_16_">
</g>
<g id="XMLID_17_">
</g>
</svg>
