<?xml version="1.0" encoding="iso-8859-1"?>
<!-- Generator: Adobe Illustrator 19.0.0, SVG Export Plug-In . SVG Version: 6.00 Build 0)  -->
<svg version="1.1" id="Layer_1" xmlns="http://www.w3.org/2000/svg" xmlns:xlink="http://www.w3.org/1999/xlink" x="0px" y="0px"
	 width="50px" height="50px" viewBox="0 0 50 50" style="enable-background:new 0 0 50 50;" xml:space="preserve">
<g>
	<g>
		<path style="fill:#FFFFFF;" d="M36.009,46.906c-0.088,0-0.175-0.012-0.261-0.035c-0.249-0.07-0.459-0.236-0.588-0.459
			l-7.193-12.73c-0.265-0.467-0.099-1.061,0.366-1.326c2.147-1.217,3.479-3.479,3.479-5.902c0-3.757-3.056-6.813-6.813-6.813
			s-6.813,3.056-6.813,6.813c0,2.424,1.333,4.686,3.479,5.902c0.465,0.265,0.631,0.858,0.366,1.326l-7.191,12.73
			c-0.127,0.224-0.339,0.389-0.588,0.459c-0.249,0.068-0.516,0.035-0.74-0.091C6.189,42.631,1.639,34.843,1.639,26.454
			C1.639,13.573,12.119,3.094,25,3.094s23.361,10.479,23.361,23.361c0,8.39-4.549,16.179-11.873,20.326
			C36.342,46.864,36.176,46.906,36.009,46.906z M30.114,33.525l6.253,11.063c6.222-3.909,10.047-10.769,10.047-18.134
			C46.414,14.647,36.807,5.04,25,5.04S3.586,14.647,3.586,26.454c0,7.364,3.825,14.225,10.047,18.134l6.253-11.063
			c-2.27-1.641-3.646-4.269-3.646-7.07c0-4.83,3.93-8.76,8.76-8.76s8.76,3.93,8.76,8.76C33.76,29.256,32.384,31.884,30.114,33.525z"
			/>
	</g>
</g>
<g id="XMLID_3_">
</g>
<g id="XMLID_4_">
</g>
<g id="XMLID_5_">
</g>
<g id="XMLID_6_">
</g>
<g id="XMLID_7_">
</g>
<g id="XMLID_8_">
</g>
</svg>
