<?xml version="1.0" encoding="utf-8"?>
<!-- Generator: Adobe Illustrator 19.0.0, SVG Export Plug-In . SVG Version: 6.00 Build 0)  -->
<svg version="1.1" id="Layer_1" xmlns="http://www.w3.org/2000/svg" xmlns:xlink="http://www.w3.org/1999/xlink" x="0px" y="0px"
	 width="50px" height="50px" viewBox="0 0 50 50" style="enable-background:new 0 0 50 50;" xml:space="preserve">
<style type="text/css">
	.st0{fill:#FFFFFF;}
</style>
<g id="XMLID_2_">
	<g id="XMLID_3_">
		<g id="XMLID_17_">
			<path id="XMLID_24_" class="st0" d="M29.4,43.2h-8.9c-0.9,0-1.6-0.7-1.6-1.6c0-0.9,0.7-1.6,1.6-1.6h8.9c0.9,0,1.6,0.7,1.6,1.6
				C31,42.5,30.3,43.2,29.4,43.2z M20.5,40.7c-0.5,0-0.9,0.4-0.9,0.9c0,0.5,0.4,0.9,0.9,0.9h8.9c0.5,0,0.9-0.4,0.9-0.9
				c0-0.5-0.4-0.9-0.9-0.9H20.5z"/>
			<path id="XMLID_21_" class="st0" d="M24.9,49.5c-1.2,0-2.3-0.8-2.6-2c-1.6-0.2-2.8-1.6-2.8-3.2v-0.4h10.9v0.4
				c0,1.6-1.2,3-2.8,3.2C27.2,48.7,26.2,49.5,24.9,49.5z M20.3,44.6c0.2,1.2,1.2,2.1,2.4,2.2l0.3,0l0,0.3c0.1,1,1,1.7,1.9,1.7
				c1,0,1.8-0.7,1.9-1.7l0-0.3l0.3,0c1.2-0.1,2.2-1,2.4-2.2H20.3z"/>
			<path id="XMLID_18_" class="st0" d="M30.8,39.2H19v-4.3c-1.1-1.9-2.5-3.9-3.8-5.6c-1.7-2.2-2.7-4.9-2.7-7.7
				c0-6.9,5.6-12.4,12.4-12.4c6.9,0,12.4,5.6,12.4,12.4c0,2.8-0.9,5.5-2.7,7.7C33.5,30.9,32,33,30.8,35V39.2z M19.7,38.4h10.3v-3.6
				l0.1-0.1c1.2-2.1,2.7-4.3,4-5.9c1.6-2.1,2.5-4.6,2.5-7.2c0-6.4-5.2-11.7-11.7-11.7c-6.4,0-11.7,5.2-11.7,11.7
				c0,2.6,0.9,5.1,2.5,7.2c1.4,1.8,2.8,3.8,3.9,5.8l0.1,0.1V38.4z"/>
		</g>
		
			<rect id="XMLID_16_" x="15.4" y="31.7" transform="matrix(0.214 0.9768 -0.9768 0.214 48.6076 3.7887)" class="st0" width="13.2" height="0.8"/>
		
			<rect id="XMLID_15_" x="27.5" y="25.5" transform="matrix(0.9778 0.2096 -0.2096 0.9778 7.375 -5.1274)" class="st0" width="0.7" height="13.5"/>
		<rect id="XMLID_14_" x="22.9" y="46.8" class="st0" width="4.2" height="0.7"/>
		<polygon id="XMLID_13_" class="st0" points="24.3,30.1 23.5,27.2 21.5,28.6 21.2,28.1 23.9,26.4 24.4,28.4 25.7,25.1 26.9,28.3 
			28.9,27.4 29.1,27.9 26.6,29 25.7,26.6 		"/>
		<path id="XMLID_12_" class="st0" d="M25.4,6.6c-0.2,0-0.3-0.1-0.3-0.3V0.8c0-0.2,0.1-0.3,0.3-0.3s0.3,0.1,0.3,0.3v5.5
			C25.7,6.5,25.6,6.6,25.4,6.6z"/>
		<path id="XMLID_11_" class="st0" d="M33.9,8.7c-0.1,0-0.1,0-0.2,0c-0.2-0.1-0.2-0.3-0.1-0.4l2.9-4.7c0.1-0.2,0.3-0.2,0.4-0.1
			C37,3.5,37.1,3.7,37,3.8l-2.9,4.7C34.1,8.6,34,8.7,33.9,8.7z"/>
		<path id="XMLID_10_" class="st0" d="M39.1,15.4c-0.1,0-0.2-0.1-0.3-0.2c-0.1-0.2,0-0.3,0.1-0.4l4.9-2.6c0.2-0.1,0.3,0,0.4,0.1
			c0.1,0.2,0,0.3-0.1,0.4l-4.9,2.6C39.2,15.3,39.2,15.4,39.1,15.4z"/>
		<path id="XMLID_9_" class="st0" d="M46.2,23.2C46.2,23.2,46.2,23.2,46.2,23.2l-5.5-0.4c-0.2,0-0.3-0.2-0.3-0.3
			c0-0.2,0.2-0.3,0.3-0.3l5.5,0.4c0.2,0,0.3,0.2,0.3,0.3C46.5,23.1,46.4,23.2,46.2,23.2z"/>
		<path id="XMLID_8_" class="st0" d="M42.7,34.4c-0.1,0-0.1,0-0.2-0.1L38,31.1c-0.1-0.1-0.2-0.3-0.1-0.4c0.1-0.1,0.3-0.2,0.4-0.1
			l4.5,3.2c0.1,0.1,0.2,0.3,0.1,0.4C42.9,34.3,42.8,34.4,42.7,34.4z"/>
		<path id="XMLID_7_" class="st0" d="M16.1,8.7c-0.1,0-0.2-0.1-0.3-0.2L13,3.8c-0.1-0.2,0-0.3,0.1-0.4c0.2-0.1,0.3,0,0.4,0.1
			l2.9,4.7c0.1,0.2,0,0.3-0.1,0.4C16.2,8.7,16.2,8.7,16.1,8.7z"/>
		<path id="XMLID_6_" class="st0" d="M10.9,15.4c0,0-0.1,0-0.1,0l-4.9-2.6c-0.2-0.1-0.2-0.3-0.1-0.4c0.1-0.2,0.3-0.2,0.4-0.1
			l4.9,2.6c0.2,0.1,0.2,0.3,0.1,0.4C11.1,15.3,11,15.4,10.9,15.4z"/>
		<path id="XMLID_5_" class="st0" d="M3.8,23.2c-0.2,0-0.3-0.1-0.3-0.3c0-0.2,0.1-0.3,0.3-0.3l5.5-0.4c0.2,0,0.3,0.1,0.3,0.3
			c0,0.2-0.1,0.3-0.3,0.3L3.8,23.2C3.8,23.2,3.8,23.2,3.8,23.2z"/>
		<path id="XMLID_4_" class="st0" d="M7.3,34.4c-0.1,0-0.2,0-0.3-0.1c-0.1-0.1-0.1-0.3,0.1-0.4l4.5-3.2c0.1-0.1,0.3-0.1,0.4,0.1
			c0.1,0.1,0.1,0.3-0.1,0.4l-4.5,3.2C7.4,34.3,7.3,34.4,7.3,34.4z"/>
	</g>
</g>
</svg>
