<?xml version="1.0" encoding="iso-8859-1"?>
<!-- Generator: Adobe Illustrator 19.0.0, SVG Export Plug-In . SVG Version: 6.00 Build 0)  -->
<svg version="1.1" id="Layer_1" xmlns="http://www.w3.org/2000/svg" xmlns:xlink="http://www.w3.org/1999/xlink" x="0px" y="0px"
	 width="50px" height="50px" viewBox="182 372 50 50" style="enable-background:new 182 372 50 50;" xml:space="preserve">
<path style="fill:#FFFFFF;" d="M231.37,409.059v-35.675H182.63v35.675h16.581v6.03h-3.229l-2.764,5.527h27.562l-2.764-5.527h-3.732
	v-6.03H231.37z M184.138,393.697l12.361-6.18c0.702,0.904,1.782,1.444,2.964,1.444c1.196,0,2.305-0.564,3.01-1.499l4.894,2.337
	c-0.076,0.299-0.116,0.606-0.116,0.92c0,2.078,1.691,3.768,3.769,3.768s3.769-1.69,3.769-3.768c0-0.398-0.066-0.797-0.193-1.178
	l4.148-2.363c0.705,0.803,1.734,1.281,2.828,1.281c1.189,0,2.297-0.566,2.995-1.488l5.296,2.703v9.839h-45.725V393.697z
	 M197.202,385.192c0-1.247,1.014-2.261,2.261-2.261s2.261,1.014,2.261,2.261c0,0.382-0.093,0.754-0.271,1.078
	c-0.396,0.73-1.159,1.183-1.991,1.183c-0.863,0-1.636-0.479-2.018-1.249l-0.001-0.003
	C197.286,385.885,197.202,385.536,197.202,385.192z M213.281,390.719c0,1.247-1.014,2.261-2.261,2.261
	c-1.247,0-2.261-1.014-2.261-2.261c0-0.341,0.076-0.669,0.228-0.983c0.369-0.777,1.167-1.278,2.033-1.278
	c0.81,0,1.56,0.435,1.957,1.135l0,0.001C213.176,389.944,213.281,390.333,213.281,390.719z M219.31,384.69
	c0-1.247,1.014-2.261,2.261-2.261s2.261,1.014,2.261,2.261c0,0.349-0.073,0.67-0.218,0.953l-0.013,0.026
	c-0.363,0.779-1.159,1.283-2.03,1.283c-0.81,0-1.56-0.435-1.957-1.135l0-0.001C219.415,385.465,219.31,385.076,219.31,384.69z
	 M229.862,374.891v13.089l-4.637-2.367c0.076-0.295,0.115-0.604,0.115-0.924c0-2.078-1.691-3.768-3.769-3.768
	s-3.769,1.69-3.769,3.768c0,0.398,0.066,0.797,0.193,1.178l-4.148,2.363c-0.705-0.803-1.734-1.281-2.828-1.281
	c-1.188,0-2.3,0.569-2.999,1.491l-4.899-2.34c0.072-0.295,0.11-0.601,0.11-0.909c0-2.078-1.691-3.769-3.769-3.769
	s-3.769,1.691-3.769,3.769c0,0.327,0.046,0.656,0.133,0.975l-11.689,5.845v-17.121H229.862z M184.138,407.552v-6.532h45.725v6.532
	H184.138z M217.086,416.596l1.256,2.512h-22.684l1.256-2.512h13.603v-1.507h-9.798v-6.03h12.059v7.537H217.086z"/>
<polygon style="fill:#FFFFFF;" points="206.071,396.859 210.784,396.859 210.784,395.352 205.447,395.352 203.216,397.582 
	204.282,398.648 "/>
<rect x="203.483" y="396.246" style="fill:#FFFFFF;" width="7.035" height="1.507"/>
<rect x="204.236" y="396.246" style="fill:#FFFFFF;" width="5.527" height="1.507"/>
<rect x="205.995" y="396.246" style="fill:#FFFFFF;" width="2.01" height="1.507"/>
<rect x="202.478" y="396.246" style="fill:#FFFFFF;" width="9.044" height="1.507"/>
<rect x="205.995" y="396.246" style="fill:#FFFFFF;" width="2.01" height="1.507"/>
<rect x="205.995" y="396.246" style="fill:#FFFFFF;" width="2.01" height="1.507"/>
</svg>
