<?xml version="1.0" encoding="iso-8859-1"?>
<!-- Generator: Adobe Illustrator 19.0.0, SVG Export Plug-In . SVG Version: 6.00 Build 0)  -->
<svg version="1.1" id="Layer_1" xmlns="http://www.w3.org/2000/svg" xmlns:xlink="http://www.w3.org/1999/xlink" x="0px" y="0px"
	 width="50px" height="50px" viewBox="0 0 50 50" style="enable-background:new 0 0 50 50;" xml:space="preserve">
<g id="XMLID_2_" transform="translate(1 1)">
	<path id="XMLID_15_" style="fill:#FFFFFF;" d="M32.69,44.115H15.31c-0.402,0-0.805-0.241-0.966-0.724
		c-0.161-0.402,0-0.885,0.402-1.126l1.448-1.046c1.287-0.885,1.931-2.575,1.529-4.184l-0.241-0.966h13.276l-0.563,1.046
		c-0.322,1.609,0.241,3.218,1.529,4.103l1.448,1.046c0.322,0.241,0.483,0.724,0.402,1.126C33.494,43.874,33.092,44.115,32.69,44.115
		z M32.287,43.632L32.287,43.632L32.287,43.632z M15.713,43.632L15.713,43.632L15.713,43.632z M17.241,42.506h13.437
		c-1.448-1.126-2.333-2.977-2.172-4.828h-9.011C19.575,39.529,18.77,41.379,17.241,42.506z"/>
	<path id="XMLID_12_" style="fill:#FFFFFF;" d="M44.517,37.678H3.483c-2.011,0-3.621-1.609-3.621-3.621V4.287
		c0-2.011,1.609-3.621,3.621-3.621h41.034c2.011,0,3.621,1.609,3.621,3.621v29.77C48.138,36.069,46.529,37.678,44.517,37.678z
		 M3.483,2.276c-1.126,0-2.011,0.885-2.011,2.011v29.77c0,1.126,0.885,2.011,2.011,2.011h41.034c1.126,0,2.011-0.885,2.011-2.011
		V4.287c0-1.126-0.885-2.011-2.011-2.011H3.483z"/>
	<path id="XMLID_9_" style="fill:#FFFFFF;" d="M48.138,30.437H-0.138V4.287c0-2.011,1.609-3.621,3.621-3.621h41.034
		c2.011,0,3.621,1.609,3.621,3.621V30.437z M1.471,28.828h45.057V4.287c0-1.126-0.885-2.011-2.011-2.011H3.483
		c-1.126,0-2.011,0.885-2.011,2.011V28.828z"/>
	<path id="XMLID_6_" style="fill:#FFFFFF;" d="M32.851,47.333H15.149c-1.368,0-2.414-1.046-2.414-2.414s1.046-2.414,2.414-2.414
		h17.701c1.368,0,2.414,1.046,2.414,2.414S34.218,47.333,32.851,47.333z M15.149,44.115c-0.483,0-0.805,0.322-0.805,0.805
		s0.322,0.805,0.805,0.805h17.701c0.483,0,0.805-0.322,0.805-0.805s-0.322-0.805-0.805-0.805H15.149z"/>
	<path id="XMLID_5_" style="fill:#FFFFFF;" d="M19.172,23.195c-0.241,0-0.402-0.08-0.563-0.241l-6.356-6.356
		c-0.08-0.08-0.161-0.161-0.241-0.322c-0.161-0.322-0.08-0.644,0.161-0.885l6.437-6.437c0.322-0.322,0.805-0.322,1.126,0
		c0.322,0.322,0.322,0.805,0,1.126l-5.874,5.874l5.874,5.874c0.322,0.322,0.322,0.805,0,1.126
		C19.575,23.115,19.414,23.195,19.172,23.195z"/>
	<path id="XMLID_4_" style="fill:#FFFFFF;" d="M28.828,23.195c-0.241,0-0.402-0.08-0.563-0.241c-0.322-0.322-0.322-0.805,0-1.126
		l5.874-5.874l-5.874-5.874c-0.322-0.322-0.322-0.805,0-1.126c0.322-0.322,0.805-0.322,1.126,0l6.356,6.356
		c0.08,0.08,0.161,0.161,0.241,0.322c0.161,0.322,0.08,0.644-0.161,0.885l-6.437,6.437C29.23,23.115,29.069,23.195,28.828,23.195z"
		/>
	<path id="XMLID_3_" style="fill:#FFFFFF;" d="M22.391,23.195c-0.08,0-0.161,0-0.161,0c-0.402-0.08-0.724-0.563-0.563-0.966
		l3.218-12.874c0.08-0.402,0.563-0.724,0.966-0.563c0.402,0.08,0.724,0.563,0.563,0.966l-3.218,12.874
		C23.115,22.954,22.793,23.195,22.391,23.195z"/>
</g>
<g id="XMLID_1_">
</g>
<g id="XMLID_20_">
</g>
<g id="XMLID_21_">
</g>
<g id="XMLID_22_">
</g>
<g id="XMLID_23_">
</g>
<g id="XMLID_24_">
</g>
</svg>
