<?xml version="1.0" encoding="iso-8859-1"?>
<!-- Generator: Adobe Illustrator 19.0.0, SVG Export Plug-In . SVG Version: 6.00 Build 0)  -->
<svg version="1.1" id="Layer_1" xmlns="http://www.w3.org/2000/svg" xmlns:xlink="http://www.w3.org/1999/xlink" x="0px" y="0px"
	 width="50px" height="50px" viewBox="0 0 50 50" style="enable-background:new 0 0 50 50;" xml:space="preserve">
<circle id="XMLID_1_" style="fill:#FFFFFF;stroke:#FFFFFF;stroke-miterlimit:10;" cx="25" cy="25" r="10"/>
<g id="XMLID_2_">
	<path id="XMLID_12_" style="fill:#FFFFFF;" d="M24.468,30.236v-1.394c-0.8-0.014-1.628-0.262-2.111-0.606l0.331-0.925
		c0.497,0.331,1.214,0.594,1.986,0.594c0.979,0,1.642-0.565,1.642-1.353c0-0.758-0.538-1.228-1.559-1.641
		c-1.407-0.553-2.276-1.187-2.276-2.387c0-1.145,0.813-2.014,2.083-2.221v-1.394h0.855v1.338c0.827,0.028,1.393,0.249,1.793,0.483
		l-0.345,0.911c-0.29-0.166-0.855-0.469-1.738-0.469c-1.063,0-1.462,0.635-1.462,1.187c0,0.717,0.51,1.076,1.71,1.573
		c1.42,0.579,2.138,1.296,2.138,2.524c0,1.089-0.759,2.11-2.18,2.345v1.435H24.468z"/>
</g>
<circle id="XMLID_10_" style="fill:#FFFFFF;" cx="25" cy="46.28" r="2.72"/>
<line id="XMLID_3_" style="fill:none;stroke:#FFFFFF;stroke-miterlimit:10;" x1="25" y1="35" x2="25" y2="45.417"/>
<circle id="XMLID_5_" style="fill:#FFFFFF;" cx="46.697" cy="24.083" r="2.72"/>
<line id="XMLID_4_" style="fill:none;stroke:#FFFFFF;stroke-miterlimit:10;" x1="34.958" y1="24.083" x2="44.833" y2="24.083"/>
<circle id="XMLID_7_" style="fill:#FFFFFF;" cx="25" cy="3.72" r="2.72"/>
<line id="XMLID_6_" style="fill:none;stroke:#FFFFFF;stroke-miterlimit:10;" x1="25" y1="15" x2="25" y2="4.583"/>
<circle id="XMLID_9_" style="fill:#FFFFFF;" cx="3.72" cy="24.083" r="2.72"/>
<line id="XMLID_8_" style="fill:none;stroke:#FFFFFF;stroke-miterlimit:10;" x1="15.459" y1="24.083" x2="5.583" y2="24.083"/>
<g id="XMLID_11_">
</g>
<g id="XMLID_14_">
</g>
<g id="XMLID_15_">
</g>
<g id="XMLID_16_">
</g>
<g id="XMLID_17_">
</g>
<g id="XMLID_18_">
</g>
</svg>
