<?xml version="1.0" encoding="utf-8"?>
<!-- Generator: Adobe Illustrator 19.0.0, SVG Export Plug-In . SVG Version: 6.00 Build 0)  -->
<svg version="1.1" id="Layer_1" xmlns="http://www.w3.org/2000/svg" xmlns:xlink="http://www.w3.org/1999/xlink" x="0px" y="0px"
	 width="100px" height="100px" viewBox="0 0 100 100" style="enable-background:new 0 0 100 100;" xml:space="preserve">
<g id="XMLID_2_">
	<g id="XMLID_82_">
		<path id="XMLID_30_" d="M91.6,70.5H8.4c-0.6,0-1-0.5-1-1V22.9c0-2.1,1.7-3.8,3.8-3.8h77.5c2.1,0,3.8,1.7,3.8,3.8v46.6
			C92.6,70.1,92.1,70.5,91.6,70.5z M9.5,68.4h81V22.9c0-1-0.8-1.7-1.7-1.7H11.2c-1,0-1.7,0.8-1.7,1.7V68.4z"/>
	</g>
	<g id="XMLID_78_">
		<path id="XMLID_27_" d="M80.8,43.8H52c-1,0-1.7-0.8-1.7-1.7V28.5c0-1,0.8-1.7,1.7-1.7h28.8c1,0,1.7,0.8,1.7,1.7v13.5
			C82.5,43,81.7,43.8,80.8,43.8z M52.4,41.7h28V28.9h-28V41.7z"/>
	</g>
	<g id="XMLID_76_">
		<path id="XMLID_26_" d="M97.2,77.8c-0.6,0-1-0.5-1-1v-6.2H2.8c-0.6,0-1-0.5-1-1s0.5-1,1-1h94.4c0.6,0,1,0.5,1,1v7.3
			C98.3,77.3,97.8,77.8,97.2,77.8z"/>
	</g>
	<g id="XMLID_74_">
		<path id="XMLID_25_" d="M94.1,80.9c-0.6,0-1-0.5-1-1s0.5-1,1-1c1.1,0,2.1-0.9,2.1-2.1c0-0.6,0.5-1,1-1s1,0.5,1,1
			C98.3,79.1,96.4,80.9,94.1,80.9z"/>
	</g>
	<g id="XMLID_72_">
		<path id="XMLID_24_" d="M94.1,80.9H5.3c-0.6,0-1-0.5-1-1c0-0.6,0.5-1,1-1h88.8c0.6,0,1,0.5,1,1C95.1,80.5,94.7,80.9,94.1,80.9z"/>
	</g>
	<g id="XMLID_70_">
		<path id="XMLID_23_" d="M5.3,80.9c-2,0-3.5-1.6-3.5-3.5c0-0.6,0.5-1,1-1s1,0.5,1,1c0,0.8,0.6,1.4,1.4,1.4c0.6,0,1,0.5,1,1
			C6.3,80.5,5.9,80.9,5.3,80.9z"/>
	</g>
	<g id="XMLID_68_">
		<path id="XMLID_22_" d="M2.8,78.4c-0.6,0-1-0.5-1-1v-7.9c0-0.6,0.5-1,1-1s1,0.5,1,1v7.9C3.8,78,3.4,78.4,2.8,78.4z"/>
	</g>
	<g id="XMLID_66_">
		<path id="XMLID_21_" d="M38,75.7H7.4c-0.6,0-1-0.5-1-1s0.5-1,1-1H38c0.6,0,1,0.5,1,1S38.6,75.7,38,75.7z"/>
	</g>
	<g id="XMLID_62_">
		<path id="XMLID_18_" d="M81.9,76.4c-0.9,0-1.7-0.8-1.7-1.7c0-0.9,0.8-1.7,1.7-1.7c0.9,0,1.7,0.8,1.7,1.7
			C83.6,75.6,82.9,76.4,81.9,76.4z M81.9,74.3c-0.2,0-0.4,0.2-0.4,0.4c0,0.2,0.2,0.4,0.4,0.4c0.2,0,0.4-0.2,0.4-0.4
			C82.3,74.5,82.2,74.3,81.9,74.3z"/>
	</g>
	<g id="XMLID_58_">
		<path id="XMLID_15_" d="M86.9,76.4c-0.9,0-1.7-0.8-1.7-1.7c0-0.9,0.8-1.7,1.7-1.7c0.9,0,1.7,0.8,1.7,1.7
			C88.6,75.6,87.8,76.4,86.9,76.4z M86.9,74.3c-0.2,0-0.4,0.2-0.4,0.4c0,0.2,0.2,0.4,0.4,0.4c0.2,0,0.4-0.2,0.4-0.4
			C87.3,74.5,87.1,74.3,86.9,74.3z"/>
	</g>
	<g id="XMLID_54_">
		<path id="XMLID_12_" d="M91.4,76.4c-0.9,0-1.7-0.8-1.7-1.7c0-0.9,0.8-1.7,1.7-1.7c0.9,0,1.7,0.8,1.7,1.7
			C93.1,75.6,92.4,76.4,91.4,76.4z M91.4,74.3c-0.2,0-0.4,0.2-0.4,0.4c0,0.2,0.2,0.4,0.4,0.4c0.2,0,0.4-0.2,0.4-0.4
			C91.8,74.5,91.6,74.3,91.4,74.3z"/>
	</g>
	<g id="XMLID_52_">
		<path id="XMLID_11_" d="M81.4,49.6H50.8c-0.6,0-1-0.5-1-1s0.5-1,1-1h30.6c0.6,0,1,0.5,1,1S82,49.6,81.4,49.6z"/>
	</g>
	<g id="XMLID_47_">
		<g id="XMLID_50_">
			<path id="XMLID_10_" d="M81.8,54.8H39.5c-0.6,0-1-0.5-1-1s0.5-1,1-1h42.3c0.6,0,1,0.5,1,1S82.4,54.8,81.8,54.8z"/>
		</g>
		<g id="XMLID_48_">
			<path id="XMLID_9_" d="M35.2,54.8H16.8c-0.6,0-1-0.5-1-1s0.5-1,1-1h18.4c0.6,0,1,0.5,1,1S35.8,54.8,35.2,54.8z"/>
		</g>
	</g>
	<g id="XMLID_42_">
		<g id="XMLID_45_">
			<path id="XMLID_8_" d="M42.7,60H16.8c-0.6,0-1-0.5-1-1s0.5-1,1-1h25.9c0.6,0,1,0.5,1,1S43.3,60,42.7,60z"/>
		</g>
		<g id="XMLID_43_">
			<path id="XMLID_7_" d="M81.8,60H46.9c-0.6,0-1-0.5-1-1s0.5-1,1-1h34.9c0.6,0,1,0.5,1,1S82.4,60,81.8,60z"/>
		</g>
	</g>
	<g id="XMLID_40_">
		<path id="XMLID_6_" d="M81.8,65.2h-65c-0.6,0-1-0.5-1-1c0-0.6,0.5-1,1-1h65c0.6,0,1,0.5,1,1C82.8,64.7,82.4,65.2,81.8,65.2z"/>
	</g>
	<g id="XMLID_33_">
		<g id="XMLID_38_">
			<path id="XMLID_5_" d="M23.7,45.1c-0.3,0-0.5-0.1-0.8-0.3l-6.5-6.6c-0.4-0.4-0.4-1.1,0-1.5l6.3-6.6c0.4-0.4,1.1-0.4,1.5,0
				c0.4,0.4,0.4,1.1,0,1.5l-5.6,5.8l5.8,5.9c0.4,0.4,0.4,1.1,0,1.5C24.3,45,24,45.1,23.7,45.1z"/>
		</g>
		<g id="XMLID_36_">
			<path id="XMLID_4_" d="M36.4,45.1c-0.3,0-0.5-0.1-0.7-0.3c-0.4-0.4-0.4-1.1,0-1.5l5.8-5.9l-5.6-5.8c-0.4-0.4-0.4-1.1,0-1.5
				c0.4-0.4,1.1-0.4,1.5,0l6.3,6.6c0.4,0.4,0.4,1.1,0,1.5l-6.5,6.6C36.9,45,36.7,45.1,36.4,45.1z"/>
		</g>
		<g id="XMLID_34_">
			<path id="XMLID_3_" d="M26.9,48c-0.1,0-0.2,0-0.4-0.1c-0.5-0.2-0.8-0.8-0.6-1.3l7-19.1c0.2-0.5,0.8-0.8,1.3-0.6
				c0.5,0.2,0.8,0.8,0.6,1.3l-7,19.1C27.7,47.7,27.3,48,26.9,48z"/>
		</g>
	</g>
</g>
</svg>
