<?xml version="1.0" encoding="utf-8"?>
<!-- Generator: Adobe Illustrator 19.0.0, SVG Export Plug-In . SVG Version: 6.00 Build 0)  -->
<svg version="1.1" id="Layer_1" xmlns="http://www.w3.org/2000/svg" xmlns:xlink="http://www.w3.org/1999/xlink" x="0px" y="0px"
	 width="100px" height="100px" viewBox="0 0 100 100" style="enable-background:new 0 0 100 100;" xml:space="preserve">
<style type="text/css">
	.st0{fill:none;stroke:#000000;stroke-width:3;stroke-miterlimit:10;}
</style>
<circle id="XMLID_1_" class="st0" cx="51.1" cy="54.9" r="17.9"/>
<circle id="XMLID_8_" cx="87.4" cy="19.2" r="7.7"/>
<circle id="XMLID_13_" cx="51.5" cy="11" r="9.7"/>
<circle id="XMLID_14_" cx="12.8" cy="31.1" r="10.3"/>
<circle id="XMLID_12_" cx="31.7" cy="89.1" r="9.3"/>
<circle id="XMLID_11_" cx="78.5" cy="88" r="10.7"/>
<circle id="XMLID_10_" cx="89.6" cy="49.4" r="5.9"/>
<rect id="XMLID_9_" x="49.4" y="16.9" width="3.4" height="20"/>
<rect id="XMLID_17_" x="37.5" y="68.8" transform="matrix(0.8612 0.5082 -0.5082 0.8612 43.9957 -9.4184)" width="3.4" height="14.1"/>
<rect id="XMLID_15_" x="20.4" y="23.8" transform="matrix(0.578 -0.8161 0.8161 0.578 -22.5074 34.4848)" width="3.4" height="30.4"/>
<rect id="XMLID_16_" x="67.6" y="66.8" transform="matrix(0.7843 -0.6204 0.6204 0.7843 -32.7154 59.5449)" width="3.4" height="20"/>
<rect id="XMLID_18_" x="69.1" y="47.5" width="20.1" height="3.4"/>
<rect id="XMLID_19_" x="72.6" y="19" transform="matrix(-0.6974 -0.7166 0.7166 -0.6974 102.4101 109.3344)" width="3.4" height="28.1"/>
</svg>
